<?xml version="1.0" encoding="utf-8" standalone="no"?>
<!DOCTYPE svg PUBLIC "-//W3C//DTD SVG 1.1//EN"
  "http://www.w3.org/Graphics/SVG/1.1/DTD/svg11.dtd">
<svg xmlns:xlink="http://www.w3.org/1999/xlink" width="1440pt" height="576pt" viewBox="0 0 1440 576" xmlns="http://www.w3.org/2000/svg" version="1.1">
 <metadata>
  <rdf:RDF xmlns:dc="http://purl.org/dc/elements/1.1/" xmlns:cc="http://creativecommons.org/ns#" xmlns:rdf="http://www.w3.org/1999/02/22-rdf-syntax-ns#">
   <cc:Work>
    <dc:type rdf:resource="http://purl.org/dc/dcmitype/StillImage"/>
    <dc:date>2022-10-20T22:21:51.119753</dc:date>
    <dc:format>image/svg+xml</dc:format>
    <dc:creator>
     <cc:Agent>
      <dc:title>Matplotlib v3.5.1, https://matplotlib.org/</dc:title>
     </cc:Agent>
    </dc:creator>
   </cc:Work>
  </rdf:RDF>
 </metadata>
 <defs>
  <style type="text/css">*{stroke-linejoin: round; stroke-linecap: butt}</style>
 </defs>
 <g id="figure_1">
  <g id="patch_1">
   <path d="M 0 576 
L 1440 576 
L 1440 0 
L 0 0 
L 0 576 
z
" style="fill: none"/>
  </g>
  <g id="axes_1">
   <g id="patch_2">
    <path d="M 86.425 501 
L 750.6625 501 
L 750.6625 15.536471 
L 86.425 15.536471 
z
" style="fill: #ffffff"/>
   </g>
   <g id="matplotlib.axis_1">
    <g id="xtick_1">
     <g id="line2d_1">
      <defs>
       <path id="mc99714cc9b" d="M 0 0 
L 0 3.5 
" style="stroke: #000000; stroke-width: 0.8"/>
      </defs>
      <g>
       <use xlink:href="#mc99714cc9b" x="273.001206" y="501" style="stroke: #000000; stroke-width: 0.8"/>
      </g>
     </g>
     <g id="text_1">
      <!-- $\mathdefault{10^{2}}$ -->
      <g transform="translate(252.761206 525.476406)scale(0.23 -0.23)">
       <defs>
        <path id="DejaVuSans-31" d="M 794 531 
L 1825 531 
L 1825 4091 
L 703 3866 
L 703 4441 
L 1819 4666 
L 2450 4666 
L 2450 531 
L 3481 531 
L 3481 0 
L 794 0 
L 794 531 
z
" transform="scale(0.015625)"/>
        <path id="DejaVuSans-30" d="M 2034 4250 
Q 1547 4250 1301 3770 
Q 1056 3291 1056 2328 
Q 1056 1369 1301 889 
Q 1547 409 2034 409 
Q 2525 409 2770 889 
Q 3016 1369 3016 2328 
Q 3016 3291 2770 3770 
Q 2525 4250 2034 4250 
z
M 2034 4750 
Q 2819 4750 3233 4129 
Q 3647 3509 3647 2328 
Q 3647 1150 3233 529 
Q 2819 -91 2034 -91 
Q 1250 -91 836 529 
Q 422 1150 422 2328 
Q 422 3509 836 4129 
Q 1250 4750 2034 4750 
z
" transform="scale(0.015625)"/>
        <path id="DejaVuSans-32" d="M 1228 531 
L 3431 531 
L 3431 0 
L 469 0 
L 469 531 
Q 828 903 1448 1529 
Q 2069 2156 2228 2338 
Q 2531 2678 2651 2914 
Q 2772 3150 2772 3378 
Q 2772 3750 2511 3984 
Q 2250 4219 1831 4219 
Q 1534 4219 1204 4116 
Q 875 4013 500 3803 
L 500 4441 
Q 881 4594 1212 4672 
Q 1544 4750 1819 4750 
Q 2544 4750 2975 4387 
Q 3406 4025 3406 3419 
Q 3406 3131 3298 2873 
Q 3191 2616 2906 2266 
Q 2828 2175 2409 1742 
Q 1991 1309 1228 531 
z
" transform="scale(0.015625)"/>
       </defs>
       <use xlink:href="#DejaVuSans-31" transform="translate(0 0.765625)"/>
       <use xlink:href="#DejaVuSans-30" transform="translate(63.623047 0.765625)"/>
       <use xlink:href="#DejaVuSans-32" transform="translate(128.203125 39.046875)scale(0.7)"/>
      </g>
     </g>
    </g>
    <g id="xtick_2">
     <g id="line2d_2">
      <g>
       <use xlink:href="#mc99714cc9b" x="496.735546" y="501" style="stroke: #000000; stroke-width: 0.8"/>
      </g>
     </g>
     <g id="text_2">
      <!-- $\mathdefault{10^{3}}$ -->
      <g transform="translate(476.495546 525.476406)scale(0.23 -0.23)">
       <defs>
        <path id="DejaVuSans-33" d="M 2597 2516 
Q 3050 2419 3304 2112 
Q 3559 1806 3559 1356 
Q 3559 666 3084 287 
Q 2609 -91 1734 -91 
Q 1441 -91 1130 -33 
Q 819 25 488 141 
L 488 750 
Q 750 597 1062 519 
Q 1375 441 1716 441 
Q 2309 441 2620 675 
Q 2931 909 2931 1356 
Q 2931 1769 2642 2001 
Q 2353 2234 1838 2234 
L 1294 2234 
L 1294 2753 
L 1863 2753 
Q 2328 2753 2575 2939 
Q 2822 3125 2822 3475 
Q 2822 3834 2567 4026 
Q 2313 4219 1838 4219 
Q 1578 4219 1281 4162 
Q 984 4106 628 3988 
L 628 4550 
Q 988 4650 1302 4700 
Q 1616 4750 1894 4750 
Q 2613 4750 3031 4423 
Q 3450 4097 3450 3541 
Q 3450 3153 3228 2886 
Q 3006 2619 2597 2516 
z
" transform="scale(0.015625)"/>
       </defs>
       <use xlink:href="#DejaVuSans-31" transform="translate(0 0.765625)"/>
       <use xlink:href="#DejaVuSans-30" transform="translate(63.623047 0.765625)"/>
       <use xlink:href="#DejaVuSans-33" transform="translate(128.203125 39.046875)scale(0.7)"/>
      </g>
     </g>
    </g>
    <g id="xtick_3">
     <g id="line2d_3">
      <g>
       <use xlink:href="#mc99714cc9b" x="720.469886" y="501" style="stroke: #000000; stroke-width: 0.8"/>
      </g>
     </g>
     <g id="text_3">
      <!-- $\mathdefault{10^{4}}$ -->
      <g transform="translate(700.229886 525.476406)scale(0.23 -0.23)">
       <defs>
        <path id="DejaVuSans-34" d="M 2419 4116 
L 825 1625 
L 2419 1625 
L 2419 4116 
z
M 2253 4666 
L 3047 4666 
L 3047 1625 
L 3713 1625 
L 3713 1100 
L 3047 1100 
L 3047 0 
L 2419 0 
L 2419 1100 
L 313 1100 
L 313 1709 
L 2253 4666 
z
" transform="scale(0.015625)"/>
       </defs>
       <use xlink:href="#DejaVuSans-31" transform="translate(0 0.684375)"/>
       <use xlink:href="#DejaVuSans-30" transform="translate(63.623047 0.684375)"/>
       <use xlink:href="#DejaVuSans-34" transform="translate(128.203125 38.965625)scale(0.7)"/>
      </g>
     </g>
    </g>
    <g id="xtick_4">
     <g id="line2d_4">
      <defs>
       <path id="m029c853b00" d="M 0 0 
L 0 2 
" style="stroke: #000000; stroke-width: 0.6"/>
      </defs>
      <g>
       <use xlink:href="#m029c853b00" x="116.617614" y="501" style="stroke: #000000; stroke-width: 0.6"/>
      </g>
     </g>
    </g>
    <g id="xtick_5">
     <g id="line2d_5">
      <g>
       <use xlink:href="#m029c853b00" x="156.015275" y="501" style="stroke: #000000; stroke-width: 0.6"/>
      </g>
     </g>
    </g>
    <g id="xtick_6">
     <g id="line2d_6">
      <g>
       <use xlink:href="#m029c853b00" x="183.968361" y="501" style="stroke: #000000; stroke-width: 0.6"/>
      </g>
     </g>
    </g>
    <g id="xtick_7">
     <g id="line2d_7">
      <g>
       <use xlink:href="#m029c853b00" x="205.650459" y="501" style="stroke: #000000; stroke-width: 0.6"/>
      </g>
     </g>
    </g>
    <g id="xtick_8">
     <g id="line2d_8">
      <g>
       <use xlink:href="#m029c853b00" x="223.366023" y="501" style="stroke: #000000; stroke-width: 0.6"/>
      </g>
     </g>
    </g>
    <g id="xtick_9">
     <g id="line2d_9">
      <g>
       <use xlink:href="#m029c853b00" x="238.344318" y="501" style="stroke: #000000; stroke-width: 0.6"/>
      </g>
     </g>
    </g>
    <g id="xtick_10">
     <g id="line2d_10">
      <g>
       <use xlink:href="#m029c853b00" x="251.319108" y="501" style="stroke: #000000; stroke-width: 0.6"/>
      </g>
     </g>
    </g>
    <g id="xtick_11">
     <g id="line2d_11">
      <g>
       <use xlink:href="#m029c853b00" x="262.763684" y="501" style="stroke: #000000; stroke-width: 0.6"/>
      </g>
     </g>
    </g>
    <g id="xtick_12">
     <g id="line2d_12">
      <g>
       <use xlink:href="#m029c853b00" x="340.351954" y="501" style="stroke: #000000; stroke-width: 0.6"/>
      </g>
     </g>
    </g>
    <g id="xtick_13">
     <g id="line2d_13">
      <g>
       <use xlink:href="#m029c853b00" x="379.749615" y="501" style="stroke: #000000; stroke-width: 0.6"/>
      </g>
     </g>
    </g>
    <g id="xtick_14">
     <g id="line2d_14">
      <g>
       <use xlink:href="#m029c853b00" x="407.702701" y="501" style="stroke: #000000; stroke-width: 0.6"/>
      </g>
     </g>
    </g>
    <g id="xtick_15">
     <g id="line2d_15">
      <g>
       <use xlink:href="#m029c853b00" x="429.384799" y="501" style="stroke: #000000; stroke-width: 0.6"/>
      </g>
     </g>
    </g>
    <g id="xtick_16">
     <g id="line2d_16">
      <g>
       <use xlink:href="#m029c853b00" x="447.100363" y="501" style="stroke: #000000; stroke-width: 0.6"/>
      </g>
     </g>
    </g>
    <g id="xtick_17">
     <g id="line2d_17">
      <g>
       <use xlink:href="#m029c853b00" x="462.078659" y="501" style="stroke: #000000; stroke-width: 0.6"/>
      </g>
     </g>
    </g>
    <g id="xtick_18">
     <g id="line2d_18">
      <g>
       <use xlink:href="#m029c853b00" x="475.053449" y="501" style="stroke: #000000; stroke-width: 0.6"/>
      </g>
     </g>
    </g>
    <g id="xtick_19">
     <g id="line2d_19">
      <g>
       <use xlink:href="#m029c853b00" x="486.498024" y="501" style="stroke: #000000; stroke-width: 0.6"/>
      </g>
     </g>
    </g>
    <g id="xtick_20">
     <g id="line2d_20">
      <g>
       <use xlink:href="#m029c853b00" x="564.086294" y="501" style="stroke: #000000; stroke-width: 0.6"/>
      </g>
     </g>
    </g>
    <g id="xtick_21">
     <g id="line2d_21">
      <g>
       <use xlink:href="#m029c853b00" x="603.483955" y="501" style="stroke: #000000; stroke-width: 0.6"/>
      </g>
     </g>
    </g>
    <g id="xtick_22">
     <g id="line2d_22">
      <g>
       <use xlink:href="#m029c853b00" x="631.437041" y="501" style="stroke: #000000; stroke-width: 0.6"/>
      </g>
     </g>
    </g>
    <g id="xtick_23">
     <g id="line2d_23">
      <g>
       <use xlink:href="#m029c853b00" x="653.119139" y="501" style="stroke: #000000; stroke-width: 0.6"/>
      </g>
     </g>
    </g>
    <g id="xtick_24">
     <g id="line2d_24">
      <g>
       <use xlink:href="#m029c853b00" x="670.834703" y="501" style="stroke: #000000; stroke-width: 0.6"/>
      </g>
     </g>
    </g>
    <g id="xtick_25">
     <g id="line2d_25">
      <g>
       <use xlink:href="#m029c853b00" x="685.812999" y="501" style="stroke: #000000; stroke-width: 0.6"/>
      </g>
     </g>
    </g>
    <g id="xtick_26">
     <g id="line2d_26">
      <g>
       <use xlink:href="#m029c853b00" x="698.787789" y="501" style="stroke: #000000; stroke-width: 0.6"/>
      </g>
     </g>
    </g>
    <g id="xtick_27">
     <g id="line2d_27">
      <g>
       <use xlink:href="#m029c853b00" x="710.232364" y="501" style="stroke: #000000; stroke-width: 0.6"/>
      </g>
     </g>
    </g>
    <g id="text_4">
     <!-- Frequency (Hz) -->
     <g transform="translate(312.970625 555.535313)scale(0.28 -0.28)">
      <defs>
       <path id="DejaVuSans-46" d="M 628 4666 
L 3309 4666 
L 3309 4134 
L 1259 4134 
L 1259 2759 
L 3109 2759 
L 3109 2228 
L 1259 2228 
L 1259 0 
L 628 0 
L 628 4666 
z
" transform="scale(0.015625)"/>
       <path id="DejaVuSans-72" d="M 2631 2963 
Q 2534 3019 2420 3045 
Q 2306 3072 2169 3072 
Q 1681 3072 1420 2755 
Q 1159 2438 1159 1844 
L 1159 0 
L 581 0 
L 581 3500 
L 1159 3500 
L 1159 2956 
Q 1341 3275 1631 3429 
Q 1922 3584 2338 3584 
Q 2397 3584 2469 3576 
Q 2541 3569 2628 3553 
L 2631 2963 
z
" transform="scale(0.015625)"/>
       <path id="DejaVuSans-65" d="M 3597 1894 
L 3597 1613 
L 953 1613 
Q 991 1019 1311 708 
Q 1631 397 2203 397 
Q 2534 397 2845 478 
Q 3156 559 3463 722 
L 3463 178 
Q 3153 47 2828 -22 
Q 2503 -91 2169 -91 
Q 1331 -91 842 396 
Q 353 884 353 1716 
Q 353 2575 817 3079 
Q 1281 3584 2069 3584 
Q 2775 3584 3186 3129 
Q 3597 2675 3597 1894 
z
M 3022 2063 
Q 3016 2534 2758 2815 
Q 2500 3097 2075 3097 
Q 1594 3097 1305 2825 
Q 1016 2553 972 2059 
L 3022 2063 
z
" transform="scale(0.015625)"/>
       <path id="DejaVuSans-71" d="M 947 1747 
Q 947 1113 1208 752 
Q 1469 391 1925 391 
Q 2381 391 2643 752 
Q 2906 1113 2906 1747 
Q 2906 2381 2643 2742 
Q 2381 3103 1925 3103 
Q 1469 3103 1208 2742 
Q 947 2381 947 1747 
z
M 2906 525 
Q 2725 213 2448 61 
Q 2172 -91 1784 -91 
Q 1150 -91 751 415 
Q 353 922 353 1747 
Q 353 2572 751 3078 
Q 1150 3584 1784 3584 
Q 2172 3584 2448 3432 
Q 2725 3281 2906 2969 
L 2906 3500 
L 3481 3500 
L 3481 -1331 
L 2906 -1331 
L 2906 525 
z
" transform="scale(0.015625)"/>
       <path id="DejaVuSans-75" d="M 544 1381 
L 544 3500 
L 1119 3500 
L 1119 1403 
Q 1119 906 1312 657 
Q 1506 409 1894 409 
Q 2359 409 2629 706 
Q 2900 1003 2900 1516 
L 2900 3500 
L 3475 3500 
L 3475 0 
L 2900 0 
L 2900 538 
Q 2691 219 2414 64 
Q 2138 -91 1772 -91 
Q 1169 -91 856 284 
Q 544 659 544 1381 
z
M 1991 3584 
L 1991 3584 
z
" transform="scale(0.015625)"/>
       <path id="DejaVuSans-6e" d="M 3513 2113 
L 3513 0 
L 2938 0 
L 2938 2094 
Q 2938 2591 2744 2837 
Q 2550 3084 2163 3084 
Q 1697 3084 1428 2787 
Q 1159 2491 1159 1978 
L 1159 0 
L 581 0 
L 581 3500 
L 1159 3500 
L 1159 2956 
Q 1366 3272 1645 3428 
Q 1925 3584 2291 3584 
Q 2894 3584 3203 3211 
Q 3513 2838 3513 2113 
z
" transform="scale(0.015625)"/>
       <path id="DejaVuSans-63" d="M 3122 3366 
L 3122 2828 
Q 2878 2963 2633 3030 
Q 2388 3097 2138 3097 
Q 1578 3097 1268 2742 
Q 959 2388 959 1747 
Q 959 1106 1268 751 
Q 1578 397 2138 397 
Q 2388 397 2633 464 
Q 2878 531 3122 666 
L 3122 134 
Q 2881 22 2623 -34 
Q 2366 -91 2075 -91 
Q 1284 -91 818 406 
Q 353 903 353 1747 
Q 353 2603 823 3093 
Q 1294 3584 2113 3584 
Q 2378 3584 2631 3529 
Q 2884 3475 3122 3366 
z
" transform="scale(0.015625)"/>
       <path id="DejaVuSans-79" d="M 2059 -325 
Q 1816 -950 1584 -1140 
Q 1353 -1331 966 -1331 
L 506 -1331 
L 506 -850 
L 844 -850 
Q 1081 -850 1212 -737 
Q 1344 -625 1503 -206 
L 1606 56 
L 191 3500 
L 800 3500 
L 1894 763 
L 2988 3500 
L 3597 3500 
L 2059 -325 
z
" transform="scale(0.015625)"/>
       <path id="DejaVuSans-20" transform="scale(0.015625)"/>
       <path id="DejaVuSans-28" d="M 1984 4856 
Q 1566 4138 1362 3434 
Q 1159 2731 1159 2009 
Q 1159 1288 1364 580 
Q 1569 -128 1984 -844 
L 1484 -844 
Q 1016 -109 783 600 
Q 550 1309 550 2009 
Q 550 2706 781 3412 
Q 1013 4119 1484 4856 
L 1984 4856 
z
" transform="scale(0.015625)"/>
       <path id="DejaVuSans-48" d="M 628 4666 
L 1259 4666 
L 1259 2753 
L 3553 2753 
L 3553 4666 
L 4184 4666 
L 4184 0 
L 3553 0 
L 3553 2222 
L 1259 2222 
L 1259 0 
L 628 0 
L 628 4666 
z
" transform="scale(0.015625)"/>
       <path id="DejaVuSans-7a" d="M 353 3500 
L 3084 3500 
L 3084 2975 
L 922 459 
L 3084 459 
L 3084 0 
L 275 0 
L 275 525 
L 2438 3041 
L 353 3041 
L 353 3500 
z
" transform="scale(0.015625)"/>
       <path id="DejaVuSans-29" d="M 513 4856 
L 1013 4856 
Q 1481 4119 1714 3412 
Q 1947 2706 1947 2009 
Q 1947 1309 1714 600 
Q 1481 -109 1013 -844 
L 513 -844 
Q 928 -128 1133 580 
Q 1338 1288 1338 2009 
Q 1338 2731 1133 3434 
Q 928 4138 513 4856 
z
" transform="scale(0.015625)"/>
      </defs>
      <use xlink:href="#DejaVuSans-46"/>
      <use xlink:href="#DejaVuSans-72" x="50.269531"/>
      <use xlink:href="#DejaVuSans-65" x="89.132812"/>
      <use xlink:href="#DejaVuSans-71" x="150.65625"/>
      <use xlink:href="#DejaVuSans-75" x="214.132812"/>
      <use xlink:href="#DejaVuSans-65" x="277.511719"/>
      <use xlink:href="#DejaVuSans-6e" x="339.035156"/>
      <use xlink:href="#DejaVuSans-63" x="402.414062"/>
      <use xlink:href="#DejaVuSans-79" x="457.394531"/>
      <use xlink:href="#DejaVuSans-20" x="516.574219"/>
      <use xlink:href="#DejaVuSans-28" x="548.361328"/>
      <use xlink:href="#DejaVuSans-48" x="587.375"/>
      <use xlink:href="#DejaVuSans-7a" x="662.570312"/>
      <use xlink:href="#DejaVuSans-29" x="715.060547"/>
     </g>
    </g>
   </g>
   <g id="matplotlib.axis_2">
    <g id="ytick_1">
     <g id="line2d_28">
      <defs>
       <path id="m54424725d0" d="M 0 0 
L -3.5 0 
" style="stroke: #000000; stroke-width: 0.8"/>
      </defs>
      <g>
       <use xlink:href="#m54424725d0" x="86.425" y="496.240554" style="stroke: #000000; stroke-width: 0.8"/>
      </g>
     </g>
     <g id="text_5">
      <!-- 0.0 -->
      <g transform="translate(42.847812 504.978757)scale(0.23 -0.23)">
       <defs>
        <path id="DejaVuSans-2e" d="M 684 794 
L 1344 794 
L 1344 0 
L 684 0 
L 684 794 
z
" transform="scale(0.015625)"/>
       </defs>
       <use xlink:href="#DejaVuSans-30"/>
       <use xlink:href="#DejaVuSans-2e" x="63.623047"/>
       <use xlink:href="#DejaVuSans-30" x="95.410156"/>
      </g>
     </g>
    </g>
    <g id="ytick_2">
     <g id="line2d_29">
      <g>
       <use xlink:href="#m54424725d0" x="86.425" y="401.051626" style="stroke: #000000; stroke-width: 0.8"/>
      </g>
     </g>
     <g id="text_6">
      <!-- 0.2 -->
      <g transform="translate(42.847812 409.789829)scale(0.23 -0.23)">
       <use xlink:href="#DejaVuSans-30"/>
       <use xlink:href="#DejaVuSans-2e" x="63.623047"/>
       <use xlink:href="#DejaVuSans-32" x="95.410156"/>
      </g>
     </g>
    </g>
    <g id="ytick_3">
     <g id="line2d_30">
      <g>
       <use xlink:href="#m54424725d0" x="86.425" y="305.862699" style="stroke: #000000; stroke-width: 0.8"/>
      </g>
     </g>
     <g id="text_7">
      <!-- 0.4 -->
      <g transform="translate(42.847812 314.600902)scale(0.23 -0.23)">
       <use xlink:href="#DejaVuSans-30"/>
       <use xlink:href="#DejaVuSans-2e" x="63.623047"/>
       <use xlink:href="#DejaVuSans-34" x="95.410156"/>
      </g>
     </g>
    </g>
    <g id="ytick_4">
     <g id="line2d_31">
      <g>
       <use xlink:href="#m54424725d0" x="86.425" y="210.673772" style="stroke: #000000; stroke-width: 0.8"/>
      </g>
     </g>
     <g id="text_8">
      <!-- 0.6 -->
      <g transform="translate(42.847812 219.411975)scale(0.23 -0.23)">
       <defs>
        <path id="DejaVuSans-36" d="M 2113 2584 
Q 1688 2584 1439 2293 
Q 1191 2003 1191 1497 
Q 1191 994 1439 701 
Q 1688 409 2113 409 
Q 2538 409 2786 701 
Q 3034 994 3034 1497 
Q 3034 2003 2786 2293 
Q 2538 2584 2113 2584 
z
M 3366 4563 
L 3366 3988 
Q 3128 4100 2886 4159 
Q 2644 4219 2406 4219 
Q 1781 4219 1451 3797 
Q 1122 3375 1075 2522 
Q 1259 2794 1537 2939 
Q 1816 3084 2150 3084 
Q 2853 3084 3261 2657 
Q 3669 2231 3669 1497 
Q 3669 778 3244 343 
Q 2819 -91 2113 -91 
Q 1303 -91 875 529 
Q 447 1150 447 2328 
Q 447 3434 972 4092 
Q 1497 4750 2381 4750 
Q 2619 4750 2861 4703 
Q 3103 4656 3366 4563 
z
" transform="scale(0.015625)"/>
       </defs>
       <use xlink:href="#DejaVuSans-30"/>
       <use xlink:href="#DejaVuSans-2e" x="63.623047"/>
       <use xlink:href="#DejaVuSans-36" x="95.410156"/>
      </g>
     </g>
    </g>
    <g id="ytick_5">
     <g id="line2d_32">
      <g>
       <use xlink:href="#m54424725d0" x="86.425" y="115.484844" style="stroke: #000000; stroke-width: 0.8"/>
      </g>
     </g>
     <g id="text_9">
      <!-- 0.8 -->
      <g transform="translate(42.847812 124.223047)scale(0.23 -0.23)">
       <defs>
        <path id="DejaVuSans-38" d="M 2034 2216 
Q 1584 2216 1326 1975 
Q 1069 1734 1069 1313 
Q 1069 891 1326 650 
Q 1584 409 2034 409 
Q 2484 409 2743 651 
Q 3003 894 3003 1313 
Q 3003 1734 2745 1975 
Q 2488 2216 2034 2216 
z
M 1403 2484 
Q 997 2584 770 2862 
Q 544 3141 544 3541 
Q 544 4100 942 4425 
Q 1341 4750 2034 4750 
Q 2731 4750 3128 4425 
Q 3525 4100 3525 3541 
Q 3525 3141 3298 2862 
Q 3072 2584 2669 2484 
Q 3125 2378 3379 2068 
Q 3634 1759 3634 1313 
Q 3634 634 3220 271 
Q 2806 -91 2034 -91 
Q 1263 -91 848 271 
Q 434 634 434 1313 
Q 434 1759 690 2068 
Q 947 2378 1403 2484 
z
M 1172 3481 
Q 1172 3119 1398 2916 
Q 1625 2713 2034 2713 
Q 2441 2713 2670 2916 
Q 2900 3119 2900 3481 
Q 2900 3844 2670 4047 
Q 2441 4250 2034 4250 
Q 1625 4250 1398 4047 
Q 1172 3844 1172 3481 
z
" transform="scale(0.015625)"/>
       </defs>
       <use xlink:href="#DejaVuSans-30"/>
       <use xlink:href="#DejaVuSans-2e" x="63.623047"/>
       <use xlink:href="#DejaVuSans-38" x="95.410156"/>
      </g>
     </g>
    </g>
    <g id="ytick_6">
     <g id="line2d_33">
      <g>
       <use xlink:href="#m54424725d0" x="86.425" y="20.295917" style="stroke: #000000; stroke-width: 0.8"/>
      </g>
     </g>
     <g id="text_10">
      <!-- 1.0 -->
      <g transform="translate(42.847812 29.03412)scale(0.23 -0.23)">
       <use xlink:href="#DejaVuSans-31"/>
       <use xlink:href="#DejaVuSans-2e" x="63.623047"/>
       <use xlink:href="#DejaVuSans-30" x="95.410156"/>
      </g>
     </g>
    </g>
    <g id="text_11">
     <!-- Arbitrary Units -->
     <g transform="translate(33.024687 360.48136)rotate(-90)scale(0.28 -0.28)">
      <defs>
       <path id="DejaVuSans-41" d="M 2188 4044 
L 1331 1722 
L 3047 1722 
L 2188 4044 
z
M 1831 4666 
L 2547 4666 
L 4325 0 
L 3669 0 
L 3244 1197 
L 1141 1197 
L 716 0 
L 50 0 
L 1831 4666 
z
" transform="scale(0.015625)"/>
       <path id="DejaVuSans-62" d="M 3116 1747 
Q 3116 2381 2855 2742 
Q 2594 3103 2138 3103 
Q 1681 3103 1420 2742 
Q 1159 2381 1159 1747 
Q 1159 1113 1420 752 
Q 1681 391 2138 391 
Q 2594 391 2855 752 
Q 3116 1113 3116 1747 
z
M 1159 2969 
Q 1341 3281 1617 3432 
Q 1894 3584 2278 3584 
Q 2916 3584 3314 3078 
Q 3713 2572 3713 1747 
Q 3713 922 3314 415 
Q 2916 -91 2278 -91 
Q 1894 -91 1617 61 
Q 1341 213 1159 525 
L 1159 0 
L 581 0 
L 581 4863 
L 1159 4863 
L 1159 2969 
z
" transform="scale(0.015625)"/>
       <path id="DejaVuSans-69" d="M 603 3500 
L 1178 3500 
L 1178 0 
L 603 0 
L 603 3500 
z
M 603 4863 
L 1178 4863 
L 1178 4134 
L 603 4134 
L 603 4863 
z
" transform="scale(0.015625)"/>
       <path id="DejaVuSans-74" d="M 1172 4494 
L 1172 3500 
L 2356 3500 
L 2356 3053 
L 1172 3053 
L 1172 1153 
Q 1172 725 1289 603 
Q 1406 481 1766 481 
L 2356 481 
L 2356 0 
L 1766 0 
Q 1100 0 847 248 
Q 594 497 594 1153 
L 594 3053 
L 172 3053 
L 172 3500 
L 594 3500 
L 594 4494 
L 1172 4494 
z
" transform="scale(0.015625)"/>
       <path id="DejaVuSans-61" d="M 2194 1759 
Q 1497 1759 1228 1600 
Q 959 1441 959 1056 
Q 959 750 1161 570 
Q 1363 391 1709 391 
Q 2188 391 2477 730 
Q 2766 1069 2766 1631 
L 2766 1759 
L 2194 1759 
z
M 3341 1997 
L 3341 0 
L 2766 0 
L 2766 531 
Q 2569 213 2275 61 
Q 1981 -91 1556 -91 
Q 1019 -91 701 211 
Q 384 513 384 1019 
Q 384 1609 779 1909 
Q 1175 2209 1959 2209 
L 2766 2209 
L 2766 2266 
Q 2766 2663 2505 2880 
Q 2244 3097 1772 3097 
Q 1472 3097 1187 3025 
Q 903 2953 641 2809 
L 641 3341 
Q 956 3463 1253 3523 
Q 1550 3584 1831 3584 
Q 2591 3584 2966 3190 
Q 3341 2797 3341 1997 
z
" transform="scale(0.015625)"/>
       <path id="DejaVuSans-55" d="M 556 4666 
L 1191 4666 
L 1191 1831 
Q 1191 1081 1462 751 
Q 1734 422 2344 422 
Q 2950 422 3222 751 
Q 3494 1081 3494 1831 
L 3494 4666 
L 4128 4666 
L 4128 1753 
Q 4128 841 3676 375 
Q 3225 -91 2344 -91 
Q 1459 -91 1007 375 
Q 556 841 556 1753 
L 556 4666 
z
" transform="scale(0.015625)"/>
       <path id="DejaVuSans-73" d="M 2834 3397 
L 2834 2853 
Q 2591 2978 2328 3040 
Q 2066 3103 1784 3103 
Q 1356 3103 1142 2972 
Q 928 2841 928 2578 
Q 928 2378 1081 2264 
Q 1234 2150 1697 2047 
L 1894 2003 
Q 2506 1872 2764 1633 
Q 3022 1394 3022 966 
Q 3022 478 2636 193 
Q 2250 -91 1575 -91 
Q 1294 -91 989 -36 
Q 684 19 347 128 
L 347 722 
Q 666 556 975 473 
Q 1284 391 1588 391 
Q 1994 391 2212 530 
Q 2431 669 2431 922 
Q 2431 1156 2273 1281 
Q 2116 1406 1581 1522 
L 1381 1569 
Q 847 1681 609 1914 
Q 372 2147 372 2553 
Q 372 3047 722 3315 
Q 1072 3584 1716 3584 
Q 2034 3584 2315 3537 
Q 2597 3491 2834 3397 
z
" transform="scale(0.015625)"/>
      </defs>
      <use xlink:href="#DejaVuSans-41"/>
      <use xlink:href="#DejaVuSans-72" x="68.408203"/>
      <use xlink:href="#DejaVuSans-62" x="109.521484"/>
      <use xlink:href="#DejaVuSans-69" x="172.998047"/>
      <use xlink:href="#DejaVuSans-74" x="200.78125"/>
      <use xlink:href="#DejaVuSans-72" x="239.990234"/>
      <use xlink:href="#DejaVuSans-61" x="281.103516"/>
      <use xlink:href="#DejaVuSans-72" x="342.382812"/>
      <use xlink:href="#DejaVuSans-79" x="383.496094"/>
      <use xlink:href="#DejaVuSans-20" x="442.675781"/>
      <use xlink:href="#DejaVuSans-55" x="474.462891"/>
      <use xlink:href="#DejaVuSans-6e" x="547.65625"/>
      <use xlink:href="#DejaVuSans-69" x="611.035156"/>
      <use xlink:href="#DejaVuSans-74" x="638.818359"/>
      <use xlink:href="#DejaVuSans-73" x="678.027344"/>
     </g>
    </g>
   </g>
   <g id="line2d_34">
    <path d="M 116.617614 496.240554 
L 125.878579 490.576356 
L 134.333177 484.930652 
L 142.110654 479.305012 
L 149.311473 473.700974 
L 156.015275 468.120047 
L 162.286263 462.563708 
L 168.176951 457.0334 
L 173.730839 451.530529 
L 178.984367 446.056465 
L 183.968361 440.61254 
L 188.709135 435.200045 
L 195.412937 427.142958 
L 201.683925 419.163434 
L 207.574613 411.265295 
L 213.128501 403.452138 
L 218.382028 395.72733 
L 224.972119 385.570402 
L 231.1435 375.582867 
L 236.946214 365.770767 
L 243.743851 353.760361 
L 250.096871 342.041086 
L 257.209796 328.372073 
L 263.837359 315.14145 
L 271.038178 300.267472 
L 278.662997 284.014172 
L 287.422672 264.812666 
L 298.494247 239.974975 
L 325.697008 178.687684 
L 333.821509 161.051873 
L 340.836576 146.324188 
L 347.379106 133.105118 
L 353.50876 121.243469 
L 358.873884 111.321876 
L 364.338505 101.693002 
L 369.512093 93.045469 
L 374.424086 85.274484 
L 379.099669 78.286467 
L 383.560558 71.998189 
L 388.123208 65.953554 
L 392.481185 60.547521 
L 396.652065 55.709916 
L 400.912104 51.107201 
L 404.993191 47.016225 
L 409.149377 43.167058 
L 413.135055 39.772847 
L 417.184249 36.618394 
L 421.071431 33.864839 
L 425.012558 31.343709 
L 428.995353 29.068618 
L 432.821304 27.137453 
L 436.682736 25.437501 
L 440.569918 23.97566 
L 444.307555 22.803258 
L 448.067202 21.852203 
L 451.841137 21.125769 
L 455.622415 20.62569 
L 459.404826 20.352453 
L 463.182836 20.305558 
L 466.951542 20.48373 
L 470.706614 20.885108 
L 474.444252 21.507381 
L 478.161132 22.347904 
L 481.96755 23.439633 
L 485.73933 24.754194 
L 489.579563 26.333371 
L 493.374414 28.135548 
L 497.220169 30.210355 
L 501.105455 32.564154 
L 505.019955 35.201487 
L 508.954362 38.125143 
L 512.900329 41.33622 
L 516.929372 44.90701 
L 520.949566 48.767834 
L 525.028121 52.992058 
L 529.220968 57.660118 
L 533.440349 62.692721 
L 537.739304 68.16662 
L 542.160975 74.160748 
L 546.681167 80.667189 
L 551.333345 87.758088 
L 556.142682 95.500338 
L 561.126676 103.952145 
L 566.295812 113.159454 
L 571.744107 123.323652 
L 577.539663 134.61529 
L 583.765695 147.242319 
L 590.62015 161.659471 
L 598.43175 178.624794 
L 608.101265 200.186031 
L 644.104664 281.002424 
L 652.377852 298.708871 
L 659.85662 314.199517 
L 666.851298 328.183317 
L 673.50222 340.988961 
L 679.90409 352.838179 
L 686.1179 363.876643 
L 692.192371 374.218632 
L 698.154144 383.9339 
L 704.036202 393.097698 
L 709.853758 401.752739 
L 715.628979 409.949139 
L 720.469886 416.521496 
L 720.469886 416.521496 
" clip-path="url(#p46b08d0c8c)" style="fill: none; stroke: #ff5722; stroke-opacity: 0.35; stroke-width: 3; stroke-linecap: square"/>
   </g>
   <g id="line2d_35"/>
   <g id="patch_3">
    <path d="M 86.425 501 
L 86.425 15.536471 
" style="fill: none; stroke: #000000; stroke-width: 0.8; stroke-linejoin: miter; stroke-linecap: square"/>
   </g>
   <g id="patch_4">
    <path d="M 86.425 501 
L 750.6625 501 
" style="fill: none; stroke: #000000; stroke-width: 0.8; stroke-linejoin: miter; stroke-linecap: square"/>
   </g>
   <g id="line2d_36">
    <path d="M 116.617614 496.240554 
L 130.197805 468.634765 
L 142.110654 444.970979 
L 152.721177 424.594408 
L 162.286263 406.850512 
L 170.993571 391.168156 
L 178.984367 377.180661 
L 188.709135 360.5968 
L 197.548552 345.889835 
L 207.574613 329.67084 
L 216.662221 315.376522 
L 226.552098 300.25436 
L 238.344318 282.660463 
L 250.096871 265.556613 
L 262.763684 247.51324 
L 272.024649 234.700372 
L 280.479248 223.407238 
L 288.256725 213.383932 
L 297.743922 201.546935 
L 307.755212 189.401955 
L 318.060659 177.268891 
L 329.02876 164.689335 
L 338.388926 154.294223 
L 346.926114 145.155893 
L 354.773419 137.076117 
L 363.19311 128.737269 
L 371.999125 120.333473 
L 380.716455 112.335527 
L 390.181276 103.967267 
L 397.734712 97.56299 
L 404.24093 92.336161 
L 409.864717 88.102179 
L 415.405406 84.217829 
L 421.282892 80.378704 
L 428.408242 76.011204 
L 439.700023 69.377437 
L 447.74599 64.901897 
L 454.278044 61.516135 
L 459.973885 58.811499 
L 464.950787 56.688987 
L 469.428088 55.013105 
L 473.584908 53.690979 
L 477.452745 52.695137 
L 480.944136 52.024571 
L 484.093329 51.638811 
L 487.036345 51.495488 
L 489.788524 51.577712 
L 492.363306 51.867727 
L 494.871617 52.371414 
L 497.316804 53.095445 
L 499.796164 54.075431 
L 502.397337 55.349635 
L 505.287263 57.023547 
L 508.611017 59.21785 
L 513.310835 62.618438 
L 519.114737 66.776713 
L 522.303302 68.768481 
L 525.173254 70.300828 
L 527.74925 71.428643 
L 530.120986 72.228317 
L 532.301534 72.734732 
L 534.368277 72.988292 
L 536.327347 73.003172 
L 538.184294 72.794447 
L 539.944151 72.377954 
L 541.6727 71.743692 
L 543.371036 70.886061 
L 545.158332 69.730453 
L 547.087115 68.208224 
L 549.148476 66.289578 
L 551.444077 63.835732 
L 554.064458 60.690371 
L 557.295697 56.438996 
L 566.864039 43.600716 
L 569.931245 40.049156 
L 572.904586 36.938935 
L 575.875738 34.15113 
L 578.800493 31.707264 
L 581.761363 29.518223 
L 584.831086 27.523552 
L 588.072846 25.682261 
L 591.246676 24.132793 
L 594.320108 22.877959 
L 597.333811 21.886983 
L 600.290322 21.147744 
L 603.224498 20.642349 
L 606.167227 20.361409 
L 609.145746 20.301919 
L 612.065328 20.462936 
L 614.928531 20.843639 
L 617.709774 21.437047 
L 620.440825 22.245899 
L 623.150131 23.281075 
L 625.837417 24.54789 
L 628.502464 26.051044 
L 631.169465 27.811851 
L 633.860034 29.858292 
L 636.570315 32.201538 
L 639.341499 34.896053 
L 642.166436 37.958721 
L 645.05947 41.429416 
L 648.03281 45.350416 
L 651.096603 49.764632 
L 654.278197 54.744436 
L 657.637564 60.42289 
L 661.278551 67.02515 
L 665.337955 74.861473 
L 670.266238 84.885898 
L 686.95834 119.266766 
L 691.356861 127.62226 
L 695.010848 134.102743 
L 698.166369 139.261042 
L 700.961682 143.41694 
L 703.563259 146.896886 
L 706.006824 149.802299 
L 708.291367 152.181652 
L 710.437278 154.104293 
L 712.462988 155.628367 
L 714.385279 156.802083 
L 716.209384 157.660731 
L 717.96 158.242707 
L 719.65024 158.572116 
L 720.469886 158.647473 
L 720.469886 158.647473 
" clip-path="url(#p46b08d0c8c)" style="fill: none; stroke: #00adb5; stroke-opacity: 0.35; stroke-width: 3; stroke-linecap: square"/>
   </g>
   <g id="line2d_37">
    <path d="M 116.617614 496.240554 
L 720.469886 20.295917 
L 720.469886 20.295917 
" clip-path="url(#p46b08d0c8c)" style="fill: none; stroke: #303841; stroke-opacity: 0.35; stroke-width: 3; stroke-linecap: square"/>
   </g>
   <g id="line2d_38">
    <path d="M 299.238822 238.290101 
L 433.754707 26.703726 
" clip-path="url(#p46b08d0c8c)" style="fill: none; stroke: #ff5722; stroke-width: 4; stroke-linecap: square"/>
    <defs>
     <path id="mc9d9a513b7" d="M 0 7.071068 
L 7.071068 0 
L 0 -7.071068 
L -7.071068 0 
z
" style="stroke: #ff5722; stroke-linejoin: miter"/>
    </defs>
    <g clip-path="url(#p46b08d0c8c)">
     <use xlink:href="#mc9d9a513b7" x="299.238822" y="238.290101" style="fill: #ffffff; stroke: #ff5722; stroke-linejoin: miter"/>
     <use xlink:href="#mc9d9a513b7" x="433.754707" y="26.703726" style="fill: #ffffff; stroke: #ff5722; stroke-linejoin: miter"/>
    </g>
   </g>
   <g id="legend_1">
    <g id="patch_5">
     <path d="M 97.625 122.276471 
L 307.78 122.276471 
Q 310.98 122.276471 310.98 119.076471 
L 310.98 26.736471 
Q 310.98 23.536471 307.78 23.536471 
L 97.625 23.536471 
Q 94.425 23.536471 94.425 26.736471 
L 94.425 119.076471 
Q 94.425 122.276471 97.625 122.276471 
z
" style="fill: #ffffff; opacity: 0.8; stroke: #cccccc; stroke-linejoin: miter"/>
    </g>
    <g id="line2d_39">
     <path d="M 100.825 36.493971 
L 116.825 36.493971 
L 132.825 36.493971 
" style="fill: none; stroke: #303841; stroke-opacity: 0.35; stroke-width: 3; stroke-linecap: square"/>
    </g>
    <g id="text_12">
     <!-- Pitch Height -->
     <g transform="translate(145.625 42.093971)scale(0.16 -0.16)">
      <defs>
       <path id="DejaVuSans-50" d="M 1259 4147 
L 1259 2394 
L 2053 2394 
Q 2494 2394 2734 2622 
Q 2975 2850 2975 3272 
Q 2975 3691 2734 3919 
Q 2494 4147 2053 4147 
L 1259 4147 
z
M 628 4666 
L 2053 4666 
Q 2838 4666 3239 4311 
Q 3641 3956 3641 3272 
Q 3641 2581 3239 2228 
Q 2838 1875 2053 1875 
L 1259 1875 
L 1259 0 
L 628 0 
L 628 4666 
z
" transform="scale(0.015625)"/>
       <path id="DejaVuSans-68" d="M 3513 2113 
L 3513 0 
L 2938 0 
L 2938 2094 
Q 2938 2591 2744 2837 
Q 2550 3084 2163 3084 
Q 1697 3084 1428 2787 
Q 1159 2491 1159 1978 
L 1159 0 
L 581 0 
L 581 4863 
L 1159 4863 
L 1159 2956 
Q 1366 3272 1645 3428 
Q 1925 3584 2291 3584 
Q 2894 3584 3203 3211 
Q 3513 2838 3513 2113 
z
" transform="scale(0.015625)"/>
       <path id="DejaVuSans-67" d="M 2906 1791 
Q 2906 2416 2648 2759 
Q 2391 3103 1925 3103 
Q 1463 3103 1205 2759 
Q 947 2416 947 1791 
Q 947 1169 1205 825 
Q 1463 481 1925 481 
Q 2391 481 2648 825 
Q 2906 1169 2906 1791 
z
M 3481 434 
Q 3481 -459 3084 -895 
Q 2688 -1331 1869 -1331 
Q 1566 -1331 1297 -1286 
Q 1028 -1241 775 -1147 
L 775 -588 
Q 1028 -725 1275 -790 
Q 1522 -856 1778 -856 
Q 2344 -856 2625 -561 
Q 2906 -266 2906 331 
L 2906 616 
Q 2728 306 2450 153 
Q 2172 0 1784 0 
Q 1141 0 747 490 
Q 353 981 353 1791 
Q 353 2603 747 3093 
Q 1141 3584 1784 3584 
Q 2172 3584 2450 3431 
Q 2728 3278 2906 2969 
L 2906 3500 
L 3481 3500 
L 3481 434 
z
" transform="scale(0.015625)"/>
      </defs>
      <use xlink:href="#DejaVuSans-50"/>
      <use xlink:href="#DejaVuSans-69" x="58.052734"/>
      <use xlink:href="#DejaVuSans-74" x="85.835938"/>
      <use xlink:href="#DejaVuSans-63" x="125.044922"/>
      <use xlink:href="#DejaVuSans-68" x="180.025391"/>
      <use xlink:href="#DejaVuSans-20" x="243.404297"/>
      <use xlink:href="#DejaVuSans-48" x="275.191406"/>
      <use xlink:href="#DejaVuSans-65" x="350.386719"/>
      <use xlink:href="#DejaVuSans-69" x="411.910156"/>
      <use xlink:href="#DejaVuSans-67" x="439.693359"/>
      <use xlink:href="#DejaVuSans-68" x="503.169922"/>
      <use xlink:href="#DejaVuSans-74" x="566.548828"/>
     </g>
    </g>
    <g id="line2d_40">
     <path d="M 100.825 59.978971 
L 116.825 59.978971 
L 132.825 59.978971 
" style="fill: none; stroke: #00adb5; stroke-opacity: 0.35; stroke-width: 3; stroke-linecap: square"/>
    </g>
    <g id="text_13">
     <!-- Cochlear Sensitivity -->
     <g transform="translate(145.625 65.578971)scale(0.16 -0.16)">
      <defs>
       <path id="DejaVuSans-43" d="M 4122 4306 
L 4122 3641 
Q 3803 3938 3442 4084 
Q 3081 4231 2675 4231 
Q 1875 4231 1450 3742 
Q 1025 3253 1025 2328 
Q 1025 1406 1450 917 
Q 1875 428 2675 428 
Q 3081 428 3442 575 
Q 3803 722 4122 1019 
L 4122 359 
Q 3791 134 3420 21 
Q 3050 -91 2638 -91 
Q 1578 -91 968 557 
Q 359 1206 359 2328 
Q 359 3453 968 4101 
Q 1578 4750 2638 4750 
Q 3056 4750 3426 4639 
Q 3797 4528 4122 4306 
z
" transform="scale(0.015625)"/>
       <path id="DejaVuSans-6f" d="M 1959 3097 
Q 1497 3097 1228 2736 
Q 959 2375 959 1747 
Q 959 1119 1226 758 
Q 1494 397 1959 397 
Q 2419 397 2687 759 
Q 2956 1122 2956 1747 
Q 2956 2369 2687 2733 
Q 2419 3097 1959 3097 
z
M 1959 3584 
Q 2709 3584 3137 3096 
Q 3566 2609 3566 1747 
Q 3566 888 3137 398 
Q 2709 -91 1959 -91 
Q 1206 -91 779 398 
Q 353 888 353 1747 
Q 353 2609 779 3096 
Q 1206 3584 1959 3584 
z
" transform="scale(0.015625)"/>
       <path id="DejaVuSans-6c" d="M 603 4863 
L 1178 4863 
L 1178 0 
L 603 0 
L 603 4863 
z
" transform="scale(0.015625)"/>
       <path id="DejaVuSans-53" d="M 3425 4513 
L 3425 3897 
Q 3066 4069 2747 4153 
Q 2428 4238 2131 4238 
Q 1616 4238 1336 4038 
Q 1056 3838 1056 3469 
Q 1056 3159 1242 3001 
Q 1428 2844 1947 2747 
L 2328 2669 
Q 3034 2534 3370 2195 
Q 3706 1856 3706 1288 
Q 3706 609 3251 259 
Q 2797 -91 1919 -91 
Q 1588 -91 1214 -16 
Q 841 59 441 206 
L 441 856 
Q 825 641 1194 531 
Q 1563 422 1919 422 
Q 2459 422 2753 634 
Q 3047 847 3047 1241 
Q 3047 1584 2836 1778 
Q 2625 1972 2144 2069 
L 1759 2144 
Q 1053 2284 737 2584 
Q 422 2884 422 3419 
Q 422 4038 858 4394 
Q 1294 4750 2059 4750 
Q 2388 4750 2728 4690 
Q 3069 4631 3425 4513 
z
" transform="scale(0.015625)"/>
       <path id="DejaVuSans-76" d="M 191 3500 
L 800 3500 
L 1894 563 
L 2988 3500 
L 3597 3500 
L 2284 0 
L 1503 0 
L 191 3500 
z
" transform="scale(0.015625)"/>
      </defs>
      <use xlink:href="#DejaVuSans-43"/>
      <use xlink:href="#DejaVuSans-6f" x="69.824219"/>
      <use xlink:href="#DejaVuSans-63" x="131.005859"/>
      <use xlink:href="#DejaVuSans-68" x="185.986328"/>
      <use xlink:href="#DejaVuSans-6c" x="249.365234"/>
      <use xlink:href="#DejaVuSans-65" x="277.148438"/>
      <use xlink:href="#DejaVuSans-61" x="338.671875"/>
      <use xlink:href="#DejaVuSans-72" x="399.951172"/>
      <use xlink:href="#DejaVuSans-20" x="441.064453"/>
      <use xlink:href="#DejaVuSans-53" x="472.851562"/>
      <use xlink:href="#DejaVuSans-65" x="536.328125"/>
      <use xlink:href="#DejaVuSans-6e" x="597.851562"/>
      <use xlink:href="#DejaVuSans-73" x="661.230469"/>
      <use xlink:href="#DejaVuSans-69" x="713.330078"/>
      <use xlink:href="#DejaVuSans-74" x="741.113281"/>
      <use xlink:href="#DejaVuSans-69" x="780.322266"/>
      <use xlink:href="#DejaVuSans-76" x="808.105469"/>
      <use xlink:href="#DejaVuSans-69" x="867.285156"/>
      <use xlink:href="#DejaVuSans-74" x="895.068359"/>
      <use xlink:href="#DejaVuSans-79" x="934.277344"/>
     </g>
    </g>
    <g id="line2d_41">
     <path d="M 100.825 83.463971 
L 116.825 83.463971 
L 132.825 83.463971 
" style="fill: none; stroke: #ff5722; stroke-opacity: 0.35; stroke-width: 3; stroke-linecap: square"/>
    </g>
    <g id="text_14">
     <!-- Pitch Salience -->
     <g transform="translate(145.625 89.063971)scale(0.16 -0.16)">
      <use xlink:href="#DejaVuSans-50"/>
      <use xlink:href="#DejaVuSans-69" x="58.052734"/>
      <use xlink:href="#DejaVuSans-74" x="85.835938"/>
      <use xlink:href="#DejaVuSans-63" x="125.044922"/>
      <use xlink:href="#DejaVuSans-68" x="180.025391"/>
      <use xlink:href="#DejaVuSans-20" x="243.404297"/>
      <use xlink:href="#DejaVuSans-53" x="275.191406"/>
      <use xlink:href="#DejaVuSans-61" x="338.667969"/>
      <use xlink:href="#DejaVuSans-6c" x="399.947266"/>
      <use xlink:href="#DejaVuSans-69" x="427.730469"/>
      <use xlink:href="#DejaVuSans-65" x="455.513672"/>
      <use xlink:href="#DejaVuSans-6e" x="517.037109"/>
      <use xlink:href="#DejaVuSans-63" x="580.416016"/>
      <use xlink:href="#DejaVuSans-65" x="635.396484"/>
     </g>
    </g>
    <g id="line2d_42">
     <path d="M 100.825 106.948971 
L 116.825 106.948971 
L 132.825 106.948971 
" style="fill: none; stroke: #000000; stroke-width: 4; stroke-linecap: square"/>
     <defs>
      <path id="me71f83a74a" d="M 0 6.363961 
L 6.363961 0 
L 0 -6.363961 
L -6.363961 0 
z
" style="stroke: #000000; stroke-linejoin: miter"/>
     </defs>
     <g>
      <use xlink:href="#me71f83a74a" x="116.825" y="106.948971" style="fill: #ffffff; stroke: #000000; stroke-linejoin: miter"/>
     </g>
    </g>
    <g id="text_15">
     <!-- Boltz (2011) Stimuli -->
     <g transform="translate(145.625 112.548971)scale(0.16 -0.16)">
      <defs>
       <path id="DejaVuSans-42" d="M 1259 2228 
L 1259 519 
L 2272 519 
Q 2781 519 3026 730 
Q 3272 941 3272 1375 
Q 3272 1813 3026 2020 
Q 2781 2228 2272 2228 
L 1259 2228 
z
M 1259 4147 
L 1259 2741 
L 2194 2741 
Q 2656 2741 2882 2914 
Q 3109 3088 3109 3444 
Q 3109 3797 2882 3972 
Q 2656 4147 2194 4147 
L 1259 4147 
z
M 628 4666 
L 2241 4666 
Q 2963 4666 3353 4366 
Q 3744 4066 3744 3513 
Q 3744 3084 3544 2831 
Q 3344 2578 2956 2516 
Q 3422 2416 3680 2098 
Q 3938 1781 3938 1306 
Q 3938 681 3513 340 
Q 3088 0 2303 0 
L 628 0 
L 628 4666 
z
" transform="scale(0.015625)"/>
       <path id="DejaVuSans-6d" d="M 3328 2828 
Q 3544 3216 3844 3400 
Q 4144 3584 4550 3584 
Q 5097 3584 5394 3201 
Q 5691 2819 5691 2113 
L 5691 0 
L 5113 0 
L 5113 2094 
Q 5113 2597 4934 2840 
Q 4756 3084 4391 3084 
Q 3944 3084 3684 2787 
Q 3425 2491 3425 1978 
L 3425 0 
L 2847 0 
L 2847 2094 
Q 2847 2600 2669 2842 
Q 2491 3084 2119 3084 
Q 1678 3084 1418 2786 
Q 1159 2488 1159 1978 
L 1159 0 
L 581 0 
L 581 3500 
L 1159 3500 
L 1159 2956 
Q 1356 3278 1631 3431 
Q 1906 3584 2284 3584 
Q 2666 3584 2933 3390 
Q 3200 3197 3328 2828 
z
" transform="scale(0.015625)"/>
      </defs>
      <use xlink:href="#DejaVuSans-42"/>
      <use xlink:href="#DejaVuSans-6f" x="68.603516"/>
      <use xlink:href="#DejaVuSans-6c" x="129.785156"/>
      <use xlink:href="#DejaVuSans-74" x="157.568359"/>
      <use xlink:href="#DejaVuSans-7a" x="196.777344"/>
      <use xlink:href="#DejaVuSans-20" x="249.267578"/>
      <use xlink:href="#DejaVuSans-28" x="281.054688"/>
      <use xlink:href="#DejaVuSans-32" x="320.068359"/>
      <use xlink:href="#DejaVuSans-30" x="383.691406"/>
      <use xlink:href="#DejaVuSans-31" x="447.314453"/>
      <use xlink:href="#DejaVuSans-31" x="510.9375"/>
      <use xlink:href="#DejaVuSans-29" x="574.560547"/>
      <use xlink:href="#DejaVuSans-20" x="613.574219"/>
      <use xlink:href="#DejaVuSans-53" x="645.361328"/>
      <use xlink:href="#DejaVuSans-74" x="708.837891"/>
      <use xlink:href="#DejaVuSans-69" x="748.046875"/>
      <use xlink:href="#DejaVuSans-6d" x="775.830078"/>
      <use xlink:href="#DejaVuSans-75" x="873.242188"/>
      <use xlink:href="#DejaVuSans-6c" x="936.621094"/>
      <use xlink:href="#DejaVuSans-69" x="964.404297"/>
     </g>
    </g>
   </g>
   <g id="line2d_43">
    <path d="M 299.238822 199.710662 
L 433.754707 72.833676 
" clip-path="url(#p46b08d0c8c)" style="fill: none; stroke: #00adb5; stroke-width: 4; stroke-linecap: square"/>
    <defs>
     <path id="m7ba03cfd70" d="M 0 7.071068 
L 7.071068 0 
L 0 -7.071068 
L -7.071068 0 
z
" style="stroke: #00adb5; stroke-linejoin: miter"/>
    </defs>
    <g clip-path="url(#p46b08d0c8c)">
     <use xlink:href="#m7ba03cfd70" x="299.238822" y="199.710662" style="fill: #ffffff; stroke: #00adb5; stroke-linejoin: miter"/>
     <use xlink:href="#m7ba03cfd70" x="433.754707" y="72.833676" style="fill: #ffffff; stroke: #00adb5; stroke-linejoin: miter"/>
    </g>
   </g>
   <g id="line2d_44">
    <path d="M 299.238822 352.302063 
L 433.754707 246.279254 
" clip-path="url(#p46b08d0c8c)" style="fill: none; stroke: #303841; stroke-width: 4; stroke-linecap: square"/>
    <defs>
     <path id="m04a99fc13b" d="M 0 7.071068 
L 7.071068 0 
L 0 -7.071068 
L -7.071068 0 
z
" style="stroke: #303841; stroke-linejoin: miter"/>
    </defs>
    <g clip-path="url(#p46b08d0c8c)">
     <use xlink:href="#m04a99fc13b" x="299.238822" y="352.302063" style="fill: #ffffff; stroke: #303841; stroke-linejoin: miter"/>
     <use xlink:href="#m04a99fc13b" x="433.754707" y="246.279254" style="fill: #ffffff; stroke: #303841; stroke-linejoin: miter"/>
    </g>
   </g>
  </g>
  <g id="axes_2">
   <g id="patch_6">
    <path d="M 764.9625 501 
L 1429.2 501 
L 1429.2 15.536471 
L 764.9625 15.536471 
z
" style="fill: #ffffff"/>
   </g>
   <g id="matplotlib.axis_3">
    <g id="xtick_28">
     <g id="line2d_45">
      <g>
       <use xlink:href="#mc99714cc9b" x="951.538706" y="501" style="stroke: #000000; stroke-width: 0.8"/>
      </g>
     </g>
     <g id="text_16">
      <!-- $\mathdefault{10^{2}}$ -->
      <g transform="translate(931.298706 525.476406)scale(0.23 -0.23)">
       <use xlink:href="#DejaVuSans-31" transform="translate(0 0.765625)"/>
       <use xlink:href="#DejaVuSans-30" transform="translate(63.623047 0.765625)"/>
       <use xlink:href="#DejaVuSans-32" transform="translate(128.203125 39.046875)scale(0.7)"/>
      </g>
     </g>
    </g>
    <g id="xtick_29">
     <g id="line2d_46">
      <g>
       <use xlink:href="#mc99714cc9b" x="1175.273046" y="501" style="stroke: #000000; stroke-width: 0.8"/>
      </g>
     </g>
     <g id="text_17">
      <!-- $\mathdefault{10^{3}}$ -->
      <g transform="translate(1155.033046 525.476406)scale(0.23 -0.23)">
       <use xlink:href="#DejaVuSans-31" transform="translate(0 0.765625)"/>
       <use xlink:href="#DejaVuSans-30" transform="translate(63.623047 0.765625)"/>
       <use xlink:href="#DejaVuSans-33" transform="translate(128.203125 39.046875)scale(0.7)"/>
      </g>
     </g>
    </g>
    <g id="xtick_30">
     <g id="line2d_47">
      <g>
       <use xlink:href="#mc99714cc9b" x="1399.007386" y="501" style="stroke: #000000; stroke-width: 0.8"/>
      </g>
     </g>
     <g id="text_18">
      <!-- $\mathdefault{10^{4}}$ -->
      <g transform="translate(1378.767386 525.476406)scale(0.23 -0.23)">
       <use xlink:href="#DejaVuSans-31" transform="translate(0 0.684375)"/>
       <use xlink:href="#DejaVuSans-30" transform="translate(63.623047 0.684375)"/>
       <use xlink:href="#DejaVuSans-34" transform="translate(128.203125 38.965625)scale(0.7)"/>
      </g>
     </g>
    </g>
    <g id="xtick_31">
     <g id="line2d_48">
      <g>
       <use xlink:href="#m029c853b00" x="795.155114" y="501" style="stroke: #000000; stroke-width: 0.6"/>
      </g>
     </g>
    </g>
    <g id="xtick_32">
     <g id="line2d_49">
      <g>
       <use xlink:href="#m029c853b00" x="834.552775" y="501" style="stroke: #000000; stroke-width: 0.6"/>
      </g>
     </g>
    </g>
    <g id="xtick_33">
     <g id="line2d_50">
      <g>
       <use xlink:href="#m029c853b00" x="862.505861" y="501" style="stroke: #000000; stroke-width: 0.6"/>
      </g>
     </g>
    </g>
    <g id="xtick_34">
     <g id="line2d_51">
      <g>
       <use xlink:href="#m029c853b00" x="884.187959" y="501" style="stroke: #000000; stroke-width: 0.6"/>
      </g>
     </g>
    </g>
    <g id="xtick_35">
     <g id="line2d_52">
      <g>
       <use xlink:href="#m029c853b00" x="901.903523" y="501" style="stroke: #000000; stroke-width: 0.6"/>
      </g>
     </g>
    </g>
    <g id="xtick_36">
     <g id="line2d_53">
      <g>
       <use xlink:href="#m029c853b00" x="916.881818" y="501" style="stroke: #000000; stroke-width: 0.6"/>
      </g>
     </g>
    </g>
    <g id="xtick_37">
     <g id="line2d_54">
      <g>
       <use xlink:href="#m029c853b00" x="929.856608" y="501" style="stroke: #000000; stroke-width: 0.6"/>
      </g>
     </g>
    </g>
    <g id="xtick_38">
     <g id="line2d_55">
      <g>
       <use xlink:href="#m029c853b00" x="941.301184" y="501" style="stroke: #000000; stroke-width: 0.6"/>
      </g>
     </g>
    </g>
    <g id="xtick_39">
     <g id="line2d_56">
      <g>
       <use xlink:href="#m029c853b00" x="1018.889454" y="501" style="stroke: #000000; stroke-width: 0.6"/>
      </g>
     </g>
    </g>
    <g id="xtick_40">
     <g id="line2d_57">
      <g>
       <use xlink:href="#m029c853b00" x="1058.287115" y="501" style="stroke: #000000; stroke-width: 0.6"/>
      </g>
     </g>
    </g>
    <g id="xtick_41">
     <g id="line2d_58">
      <g>
       <use xlink:href="#m029c853b00" x="1086.240201" y="501" style="stroke: #000000; stroke-width: 0.6"/>
      </g>
     </g>
    </g>
    <g id="xtick_42">
     <g id="line2d_59">
      <g>
       <use xlink:href="#m029c853b00" x="1107.922299" y="501" style="stroke: #000000; stroke-width: 0.6"/>
      </g>
     </g>
    </g>
    <g id="xtick_43">
     <g id="line2d_60">
      <g>
       <use xlink:href="#m029c853b00" x="1125.637863" y="501" style="stroke: #000000; stroke-width: 0.6"/>
      </g>
     </g>
    </g>
    <g id="xtick_44">
     <g id="line2d_61">
      <g>
       <use xlink:href="#m029c853b00" x="1140.616159" y="501" style="stroke: #000000; stroke-width: 0.6"/>
      </g>
     </g>
    </g>
    <g id="xtick_45">
     <g id="line2d_62">
      <g>
       <use xlink:href="#m029c853b00" x="1153.590949" y="501" style="stroke: #000000; stroke-width: 0.6"/>
      </g>
     </g>
    </g>
    <g id="xtick_46">
     <g id="line2d_63">
      <g>
       <use xlink:href="#m029c853b00" x="1165.035524" y="501" style="stroke: #000000; stroke-width: 0.6"/>
      </g>
     </g>
    </g>
    <g id="xtick_47">
     <g id="line2d_64">
      <g>
       <use xlink:href="#m029c853b00" x="1242.623794" y="501" style="stroke: #000000; stroke-width: 0.6"/>
      </g>
     </g>
    </g>
    <g id="xtick_48">
     <g id="line2d_65">
      <g>
       <use xlink:href="#m029c853b00" x="1282.021455" y="501" style="stroke: #000000; stroke-width: 0.6"/>
      </g>
     </g>
    </g>
    <g id="xtick_49">
     <g id="line2d_66">
      <g>
       <use xlink:href="#m029c853b00" x="1309.974541" y="501" style="stroke: #000000; stroke-width: 0.6"/>
      </g>
     </g>
    </g>
    <g id="xtick_50">
     <g id="line2d_67">
      <g>
       <use xlink:href="#m029c853b00" x="1331.656639" y="501" style="stroke: #000000; stroke-width: 0.6"/>
      </g>
     </g>
    </g>
    <g id="xtick_51">
     <g id="line2d_68">
      <g>
       <use xlink:href="#m029c853b00" x="1349.372203" y="501" style="stroke: #000000; stroke-width: 0.6"/>
      </g>
     </g>
    </g>
    <g id="xtick_52">
     <g id="line2d_69">
      <g>
       <use xlink:href="#m029c853b00" x="1364.350499" y="501" style="stroke: #000000; stroke-width: 0.6"/>
      </g>
     </g>
    </g>
    <g id="xtick_53">
     <g id="line2d_70">
      <g>
       <use xlink:href="#m029c853b00" x="1377.325289" y="501" style="stroke: #000000; stroke-width: 0.6"/>
      </g>
     </g>
    </g>
    <g id="xtick_54">
     <g id="line2d_71">
      <g>
       <use xlink:href="#m029c853b00" x="1388.769864" y="501" style="stroke: #000000; stroke-width: 0.6"/>
      </g>
     </g>
    </g>
    <g id="text_19">
     <!-- Frequency (Hz) -->
     <g transform="translate(991.508125 555.535313)scale(0.28 -0.28)">
      <use xlink:href="#DejaVuSans-46"/>
      <use xlink:href="#DejaVuSans-72" x="50.269531"/>
      <use xlink:href="#DejaVuSans-65" x="89.132812"/>
      <use xlink:href="#DejaVuSans-71" x="150.65625"/>
      <use xlink:href="#DejaVuSans-75" x="214.132812"/>
      <use xlink:href="#DejaVuSans-65" x="277.511719"/>
      <use xlink:href="#DejaVuSans-6e" x="339.035156"/>
      <use xlink:href="#DejaVuSans-63" x="402.414062"/>
      <use xlink:href="#DejaVuSans-79" x="457.394531"/>
      <use xlink:href="#DejaVuSans-20" x="516.574219"/>
      <use xlink:href="#DejaVuSans-28" x="548.361328"/>
      <use xlink:href="#DejaVuSans-48" x="587.375"/>
      <use xlink:href="#DejaVuSans-7a" x="662.570312"/>
      <use xlink:href="#DejaVuSans-29" x="715.060547"/>
     </g>
    </g>
   </g>
   <g id="matplotlib.axis_4">
    <g id="ytick_7">
     <g id="line2d_72">
      <g>
       <use xlink:href="#m54424725d0" x="764.9625" y="496.240554" style="stroke: #000000; stroke-width: 0.8"/>
      </g>
     </g>
    </g>
    <g id="ytick_8">
     <g id="line2d_73">
      <g>
       <use xlink:href="#m54424725d0" x="764.9625" y="401.051626" style="stroke: #000000; stroke-width: 0.8"/>
      </g>
     </g>
    </g>
    <g id="ytick_9">
     <g id="line2d_74">
      <g>
       <use xlink:href="#m54424725d0" x="764.9625" y="305.862699" style="stroke: #000000; stroke-width: 0.8"/>
      </g>
     </g>
    </g>
    <g id="ytick_10">
     <g id="line2d_75">
      <g>
       <use xlink:href="#m54424725d0" x="764.9625" y="210.673772" style="stroke: #000000; stroke-width: 0.8"/>
      </g>
     </g>
    </g>
    <g id="ytick_11">
     <g id="line2d_76">
      <g>
       <use xlink:href="#m54424725d0" x="764.9625" y="115.484844" style="stroke: #000000; stroke-width: 0.8"/>
      </g>
     </g>
    </g>
    <g id="ytick_12">
     <g id="line2d_77">
      <g>
       <use xlink:href="#m54424725d0" x="764.9625" y="20.295917" style="stroke: #000000; stroke-width: 0.8"/>
      </g>
     </g>
    </g>
   </g>
   <g id="line2d_78">
    <path d="M 795.155114 496.240554 
L 804.416079 490.576356 
L 812.870677 484.930652 
L 820.648154 479.305012 
L 827.848973 473.700974 
L 834.552775 468.120047 
L 840.823763 462.563708 
L 846.714451 457.0334 
L 852.268339 451.530529 
L 857.521867 446.056465 
L 862.505861 440.61254 
L 867.246635 435.200045 
L 873.950437 427.142958 
L 880.221425 419.163434 
L 886.112113 411.265295 
L 891.666001 403.452138 
L 896.919528 395.72733 
L 903.509619 385.570402 
L 909.681 375.582867 
L 915.483714 365.770767 
L 922.281351 353.760361 
L 928.634371 342.041086 
L 935.747296 328.372073 
L 942.374859 315.14145 
L 949.575678 300.267472 
L 957.200497 284.014172 
L 965.960172 264.812666 
L 977.031747 239.974975 
L 1004.234508 178.687684 
L 1012.359009 161.051873 
L 1019.374076 146.324188 
L 1025.916606 133.105118 
L 1032.04626 121.243469 
L 1037.411384 111.321876 
L 1042.876005 101.693002 
L 1048.049593 93.045469 
L 1052.961586 85.274484 
L 1057.637169 78.286467 
L 1062.098058 71.998189 
L 1066.660708 65.953554 
L 1071.018685 60.547521 
L 1075.189565 55.709916 
L 1079.449604 51.107201 
L 1083.530691 47.016225 
L 1087.686877 43.167058 
L 1091.672555 39.772847 
L 1095.721749 36.618394 
L 1099.608931 33.864839 
L 1103.550058 31.343709 
L 1107.532853 29.068618 
L 1111.358804 27.137453 
L 1115.220236 25.437501 
L 1119.107418 23.97566 
L 1122.845055 22.803258 
L 1126.604702 21.852203 
L 1130.378637 21.125769 
L 1134.159915 20.62569 
L 1137.942326 20.352453 
L 1141.720336 20.305558 
L 1145.489042 20.48373 
L 1149.244114 20.885108 
L 1152.981752 21.507381 
L 1156.698632 22.347904 
L 1160.50505 23.439633 
L 1164.27683 24.754194 
L 1168.117063 26.333371 
L 1171.911914 28.135548 
L 1175.757669 30.210355 
L 1179.642955 32.564154 
L 1183.557455 35.201487 
L 1187.491862 38.125143 
L 1191.437829 41.33622 
L 1195.466872 44.90701 
L 1199.487066 48.767834 
L 1203.565621 52.992058 
L 1207.758468 57.660118 
L 1211.977849 62.692721 
L 1216.276804 68.16662 
L 1220.698475 74.160748 
L 1225.218667 80.667189 
L 1229.870845 87.758088 
L 1234.680182 95.500338 
L 1239.664176 103.952145 
L 1244.833312 113.159454 
L 1250.281607 123.323652 
L 1256.077163 134.61529 
L 1262.303195 147.242319 
L 1269.15765 161.659471 
L 1276.96925 178.624794 
L 1286.638765 200.186031 
L 1322.642164 281.002424 
L 1330.915352 298.708871 
L 1338.39412 314.199517 
L 1345.388798 328.183317 
L 1352.03972 340.988961 
L 1358.44159 352.838179 
L 1364.6554 363.876643 
L 1370.729871 374.218632 
L 1376.691644 383.9339 
L 1382.573702 393.097698 
L 1388.391258 401.752739 
L 1394.166479 409.949139 
L 1399.007386 416.521496 
L 1399.007386 416.521496 
" clip-path="url(#p264ebc0883)" style="fill: none; stroke: #ff5722; stroke-opacity: 0.35; stroke-width: 3; stroke-linecap: square"/>
   </g>
   <g id="line2d_79"/>
   <g id="patch_7">
    <path d="M 764.9625 501 
L 764.9625 15.536471 
" style="fill: none; stroke: #000000; stroke-width: 0.8; stroke-linejoin: miter; stroke-linecap: square"/>
   </g>
   <g id="patch_8">
    <path d="M 764.9625 501 
L 1429.2 501 
" style="fill: none; stroke: #000000; stroke-width: 0.8; stroke-linejoin: miter; stroke-linecap: square"/>
   </g>
   <g id="line2d_80">
    <path d="M 795.155114 496.240554 
L 808.735305 468.634765 
L 820.648154 444.970979 
L 831.258677 424.594408 
L 840.823763 406.850512 
L 849.531071 391.168156 
L 857.521867 377.180661 
L 867.246635 360.5968 
L 876.086052 345.889835 
L 886.112113 329.67084 
L 895.199721 315.376522 
L 905.089598 300.25436 
L 916.881818 282.660463 
L 928.634371 265.556613 
L 941.301184 247.51324 
L 950.562149 234.700372 
L 959.016748 223.407238 
L 966.794225 213.383932 
L 976.281422 201.546935 
L 986.292712 189.401955 
L 996.598159 177.268891 
L 1007.56626 164.689335 
L 1016.926426 154.294223 
L 1025.463614 145.155893 
L 1033.310919 137.076117 
L 1041.73061 128.737269 
L 1050.536625 120.333473 
L 1059.253955 112.335527 
L 1068.718776 103.967267 
L 1076.272212 97.56299 
L 1082.77843 92.336161 
L 1088.402217 88.102179 
L 1093.942906 84.217829 
L 1099.820392 80.378704 
L 1106.945742 76.011204 
L 1118.237523 69.377437 
L 1126.28349 64.901897 
L 1132.815544 61.516135 
L 1138.511385 58.811499 
L 1143.488287 56.688987 
L 1147.965588 55.013105 
L 1152.122408 53.690979 
L 1155.990245 52.695137 
L 1159.481636 52.024571 
L 1162.630829 51.638811 
L 1165.573845 51.495488 
L 1168.326024 51.577712 
L 1170.900806 51.867727 
L 1173.409117 52.371414 
L 1175.854304 53.095445 
L 1178.333664 54.075431 
L 1180.934837 55.349635 
L 1183.824763 57.023547 
L 1187.148517 59.21785 
L 1191.848335 62.618438 
L 1197.652237 66.776713 
L 1200.840802 68.768481 
L 1203.710754 70.300828 
L 1206.28675 71.428643 
L 1208.658486 72.228317 
L 1210.839034 72.734732 
L 1212.905777 72.988292 
L 1214.864847 73.003172 
L 1216.721794 72.794447 
L 1218.481651 72.377954 
L 1220.2102 71.743692 
L 1221.908536 70.886061 
L 1223.695832 69.730453 
L 1225.624615 68.208224 
L 1227.685976 66.289578 
L 1229.981577 63.835732 
L 1232.601958 60.690371 
L 1235.833197 56.438996 
L 1245.401539 43.600716 
L 1248.468745 40.049156 
L 1251.442086 36.938935 
L 1254.413238 34.15113 
L 1257.337993 31.707264 
L 1260.298863 29.518223 
L 1263.368586 27.523552 
L 1266.610346 25.682261 
L 1269.784176 24.132793 
L 1272.857608 22.877959 
L 1275.871311 21.886983 
L 1278.827822 21.147744 
L 1281.761998 20.642349 
L 1284.704727 20.361409 
L 1287.683246 20.301919 
L 1290.602828 20.462936 
L 1293.466031 20.843639 
L 1296.247274 21.437047 
L 1298.978325 22.245899 
L 1301.687631 23.281075 
L 1304.374917 24.54789 
L 1307.039964 26.051044 
L 1309.706965 27.811851 
L 1312.397534 29.858292 
L 1315.107815 32.201538 
L 1317.878999 34.896053 
L 1320.703936 37.958721 
L 1323.59697 41.429416 
L 1326.57031 45.350416 
L 1329.634103 49.764632 
L 1332.815697 54.744436 
L 1336.175064 60.42289 
L 1339.816051 67.02515 
L 1343.875455 74.861473 
L 1348.803738 84.885898 
L 1365.49584 119.266766 
L 1369.894361 127.62226 
L 1373.548348 134.102743 
L 1376.703869 139.261042 
L 1379.499182 143.41694 
L 1382.100759 146.896886 
L 1384.544324 149.802299 
L 1386.828867 152.181652 
L 1388.974778 154.104293 
L 1391.000488 155.628367 
L 1392.922779 156.802083 
L 1394.746884 157.660731 
L 1396.4975 158.242707 
L 1398.18774 158.572116 
L 1399.007386 158.647473 
L 1399.007386 158.647473 
" clip-path="url(#p264ebc0883)" style="fill: none; stroke: #00adb5; stroke-opacity: 0.35; stroke-width: 3; stroke-linecap: square"/>
   </g>
   <g id="line2d_81">
    <path d="M 795.155114 496.240554 
L 1399.007386 20.295917 
L 1399.007386 20.295917 
" clip-path="url(#p264ebc0883)" style="fill: none; stroke: #303841; stroke-opacity: 0.35; stroke-width: 3; stroke-linecap: square"/>
   </g>
   <g id="line2d_82">
    <path d="M 960.799671 276.185508 
L 1028.150419 128.720515 
L 1095.501166 36.782677 
L 1162.851914 24.230183 
L 1230.202661 88.278933 
L 1297.553408 224.903607 
" clip-path="url(#p264ebc0883)" style="fill: none; stroke: #ff5722; stroke-width: 4; stroke-linecap: square"/>
    <defs>
     <path id="mfa06f17654" d="M 0 5 
C 1.326016 5 2.597899 4.473168 3.535534 3.535534 
C 4.473168 2.597899 5 1.326016 5 0 
C 5 -1.326016 4.473168 -2.597899 3.535534 -3.535534 
C 2.597899 -4.473168 1.326016 -5 0 -5 
C -1.326016 -5 -2.597899 -4.473168 -3.535534 -3.535534 
C -4.473168 -2.597899 -5 -1.326016 -5 0 
C -5 1.326016 -4.473168 2.597899 -3.535534 3.535534 
C -2.597899 4.473168 -1.326016 5 0 5 
z
" style="stroke: #ff5722"/>
    </defs>
    <g clip-path="url(#p264ebc0883)">
     <use xlink:href="#mfa06f17654" x="960.799671" y="276.185508" style="fill: #ffffff; stroke: #ff5722"/>
     <use xlink:href="#mfa06f17654" x="1028.150419" y="128.720515" style="fill: #ffffff; stroke: #ff5722"/>
     <use xlink:href="#mfa06f17654" x="1095.501166" y="36.782677" style="fill: #ffffff; stroke: #ff5722"/>
     <use xlink:href="#mfa06f17654" x="1162.851914" y="24.230183" style="fill: #ffffff; stroke: #ff5722"/>
     <use xlink:href="#mfa06f17654" x="1230.202661" y="88.278933" style="fill: #ffffff; stroke: #ff5722"/>
     <use xlink:href="#mfa06f17654" x="1297.553408" y="224.903607" style="fill: #ffffff; stroke: #ff5722"/>
    </g>
   </g>
   <g id="legend_2">
    <g id="patch_9">
     <path d="M 776.1625 122.276471 
L 986.3175 122.276471 
Q 989.5175 122.276471 989.5175 119.076471 
L 989.5175 26.736471 
Q 989.5175 23.536471 986.3175 23.536471 
L 776.1625 23.536471 
Q 772.9625 23.536471 772.9625 26.736471 
L 772.9625 119.076471 
Q 772.9625 122.276471 776.1625 122.276471 
z
" style="fill: #ffffff; opacity: 0.8; stroke: #cccccc; stroke-linejoin: miter"/>
    </g>
    <g id="line2d_83">
     <path d="M 779.3625 36.493971 
L 795.3625 36.493971 
L 811.3625 36.493971 
" style="fill: none; stroke: #303841; stroke-opacity: 0.35; stroke-width: 3; stroke-linecap: square"/>
    </g>
    <g id="text_20">
     <!-- Pitch Height -->
     <g transform="translate(824.1625 42.093971)scale(0.16 -0.16)">
      <use xlink:href="#DejaVuSans-50"/>
      <use xlink:href="#DejaVuSans-69" x="58.052734"/>
      <use xlink:href="#DejaVuSans-74" x="85.835938"/>
      <use xlink:href="#DejaVuSans-63" x="125.044922"/>
      <use xlink:href="#DejaVuSans-68" x="180.025391"/>
      <use xlink:href="#DejaVuSans-20" x="243.404297"/>
      <use xlink:href="#DejaVuSans-48" x="275.191406"/>
      <use xlink:href="#DejaVuSans-65" x="350.386719"/>
      <use xlink:href="#DejaVuSans-69" x="411.910156"/>
      <use xlink:href="#DejaVuSans-67" x="439.693359"/>
      <use xlink:href="#DejaVuSans-68" x="503.169922"/>
      <use xlink:href="#DejaVuSans-74" x="566.548828"/>
     </g>
    </g>
    <g id="line2d_84">
     <path d="M 779.3625 59.978971 
L 795.3625 59.978971 
L 811.3625 59.978971 
" style="fill: none; stroke: #00adb5; stroke-opacity: 0.35; stroke-width: 3; stroke-linecap: square"/>
    </g>
    <g id="text_21">
     <!-- Cochlear Sensitivity -->
     <g transform="translate(824.1625 65.578971)scale(0.16 -0.16)">
      <use xlink:href="#DejaVuSans-43"/>
      <use xlink:href="#DejaVuSans-6f" x="69.824219"/>
      <use xlink:href="#DejaVuSans-63" x="131.005859"/>
      <use xlink:href="#DejaVuSans-68" x="185.986328"/>
      <use xlink:href="#DejaVuSans-6c" x="249.365234"/>
      <use xlink:href="#DejaVuSans-65" x="277.148438"/>
      <use xlink:href="#DejaVuSans-61" x="338.671875"/>
      <use xlink:href="#DejaVuSans-72" x="399.951172"/>
      <use xlink:href="#DejaVuSans-20" x="441.064453"/>
      <use xlink:href="#DejaVuSans-53" x="472.851562"/>
      <use xlink:href="#DejaVuSans-65" x="536.328125"/>
      <use xlink:href="#DejaVuSans-6e" x="597.851562"/>
      <use xlink:href="#DejaVuSans-73" x="661.230469"/>
      <use xlink:href="#DejaVuSans-69" x="713.330078"/>
      <use xlink:href="#DejaVuSans-74" x="741.113281"/>
      <use xlink:href="#DejaVuSans-69" x="780.322266"/>
      <use xlink:href="#DejaVuSans-76" x="808.105469"/>
      <use xlink:href="#DejaVuSans-69" x="867.285156"/>
      <use xlink:href="#DejaVuSans-74" x="895.068359"/>
      <use xlink:href="#DejaVuSans-79" x="934.277344"/>
     </g>
    </g>
    <g id="line2d_85">
     <path d="M 779.3625 83.463971 
L 795.3625 83.463971 
L 811.3625 83.463971 
" style="fill: none; stroke: #ff5722; stroke-opacity: 0.35; stroke-width: 3; stroke-linecap: square"/>
    </g>
    <g id="text_22">
     <!-- Pitch Salience -->
     <g transform="translate(824.1625 89.063971)scale(0.16 -0.16)">
      <use xlink:href="#DejaVuSans-50"/>
      <use xlink:href="#DejaVuSans-69" x="58.052734"/>
      <use xlink:href="#DejaVuSans-74" x="85.835938"/>
      <use xlink:href="#DejaVuSans-63" x="125.044922"/>
      <use xlink:href="#DejaVuSans-68" x="180.025391"/>
      <use xlink:href="#DejaVuSans-20" x="243.404297"/>
      <use xlink:href="#DejaVuSans-53" x="275.191406"/>
      <use xlink:href="#DejaVuSans-61" x="338.667969"/>
      <use xlink:href="#DejaVuSans-6c" x="399.947266"/>
      <use xlink:href="#DejaVuSans-69" x="427.730469"/>
      <use xlink:href="#DejaVuSans-65" x="455.513672"/>
      <use xlink:href="#DejaVuSans-6e" x="517.037109"/>
      <use xlink:href="#DejaVuSans-63" x="580.416016"/>
      <use xlink:href="#DejaVuSans-65" x="635.396484"/>
     </g>
    </g>
    <g id="line2d_86">
     <path d="M 779.3625 106.948971 
L 795.3625 106.948971 
L 811.3625 106.948971 
" style="fill: none; stroke: #000000; stroke-width: 4; stroke-linecap: square"/>
     <defs>
      <path id="m2b3dcabc1f" d="M 0 4.5 
C 1.193414 4.5 2.338109 4.025852 3.181981 3.181981 
C 4.025852 2.338109 4.5 1.193414 4.5 0 
C 4.5 -1.193414 4.025852 -2.338109 3.181981 -3.181981 
C 2.338109 -4.025852 1.193414 -4.5 0 -4.5 
C -1.193414 -4.5 -2.338109 -4.025852 -3.181981 -3.181981 
C -4.025852 -2.338109 -4.5 -1.193414 -4.5 0 
C -4.5 1.193414 -4.025852 2.338109 -3.181981 3.181981 
C -2.338109 4.025852 -1.193414 4.5 0 4.5 
z
" style="stroke: #000000"/>
     </defs>
     <g>
      <use xlink:href="#m2b3dcabc1f" x="795.3625" y="106.948971" style="fill: #ffffff; stroke: #000000"/>
     </g>
    </g>
    <g id="text_23">
     <!-- Current Stimuli -->
     <g transform="translate(824.1625 112.548971)scale(0.16 -0.16)">
      <use xlink:href="#DejaVuSans-43"/>
      <use xlink:href="#DejaVuSans-75" x="69.824219"/>
      <use xlink:href="#DejaVuSans-72" x="133.203125"/>
      <use xlink:href="#DejaVuSans-72" x="172.566406"/>
      <use xlink:href="#DejaVuSans-65" x="211.429688"/>
      <use xlink:href="#DejaVuSans-6e" x="272.953125"/>
      <use xlink:href="#DejaVuSans-74" x="336.332031"/>
      <use xlink:href="#DejaVuSans-20" x="375.541016"/>
      <use xlink:href="#DejaVuSans-53" x="407.328125"/>
      <use xlink:href="#DejaVuSans-74" x="470.804688"/>
      <use xlink:href="#DejaVuSans-69" x="510.013672"/>
      <use xlink:href="#DejaVuSans-6d" x="537.796875"/>
      <use xlink:href="#DejaVuSans-75" x="635.208984"/>
      <use xlink:href="#DejaVuSans-6c" x="698.587891"/>
      <use xlink:href="#DejaVuSans-69" x="726.371094"/>
     </g>
    </g>
   </g>
   <g id="line2d_87">
    <path d="M 960.799671 221.079272 
L 1028.150419 142.354291 
L 1095.501166 83.173822 
L 1162.851914 51.620387 
L 1230.202661 63.583497 
L 1297.553408 21.795213 
" clip-path="url(#p264ebc0883)" style="fill: none; stroke: #00adb5; stroke-width: 4; stroke-linecap: square"/>
    <defs>
     <path id="m6953d3649c" d="M 0 5 
C 1.326016 5 2.597899 4.473168 3.535534 3.535534 
C 4.473168 2.597899 5 1.326016 5 0 
C 5 -1.326016 4.473168 -2.597899 3.535534 -3.535534 
C 2.597899 -4.473168 1.326016 -5 0 -5 
C -1.326016 -5 -2.597899 -4.473168 -3.535534 -3.535534 
C -4.473168 -2.597899 -5 -1.326016 -5 0 
C -5 1.326016 -4.473168 2.597899 -3.535534 3.535534 
C -2.597899 4.473168 -1.326016 5 0 5 
z
" style="stroke: #00adb5"/>
    </defs>
    <g clip-path="url(#p264ebc0883)">
     <use xlink:href="#m6953d3649c" x="960.799671" y="221.079272" style="fill: #ffffff; stroke: #00adb5"/>
     <use xlink:href="#m6953d3649c" x="1028.150419" y="142.354291" style="fill: #ffffff; stroke: #00adb5"/>
     <use xlink:href="#m6953d3649c" x="1095.501166" y="83.173822" style="fill: #ffffff; stroke: #00adb5"/>
     <use xlink:href="#m6953d3649c" x="1162.851914" y="51.620387" style="fill: #ffffff; stroke: #00adb5"/>
     <use xlink:href="#m6953d3649c" x="1230.202661" y="63.583497" style="fill: #ffffff; stroke: #00adb5"/>
     <use xlink:href="#m6953d3649c" x="1297.553408" y="21.795213" style="fill: #ffffff; stroke: #00adb5"/>
    </g>
   </g>
   <g id="line2d_88">
    <path d="M 960.799671 365.682729 
L 1028.150419 312.598178 
L 1095.501166 259.513627 
L 1162.851914 206.429075 
L 1230.202661 153.344524 
L 1297.553408 100.259972 
" clip-path="url(#p264ebc0883)" style="fill: none; stroke: #303841; stroke-width: 4; stroke-linecap: square"/>
    <defs>
     <path id="ma1fb22f8f3" d="M 0 5 
C 1.326016 5 2.597899 4.473168 3.535534 3.535534 
C 4.473168 2.597899 5 1.326016 5 0 
C 5 -1.326016 4.473168 -2.597899 3.535534 -3.535534 
C 2.597899 -4.473168 1.326016 -5 0 -5 
C -1.326016 -5 -2.597899 -4.473168 -3.535534 -3.535534 
C -4.473168 -2.597899 -5 -1.326016 -5 0 
C -5 1.326016 -4.473168 2.597899 -3.535534 3.535534 
C -2.597899 4.473168 -1.326016 5 0 5 
z
" style="stroke: #303841"/>
    </defs>
    <g clip-path="url(#p264ebc0883)">
     <use xlink:href="#ma1fb22f8f3" x="960.799671" y="365.682729" style="fill: #ffffff; stroke: #303841"/>
     <use xlink:href="#ma1fb22f8f3" x="1028.150419" y="312.598178" style="fill: #ffffff; stroke: #303841"/>
     <use xlink:href="#ma1fb22f8f3" x="1095.501166" y="259.513627" style="fill: #ffffff; stroke: #303841"/>
     <use xlink:href="#ma1fb22f8f3" x="1162.851914" y="206.429075" style="fill: #ffffff; stroke: #303841"/>
     <use xlink:href="#ma1fb22f8f3" x="1230.202661" y="153.344524" style="fill: #ffffff; stroke: #303841"/>
     <use xlink:href="#ma1fb22f8f3" x="1297.553408" y="100.259972" style="fill: #ffffff; stroke: #303841"/>
    </g>
   </g>
  </g>
 </g>
 <defs>
  <clipPath id="p46b08d0c8c">
   <rect x="86.425" y="15.536471" width="664.2375" height="485.463529"/>
  </clipPath>
  <clipPath id="p264ebc0883">
   <rect x="764.9625" y="15.536471" width="664.2375" height="485.463529"/>
  </clipPath>
 </defs>
</svg>
