<?xml version="1.0" encoding="utf-8" standalone="no"?>
<!DOCTYPE svg PUBLIC "-//W3C//DTD SVG 1.1//EN"
  "http://www.w3.org/Graphics/SVG/1.1/DTD/svg11.dtd">
<svg xmlns:xlink="http://www.w3.org/1999/xlink" width="1440pt" height="576pt" viewBox="0 0 1440 576" xmlns="http://www.w3.org/2000/svg" version="1.1">
 <metadata>
  <rdf:RDF xmlns:dc="http://purl.org/dc/elements/1.1/" xmlns:cc="http://creativecommons.org/ns#" xmlns:rdf="http://www.w3.org/1999/02/22-rdf-syntax-ns#">
   <cc:Work>
    <dc:type rdf:resource="http://purl.org/dc/dcmitype/StillImage"/>
    <dc:date>2022-12-19T20:23:57.650326</dc:date>
    <dc:format>image/svg+xml</dc:format>
    <dc:creator>
     <cc:Agent>
      <dc:title>Matplotlib v3.5.1, https://matplotlib.org/</dc:title>
     </cc:Agent>
    </dc:creator>
   </cc:Work>
  </rdf:RDF>
 </metadata>
 <defs>
  <style type="text/css">*{stroke-linejoin: round; stroke-linecap: butt}</style>
 </defs>
 <g id="figure_1">
  <g id="patch_1">
   <path d="M 0 576 
L 1440 576 
L 1440 0 
L 0 0 
L 0 576 
z
" style="fill: none"/>
  </g>
  <g id="axes_1">
   <g id="patch_2">
    <path d="M 90.612575 501 
L 732.038386 501 
L 732.038386 54.590588 
L 90.612575 54.590588 
z
" style="fill: #ffffff"/>
   </g>
   <g id="matplotlib.axis_1">
    <g id="xtick_1">
     <g id="line2d_1">
      <defs>
       <path id="m7cabdf3c88" d="M 0 0 
L 0 3.5 
" style="stroke: #000000; stroke-width: 0.8"/>
      </defs>
      <g>
       <use xlink:href="#m7cabdf3c88" x="270.781256" y="501" style="stroke: #000000; stroke-width: 0.8"/>
      </g>
     </g>
     <g id="text_1">
      <!-- $\mathdefault{10^{2}}$ -->
      <g transform="translate(250.541256 525.476406)scale(0.23 -0.23)">
       <defs>
        <path id="DejaVuSans-31" d="M 794 531 
L 1825 531 
L 1825 4091 
L 703 3866 
L 703 4441 
L 1819 4666 
L 2450 4666 
L 2450 531 
L 3481 531 
L 3481 0 
L 794 0 
L 794 531 
z
" transform="scale(0.015625)"/>
        <path id="DejaVuSans-30" d="M 2034 4250 
Q 1547 4250 1301 3770 
Q 1056 3291 1056 2328 
Q 1056 1369 1301 889 
Q 1547 409 2034 409 
Q 2525 409 2770 889 
Q 3016 1369 3016 2328 
Q 3016 3291 2770 3770 
Q 2525 4250 2034 4250 
z
M 2034 4750 
Q 2819 4750 3233 4129 
Q 3647 3509 3647 2328 
Q 3647 1150 3233 529 
Q 2819 -91 2034 -91 
Q 1250 -91 836 529 
Q 422 1150 422 2328 
Q 422 3509 836 4129 
Q 1250 4750 2034 4750 
z
" transform="scale(0.015625)"/>
        <path id="DejaVuSans-32" d="M 1228 531 
L 3431 531 
L 3431 0 
L 469 0 
L 469 531 
Q 828 903 1448 1529 
Q 2069 2156 2228 2338 
Q 2531 2678 2651 2914 
Q 2772 3150 2772 3378 
Q 2772 3750 2511 3984 
Q 2250 4219 1831 4219 
Q 1534 4219 1204 4116 
Q 875 4013 500 3803 
L 500 4441 
Q 881 4594 1212 4672 
Q 1544 4750 1819 4750 
Q 2544 4750 2975 4387 
Q 3406 4025 3406 3419 
Q 3406 3131 3298 2873 
Q 3191 2616 2906 2266 
Q 2828 2175 2409 1742 
Q 1991 1309 1228 531 
z
" transform="scale(0.015625)"/>
       </defs>
       <use xlink:href="#DejaVuSans-31" transform="translate(0 0.765625)"/>
       <use xlink:href="#DejaVuSans-30" transform="translate(63.623047 0.765625)"/>
       <use xlink:href="#DejaVuSans-32" transform="translate(128.203125 39.046875)scale(0.7)"/>
      </g>
     </g>
    </g>
    <g id="xtick_2">
     <g id="line2d_2">
      <g>
       <use xlink:href="#m7cabdf3c88" x="486.831962" y="501" style="stroke: #000000; stroke-width: 0.8"/>
      </g>
     </g>
     <g id="text_2">
      <!-- $\mathdefault{10^{3}}$ -->
      <g transform="translate(466.591962 525.476406)scale(0.23 -0.23)">
       <defs>
        <path id="DejaVuSans-33" d="M 2597 2516 
Q 3050 2419 3304 2112 
Q 3559 1806 3559 1356 
Q 3559 666 3084 287 
Q 2609 -91 1734 -91 
Q 1441 -91 1130 -33 
Q 819 25 488 141 
L 488 750 
Q 750 597 1062 519 
Q 1375 441 1716 441 
Q 2309 441 2620 675 
Q 2931 909 2931 1356 
Q 2931 1769 2642 2001 
Q 2353 2234 1838 2234 
L 1294 2234 
L 1294 2753 
L 1863 2753 
Q 2328 2753 2575 2939 
Q 2822 3125 2822 3475 
Q 2822 3834 2567 4026 
Q 2313 4219 1838 4219 
Q 1578 4219 1281 4162 
Q 984 4106 628 3988 
L 628 4550 
Q 988 4650 1302 4700 
Q 1616 4750 1894 4750 
Q 2613 4750 3031 4423 
Q 3450 4097 3450 3541 
Q 3450 3153 3228 2886 
Q 3006 2619 2597 2516 
z
" transform="scale(0.015625)"/>
       </defs>
       <use xlink:href="#DejaVuSans-31" transform="translate(0 0.765625)"/>
       <use xlink:href="#DejaVuSans-30" transform="translate(63.623047 0.765625)"/>
       <use xlink:href="#DejaVuSans-33" transform="translate(128.203125 39.046875)scale(0.7)"/>
      </g>
     </g>
    </g>
    <g id="xtick_3">
     <g id="line2d_3">
      <g>
       <use xlink:href="#m7cabdf3c88" x="702.882668" y="501" style="stroke: #000000; stroke-width: 0.8"/>
      </g>
     </g>
     <g id="text_3">
      <!-- $\mathdefault{10^{4}}$ -->
      <g transform="translate(682.642668 525.476406)scale(0.23 -0.23)">
       <defs>
        <path id="DejaVuSans-34" d="M 2419 4116 
L 825 1625 
L 2419 1625 
L 2419 4116 
z
M 2253 4666 
L 3047 4666 
L 3047 1625 
L 3713 1625 
L 3713 1100 
L 3047 1100 
L 3047 0 
L 2419 0 
L 2419 1100 
L 313 1100 
L 313 1709 
L 2253 4666 
z
" transform="scale(0.015625)"/>
       </defs>
       <use xlink:href="#DejaVuSans-31" transform="translate(0 0.684375)"/>
       <use xlink:href="#DejaVuSans-30" transform="translate(63.623047 0.684375)"/>
       <use xlink:href="#DejaVuSans-34" transform="translate(128.203125 38.965625)scale(0.7)"/>
      </g>
     </g>
    </g>
    <g id="xtick_4">
     <g id="line2d_4">
      <defs>
       <path id="m4e5c8be9ab" d="M 0 0 
L 0 2 
" style="stroke: #000000; stroke-width: 0.6"/>
      </defs>
      <g>
       <use xlink:href="#m4e5c8be9ab" x="119.768294" y="501" style="stroke: #000000; stroke-width: 0.6"/>
      </g>
     </g>
    </g>
    <g id="xtick_5">
     <g id="line2d_5">
      <g>
       <use xlink:href="#m4e5c8be9ab" x="157.812934" y="501" style="stroke: #000000; stroke-width: 0.6"/>
      </g>
     </g>
    </g>
    <g id="xtick_6">
     <g id="line2d_6">
      <g>
       <use xlink:href="#m4e5c8be9ab" x="184.806037" y="501" style="stroke: #000000; stroke-width: 0.6"/>
      </g>
     </g>
    </g>
    <g id="xtick_7">
     <g id="line2d_7">
      <g>
       <use xlink:href="#m4e5c8be9ab" x="205.743513" y="501" style="stroke: #000000; stroke-width: 0.6"/>
      </g>
     </g>
    </g>
    <g id="xtick_8">
     <g id="line2d_8">
      <g>
       <use xlink:href="#m4e5c8be9ab" x="222.850677" y="501" style="stroke: #000000; stroke-width: 0.6"/>
      </g>
     </g>
    </g>
    <g id="xtick_9">
     <g id="line2d_9">
      <g>
       <use xlink:href="#m4e5c8be9ab" x="237.314579" y="501" style="stroke: #000000; stroke-width: 0.6"/>
      </g>
     </g>
    </g>
    <g id="xtick_10">
     <g id="line2d_10">
      <g>
       <use xlink:href="#m4e5c8be9ab" x="249.84378" y="501" style="stroke: #000000; stroke-width: 0.6"/>
      </g>
     </g>
    </g>
    <g id="xtick_11">
     <g id="line2d_11">
      <g>
       <use xlink:href="#m4e5c8be9ab" x="260.895318" y="501" style="stroke: #000000; stroke-width: 0.6"/>
      </g>
     </g>
    </g>
    <g id="xtick_12">
     <g id="line2d_12">
      <g>
       <use xlink:href="#m4e5c8be9ab" x="335.818999" y="501" style="stroke: #000000; stroke-width: 0.6"/>
      </g>
     </g>
    </g>
    <g id="xtick_13">
     <g id="line2d_13">
      <g>
       <use xlink:href="#m4e5c8be9ab" x="373.86364" y="501" style="stroke: #000000; stroke-width: 0.6"/>
      </g>
     </g>
    </g>
    <g id="xtick_14">
     <g id="line2d_14">
      <g>
       <use xlink:href="#m4e5c8be9ab" x="400.856742" y="501" style="stroke: #000000; stroke-width: 0.6"/>
      </g>
     </g>
    </g>
    <g id="xtick_15">
     <g id="line2d_15">
      <g>
       <use xlink:href="#m4e5c8be9ab" x="421.794219" y="501" style="stroke: #000000; stroke-width: 0.6"/>
      </g>
     </g>
    </g>
    <g id="xtick_16">
     <g id="line2d_16">
      <g>
       <use xlink:href="#m4e5c8be9ab" x="438.901383" y="501" style="stroke: #000000; stroke-width: 0.6"/>
      </g>
     </g>
    </g>
    <g id="xtick_17">
     <g id="line2d_17">
      <g>
       <use xlink:href="#m4e5c8be9ab" x="453.365284" y="501" style="stroke: #000000; stroke-width: 0.6"/>
      </g>
     </g>
    </g>
    <g id="xtick_18">
     <g id="line2d_18">
      <g>
       <use xlink:href="#m4e5c8be9ab" x="465.894485" y="501" style="stroke: #000000; stroke-width: 0.6"/>
      </g>
     </g>
    </g>
    <g id="xtick_19">
     <g id="line2d_19">
      <g>
       <use xlink:href="#m4e5c8be9ab" x="476.946024" y="501" style="stroke: #000000; stroke-width: 0.6"/>
      </g>
     </g>
    </g>
    <g id="xtick_20">
     <g id="line2d_20">
      <g>
       <use xlink:href="#m4e5c8be9ab" x="551.869705" y="501" style="stroke: #000000; stroke-width: 0.6"/>
      </g>
     </g>
    </g>
    <g id="xtick_21">
     <g id="line2d_21">
      <g>
       <use xlink:href="#m4e5c8be9ab" x="589.914346" y="501" style="stroke: #000000; stroke-width: 0.6"/>
      </g>
     </g>
    </g>
    <g id="xtick_22">
     <g id="line2d_22">
      <g>
       <use xlink:href="#m4e5c8be9ab" x="616.907448" y="501" style="stroke: #000000; stroke-width: 0.6"/>
      </g>
     </g>
    </g>
    <g id="xtick_23">
     <g id="line2d_23">
      <g>
       <use xlink:href="#m4e5c8be9ab" x="637.844925" y="501" style="stroke: #000000; stroke-width: 0.6"/>
      </g>
     </g>
    </g>
    <g id="xtick_24">
     <g id="line2d_24">
      <g>
       <use xlink:href="#m4e5c8be9ab" x="654.952089" y="501" style="stroke: #000000; stroke-width: 0.6"/>
      </g>
     </g>
    </g>
    <g id="xtick_25">
     <g id="line2d_25">
      <g>
       <use xlink:href="#m4e5c8be9ab" x="669.41599" y="501" style="stroke: #000000; stroke-width: 0.6"/>
      </g>
     </g>
    </g>
    <g id="xtick_26">
     <g id="line2d_26">
      <g>
       <use xlink:href="#m4e5c8be9ab" x="681.945191" y="501" style="stroke: #000000; stroke-width: 0.6"/>
      </g>
     </g>
    </g>
    <g id="xtick_27">
     <g id="line2d_27">
      <g>
       <use xlink:href="#m4e5c8be9ab" x="692.99673" y="501" style="stroke: #000000; stroke-width: 0.6"/>
      </g>
     </g>
    </g>
    <g id="text_4">
     <!-- Frequency (Hz) -->
     <g transform="translate(305.752356 555.535313)scale(0.28 -0.28)">
      <defs>
       <path id="DejaVuSans-46" d="M 628 4666 
L 3309 4666 
L 3309 4134 
L 1259 4134 
L 1259 2759 
L 3109 2759 
L 3109 2228 
L 1259 2228 
L 1259 0 
L 628 0 
L 628 4666 
z
" transform="scale(0.015625)"/>
       <path id="DejaVuSans-72" d="M 2631 2963 
Q 2534 3019 2420 3045 
Q 2306 3072 2169 3072 
Q 1681 3072 1420 2755 
Q 1159 2438 1159 1844 
L 1159 0 
L 581 0 
L 581 3500 
L 1159 3500 
L 1159 2956 
Q 1341 3275 1631 3429 
Q 1922 3584 2338 3584 
Q 2397 3584 2469 3576 
Q 2541 3569 2628 3553 
L 2631 2963 
z
" transform="scale(0.015625)"/>
       <path id="DejaVuSans-65" d="M 3597 1894 
L 3597 1613 
L 953 1613 
Q 991 1019 1311 708 
Q 1631 397 2203 397 
Q 2534 397 2845 478 
Q 3156 559 3463 722 
L 3463 178 
Q 3153 47 2828 -22 
Q 2503 -91 2169 -91 
Q 1331 -91 842 396 
Q 353 884 353 1716 
Q 353 2575 817 3079 
Q 1281 3584 2069 3584 
Q 2775 3584 3186 3129 
Q 3597 2675 3597 1894 
z
M 3022 2063 
Q 3016 2534 2758 2815 
Q 2500 3097 2075 3097 
Q 1594 3097 1305 2825 
Q 1016 2553 972 2059 
L 3022 2063 
z
" transform="scale(0.015625)"/>
       <path id="DejaVuSans-71" d="M 947 1747 
Q 947 1113 1208 752 
Q 1469 391 1925 391 
Q 2381 391 2643 752 
Q 2906 1113 2906 1747 
Q 2906 2381 2643 2742 
Q 2381 3103 1925 3103 
Q 1469 3103 1208 2742 
Q 947 2381 947 1747 
z
M 2906 525 
Q 2725 213 2448 61 
Q 2172 -91 1784 -91 
Q 1150 -91 751 415 
Q 353 922 353 1747 
Q 353 2572 751 3078 
Q 1150 3584 1784 3584 
Q 2172 3584 2448 3432 
Q 2725 3281 2906 2969 
L 2906 3500 
L 3481 3500 
L 3481 -1331 
L 2906 -1331 
L 2906 525 
z
" transform="scale(0.015625)"/>
       <path id="DejaVuSans-75" d="M 544 1381 
L 544 3500 
L 1119 3500 
L 1119 1403 
Q 1119 906 1312 657 
Q 1506 409 1894 409 
Q 2359 409 2629 706 
Q 2900 1003 2900 1516 
L 2900 3500 
L 3475 3500 
L 3475 0 
L 2900 0 
L 2900 538 
Q 2691 219 2414 64 
Q 2138 -91 1772 -91 
Q 1169 -91 856 284 
Q 544 659 544 1381 
z
M 1991 3584 
L 1991 3584 
z
" transform="scale(0.015625)"/>
       <path id="DejaVuSans-6e" d="M 3513 2113 
L 3513 0 
L 2938 0 
L 2938 2094 
Q 2938 2591 2744 2837 
Q 2550 3084 2163 3084 
Q 1697 3084 1428 2787 
Q 1159 2491 1159 1978 
L 1159 0 
L 581 0 
L 581 3500 
L 1159 3500 
L 1159 2956 
Q 1366 3272 1645 3428 
Q 1925 3584 2291 3584 
Q 2894 3584 3203 3211 
Q 3513 2838 3513 2113 
z
" transform="scale(0.015625)"/>
       <path id="DejaVuSans-63" d="M 3122 3366 
L 3122 2828 
Q 2878 2963 2633 3030 
Q 2388 3097 2138 3097 
Q 1578 3097 1268 2742 
Q 959 2388 959 1747 
Q 959 1106 1268 751 
Q 1578 397 2138 397 
Q 2388 397 2633 464 
Q 2878 531 3122 666 
L 3122 134 
Q 2881 22 2623 -34 
Q 2366 -91 2075 -91 
Q 1284 -91 818 406 
Q 353 903 353 1747 
Q 353 2603 823 3093 
Q 1294 3584 2113 3584 
Q 2378 3584 2631 3529 
Q 2884 3475 3122 3366 
z
" transform="scale(0.015625)"/>
       <path id="DejaVuSans-79" d="M 2059 -325 
Q 1816 -950 1584 -1140 
Q 1353 -1331 966 -1331 
L 506 -1331 
L 506 -850 
L 844 -850 
Q 1081 -850 1212 -737 
Q 1344 -625 1503 -206 
L 1606 56 
L 191 3500 
L 800 3500 
L 1894 763 
L 2988 3500 
L 3597 3500 
L 2059 -325 
z
" transform="scale(0.015625)"/>
       <path id="DejaVuSans-20" transform="scale(0.015625)"/>
       <path id="DejaVuSans-28" d="M 1984 4856 
Q 1566 4138 1362 3434 
Q 1159 2731 1159 2009 
Q 1159 1288 1364 580 
Q 1569 -128 1984 -844 
L 1484 -844 
Q 1016 -109 783 600 
Q 550 1309 550 2009 
Q 550 2706 781 3412 
Q 1013 4119 1484 4856 
L 1984 4856 
z
" transform="scale(0.015625)"/>
       <path id="DejaVuSans-48" d="M 628 4666 
L 1259 4666 
L 1259 2753 
L 3553 2753 
L 3553 4666 
L 4184 4666 
L 4184 0 
L 3553 0 
L 3553 2222 
L 1259 2222 
L 1259 0 
L 628 0 
L 628 4666 
z
" transform="scale(0.015625)"/>
       <path id="DejaVuSans-7a" d="M 353 3500 
L 3084 3500 
L 3084 2975 
L 922 459 
L 3084 459 
L 3084 0 
L 275 0 
L 275 525 
L 2438 3041 
L 353 3041 
L 353 3500 
z
" transform="scale(0.015625)"/>
       <path id="DejaVuSans-29" d="M 513 4856 
L 1013 4856 
Q 1481 4119 1714 3412 
Q 1947 2706 1947 2009 
Q 1947 1309 1714 600 
Q 1481 -109 1013 -844 
L 513 -844 
Q 928 -128 1133 580 
Q 1338 1288 1338 2009 
Q 1338 2731 1133 3434 
Q 928 4138 513 4856 
z
" transform="scale(0.015625)"/>
      </defs>
      <use xlink:href="#DejaVuSans-46"/>
      <use xlink:href="#DejaVuSans-72" x="50.269531"/>
      <use xlink:href="#DejaVuSans-65" x="89.132812"/>
      <use xlink:href="#DejaVuSans-71" x="150.65625"/>
      <use xlink:href="#DejaVuSans-75" x="214.132812"/>
      <use xlink:href="#DejaVuSans-65" x="277.511719"/>
      <use xlink:href="#DejaVuSans-6e" x="339.035156"/>
      <use xlink:href="#DejaVuSans-63" x="402.414062"/>
      <use xlink:href="#DejaVuSans-79" x="457.394531"/>
      <use xlink:href="#DejaVuSans-20" x="516.574219"/>
      <use xlink:href="#DejaVuSans-28" x="548.361328"/>
      <use xlink:href="#DejaVuSans-48" x="587.375"/>
      <use xlink:href="#DejaVuSans-7a" x="662.570312"/>
      <use xlink:href="#DejaVuSans-29" x="715.060547"/>
     </g>
    </g>
   </g>
   <g id="matplotlib.axis_2">
    <g id="ytick_1">
     <g id="line2d_28">
      <defs>
       <path id="m282f382974" d="M 0 0 
L -3.5 0 
" style="stroke: #000000; stroke-width: 0.8"/>
      </defs>
      <g>
       <use xlink:href="#m282f382974" x="90.612575" y="496.623437" style="stroke: #000000; stroke-width: 0.8"/>
      </g>
     </g>
     <g id="text_5">
      <!-- 0.0 -->
      <g transform="translate(47.035387 505.36164)scale(0.23 -0.23)">
       <defs>
        <path id="DejaVuSans-2e" d="M 684 794 
L 1344 794 
L 1344 0 
L 684 0 
L 684 794 
z
" transform="scale(0.015625)"/>
       </defs>
       <use xlink:href="#DejaVuSans-30"/>
       <use xlink:href="#DejaVuSans-2e" x="63.623047"/>
       <use xlink:href="#DejaVuSans-30" x="95.410156"/>
      </g>
     </g>
    </g>
    <g id="ytick_2">
     <g id="line2d_29">
      <g>
       <use xlink:href="#m282f382974" x="90.612575" y="409.09218" style="stroke: #000000; stroke-width: 0.8"/>
      </g>
     </g>
     <g id="text_6">
      <!-- 0.2 -->
      <g transform="translate(47.035387 417.830383)scale(0.23 -0.23)">
       <use xlink:href="#DejaVuSans-30"/>
       <use xlink:href="#DejaVuSans-2e" x="63.623047"/>
       <use xlink:href="#DejaVuSans-32" x="95.410156"/>
      </g>
     </g>
    </g>
    <g id="ytick_3">
     <g id="line2d_30">
      <g>
       <use xlink:href="#m282f382974" x="90.612575" y="321.560923" style="stroke: #000000; stroke-width: 0.8"/>
      </g>
     </g>
     <g id="text_7">
      <!-- 0.4 -->
      <g transform="translate(47.035387 330.299126)scale(0.23 -0.23)">
       <use xlink:href="#DejaVuSans-30"/>
       <use xlink:href="#DejaVuSans-2e" x="63.623047"/>
       <use xlink:href="#DejaVuSans-34" x="95.410156"/>
      </g>
     </g>
    </g>
    <g id="ytick_4">
     <g id="line2d_31">
      <g>
       <use xlink:href="#m282f382974" x="90.612575" y="234.029666" style="stroke: #000000; stroke-width: 0.8"/>
      </g>
     </g>
     <g id="text_8">
      <!-- 0.6 -->
      <g transform="translate(47.035387 242.767869)scale(0.23 -0.23)">
       <defs>
        <path id="DejaVuSans-36" d="M 2113 2584 
Q 1688 2584 1439 2293 
Q 1191 2003 1191 1497 
Q 1191 994 1439 701 
Q 1688 409 2113 409 
Q 2538 409 2786 701 
Q 3034 994 3034 1497 
Q 3034 2003 2786 2293 
Q 2538 2584 2113 2584 
z
M 3366 4563 
L 3366 3988 
Q 3128 4100 2886 4159 
Q 2644 4219 2406 4219 
Q 1781 4219 1451 3797 
Q 1122 3375 1075 2522 
Q 1259 2794 1537 2939 
Q 1816 3084 2150 3084 
Q 2853 3084 3261 2657 
Q 3669 2231 3669 1497 
Q 3669 778 3244 343 
Q 2819 -91 2113 -91 
Q 1303 -91 875 529 
Q 447 1150 447 2328 
Q 447 3434 972 4092 
Q 1497 4750 2381 4750 
Q 2619 4750 2861 4703 
Q 3103 4656 3366 4563 
z
" transform="scale(0.015625)"/>
       </defs>
       <use xlink:href="#DejaVuSans-30"/>
       <use xlink:href="#DejaVuSans-2e" x="63.623047"/>
       <use xlink:href="#DejaVuSans-36" x="95.410156"/>
      </g>
     </g>
    </g>
    <g id="ytick_5">
     <g id="line2d_32">
      <g>
       <use xlink:href="#m282f382974" x="90.612575" y="146.498408" style="stroke: #000000; stroke-width: 0.8"/>
      </g>
     </g>
     <g id="text_9">
      <!-- 0.8 -->
      <g transform="translate(47.035387 155.236611)scale(0.23 -0.23)">
       <defs>
        <path id="DejaVuSans-38" d="M 2034 2216 
Q 1584 2216 1326 1975 
Q 1069 1734 1069 1313 
Q 1069 891 1326 650 
Q 1584 409 2034 409 
Q 2484 409 2743 651 
Q 3003 894 3003 1313 
Q 3003 1734 2745 1975 
Q 2488 2216 2034 2216 
z
M 1403 2484 
Q 997 2584 770 2862 
Q 544 3141 544 3541 
Q 544 4100 942 4425 
Q 1341 4750 2034 4750 
Q 2731 4750 3128 4425 
Q 3525 4100 3525 3541 
Q 3525 3141 3298 2862 
Q 3072 2584 2669 2484 
Q 3125 2378 3379 2068 
Q 3634 1759 3634 1313 
Q 3634 634 3220 271 
Q 2806 -91 2034 -91 
Q 1263 -91 848 271 
Q 434 634 434 1313 
Q 434 1759 690 2068 
Q 947 2378 1403 2484 
z
M 1172 3481 
Q 1172 3119 1398 2916 
Q 1625 2713 2034 2713 
Q 2441 2713 2670 2916 
Q 2900 3119 2900 3481 
Q 2900 3844 2670 4047 
Q 2441 4250 2034 4250 
Q 1625 4250 1398 4047 
Q 1172 3844 1172 3481 
z
" transform="scale(0.015625)"/>
       </defs>
       <use xlink:href="#DejaVuSans-30"/>
       <use xlink:href="#DejaVuSans-2e" x="63.623047"/>
       <use xlink:href="#DejaVuSans-38" x="95.410156"/>
      </g>
     </g>
    </g>
    <g id="ytick_6">
     <g id="line2d_33">
      <g>
       <use xlink:href="#m282f382974" x="90.612575" y="58.967151" style="stroke: #000000; stroke-width: 0.8"/>
      </g>
     </g>
     <g id="text_10">
      <!-- 1.0 -->
      <g transform="translate(47.035387 67.705354)scale(0.23 -0.23)">
       <use xlink:href="#DejaVuSans-31"/>
       <use xlink:href="#DejaVuSans-2e" x="63.623047"/>
       <use xlink:href="#DejaVuSans-30" x="95.410156"/>
      </g>
     </g>
    </g>
    <g id="text_11">
     <!-- Arbitrary Units -->
     <g transform="translate(37.212262 380.008419)rotate(-90)scale(0.28 -0.28)">
      <defs>
       <path id="DejaVuSans-41" d="M 2188 4044 
L 1331 1722 
L 3047 1722 
L 2188 4044 
z
M 1831 4666 
L 2547 4666 
L 4325 0 
L 3669 0 
L 3244 1197 
L 1141 1197 
L 716 0 
L 50 0 
L 1831 4666 
z
" transform="scale(0.015625)"/>
       <path id="DejaVuSans-62" d="M 3116 1747 
Q 3116 2381 2855 2742 
Q 2594 3103 2138 3103 
Q 1681 3103 1420 2742 
Q 1159 2381 1159 1747 
Q 1159 1113 1420 752 
Q 1681 391 2138 391 
Q 2594 391 2855 752 
Q 3116 1113 3116 1747 
z
M 1159 2969 
Q 1341 3281 1617 3432 
Q 1894 3584 2278 3584 
Q 2916 3584 3314 3078 
Q 3713 2572 3713 1747 
Q 3713 922 3314 415 
Q 2916 -91 2278 -91 
Q 1894 -91 1617 61 
Q 1341 213 1159 525 
L 1159 0 
L 581 0 
L 581 4863 
L 1159 4863 
L 1159 2969 
z
" transform="scale(0.015625)"/>
       <path id="DejaVuSans-69" d="M 603 3500 
L 1178 3500 
L 1178 0 
L 603 0 
L 603 3500 
z
M 603 4863 
L 1178 4863 
L 1178 4134 
L 603 4134 
L 603 4863 
z
" transform="scale(0.015625)"/>
       <path id="DejaVuSans-74" d="M 1172 4494 
L 1172 3500 
L 2356 3500 
L 2356 3053 
L 1172 3053 
L 1172 1153 
Q 1172 725 1289 603 
Q 1406 481 1766 481 
L 2356 481 
L 2356 0 
L 1766 0 
Q 1100 0 847 248 
Q 594 497 594 1153 
L 594 3053 
L 172 3053 
L 172 3500 
L 594 3500 
L 594 4494 
L 1172 4494 
z
" transform="scale(0.015625)"/>
       <path id="DejaVuSans-61" d="M 2194 1759 
Q 1497 1759 1228 1600 
Q 959 1441 959 1056 
Q 959 750 1161 570 
Q 1363 391 1709 391 
Q 2188 391 2477 730 
Q 2766 1069 2766 1631 
L 2766 1759 
L 2194 1759 
z
M 3341 1997 
L 3341 0 
L 2766 0 
L 2766 531 
Q 2569 213 2275 61 
Q 1981 -91 1556 -91 
Q 1019 -91 701 211 
Q 384 513 384 1019 
Q 384 1609 779 1909 
Q 1175 2209 1959 2209 
L 2766 2209 
L 2766 2266 
Q 2766 2663 2505 2880 
Q 2244 3097 1772 3097 
Q 1472 3097 1187 3025 
Q 903 2953 641 2809 
L 641 3341 
Q 956 3463 1253 3523 
Q 1550 3584 1831 3584 
Q 2591 3584 2966 3190 
Q 3341 2797 3341 1997 
z
" transform="scale(0.015625)"/>
       <path id="DejaVuSans-55" d="M 556 4666 
L 1191 4666 
L 1191 1831 
Q 1191 1081 1462 751 
Q 1734 422 2344 422 
Q 2950 422 3222 751 
Q 3494 1081 3494 1831 
L 3494 4666 
L 4128 4666 
L 4128 1753 
Q 4128 841 3676 375 
Q 3225 -91 2344 -91 
Q 1459 -91 1007 375 
Q 556 841 556 1753 
L 556 4666 
z
" transform="scale(0.015625)"/>
       <path id="DejaVuSans-73" d="M 2834 3397 
L 2834 2853 
Q 2591 2978 2328 3040 
Q 2066 3103 1784 3103 
Q 1356 3103 1142 2972 
Q 928 2841 928 2578 
Q 928 2378 1081 2264 
Q 1234 2150 1697 2047 
L 1894 2003 
Q 2506 1872 2764 1633 
Q 3022 1394 3022 966 
Q 3022 478 2636 193 
Q 2250 -91 1575 -91 
Q 1294 -91 989 -36 
Q 684 19 347 128 
L 347 722 
Q 666 556 975 473 
Q 1284 391 1588 391 
Q 1994 391 2212 530 
Q 2431 669 2431 922 
Q 2431 1156 2273 1281 
Q 2116 1406 1581 1522 
L 1381 1569 
Q 847 1681 609 1914 
Q 372 2147 372 2553 
Q 372 3047 722 3315 
Q 1072 3584 1716 3584 
Q 2034 3584 2315 3537 
Q 2597 3491 2834 3397 
z
" transform="scale(0.015625)"/>
      </defs>
      <use xlink:href="#DejaVuSans-41"/>
      <use xlink:href="#DejaVuSans-72" x="68.408203"/>
      <use xlink:href="#DejaVuSans-62" x="109.521484"/>
      <use xlink:href="#DejaVuSans-69" x="172.998047"/>
      <use xlink:href="#DejaVuSans-74" x="200.78125"/>
      <use xlink:href="#DejaVuSans-72" x="239.990234"/>
      <use xlink:href="#DejaVuSans-61" x="281.103516"/>
      <use xlink:href="#DejaVuSans-72" x="342.382812"/>
      <use xlink:href="#DejaVuSans-79" x="383.496094"/>
      <use xlink:href="#DejaVuSans-20" x="442.675781"/>
      <use xlink:href="#DejaVuSans-55" x="474.462891"/>
      <use xlink:href="#DejaVuSans-6e" x="547.65625"/>
      <use xlink:href="#DejaVuSans-69" x="611.035156"/>
      <use xlink:href="#DejaVuSans-74" x="638.818359"/>
      <use xlink:href="#DejaVuSans-73" x="678.027344"/>
     </g>
    </g>
   </g>
   <g id="line2d_34">
    <path d="M 119.768294 496.623437 
L 128.711212 491.414907 
L 136.875458 486.223384 
L 144.385835 481.05031 
L 151.339359 475.897101 
L 157.812934 470.765143 
L 163.86856 465.655795 
L 169.556946 460.570384 
L 174.920098 455.510202 
L 179.993206 450.476511 
L 184.806037 445.470534 
L 191.591857 438.016119 
L 197.919848 430.630573 
L 203.847901 423.317544 
L 209.423578 416.080479 
L 214.686432 408.922614 
L 221.273672 399.507195 
L 227.42864 390.244507 
L 233.204595 381.140449 
L 238.645518 372.200236 
L 245.030949 361.262237 
L 251.00938 350.594732 
L 257.714348 338.158947 
L 264.97551 324.163066 
L 272.639329 308.851459 
L 280.573318 292.499893 
L 290.205319 272.123114 
L 306.289807 237.449748 
L 319.459486 209.262641 
L 327.995334 191.496255 
L 335.348674 176.703223 
L 341.727901 164.358142 
L 347.700894 153.28055 
L 353.316308 143.340082 
L 358.614549 134.417393 
L 363.62954 126.404394 
L 368.390035 119.20396 
L 372.920621 112.729327 
L 377.543705 106.510127 
L 381.949661 100.951765 
L 386.157973 95.980631 
L 390.448075 91.252793 
L 394.55057 87.051432 
L 398.721463 83.098071 
L 402.714815 79.610435 
L 406.765644 76.366227 
L 410.648804 73.530117 
L 414.580499 70.92761 
L 418.548517 68.571347 
L 422.355515 66.562001 
L 426.193288 64.78176 
L 430.052247 63.236532 
L 433.923794 61.929698 
L 437.800268 60.86257 
L 441.674875 60.034816 
L 445.395807 59.462823 
L 449.115152 59.108036 
L 452.962293 58.968417 
L 456.787221 59.058471 
L 460.58651 59.374051 
L 464.35723 59.910842 
L 468.096888 60.664441 
L 471.913451 61.662463 
L 475.686547 62.878653 
L 479.516859 64.349419 
L 483.29441 66.035959 
L 487.11303 67.982429 
L 490.96205 70.193863 
L 494.831862 72.673611 
L 498.713857 75.423418 
L 502.679649 78.507891 
L 506.636673 81.866798 
L 510.652183 85.566237 
L 514.712238 89.607879 
L 518.871006 94.064405 
L 523.108563 98.936714 
L 527.406855 104.221057 
L 531.807783 109.987515 
L 536.344238 116.305124 
L 540.988079 123.158876 
L 545.81408 130.685858 
L 550.784412 138.853963 
L 555.999793 147.857267 
L 561.492552 157.788044 
L 567.360097 168.861998 
L 573.740818 181.388384 
L 580.858764 195.86366 
L 589.255229 213.462745 
L 600.798928 238.223217 
L 622.330528 284.462543 
L 631.498603 303.559358 
L 639.38971 319.493243 
L 646.599996 333.560545 
L 653.375083 346.298892 
L 659.85714 358.018023 
L 666.114767 368.876208 
L 672.202494 378.998223 
L 678.163735 388.482062 
L 684.032957 397.404434 
L 689.826544 405.809969 
L 695.567565 413.75018 
L 701.27385 421.265458 
L 702.882668 423.317544 
L 702.882668 423.317544 
" clip-path="url(#p7f47e49989)" style="fill: none; stroke-dasharray: 12.95,5.6; stroke-dashoffset: 0; stroke: #f8485e; stroke-opacity: 0.67; stroke-width: 3.5"/>
   </g>
   <g id="line2d_35"/>
   <g id="patch_3">
    <path d="M 90.612575 501 
L 90.612575 54.590588 
" style="fill: none; stroke: #000000; stroke-width: 0.8; stroke-linejoin: miter; stroke-linecap: square"/>
   </g>
   <g id="patch_4">
    <path d="M 90.612575 501 
L 732.038386 501 
" style="fill: none; stroke: #000000; stroke-width: 0.8; stroke-linejoin: miter; stroke-linecap: square"/>
   </g>
   <g id="line2d_36">
    <path d="M 119.768294 496.623437 
L 132.882105 471.238453 
L 144.385835 449.478349 
L 154.631964 430.741014 
L 163.86856 414.424563 
L 172.276835 400.003806 
L 179.993206 387.141564 
L 189.384 371.891826 
L 199.937767 355.222653 
L 209.423578 340.694928 
L 218.037847 327.862875 
L 227.42864 314.24901 
L 238.645518 298.360676 
L 249.84378 282.880735 
L 261.93212 266.521012 
L 270.781256 254.904443 
L 278.867278 244.661374 
L 287.103231 234.608059 
L 296.831339 223.116501 
L 306.930285 211.535687 
L 317.768816 199.48106 
L 327.995334 188.41747 
L 336.752635 179.265787 
L 344.761918 171.206287 
L 352.53439 163.689122 
L 361.155545 155.668709 
L 369.706963 148.015381 
L 378.441603 140.501119 
L 387.249028 133.198774 
L 394.299353 127.635153 
L 400.150368 123.288109 
L 405.657844 119.475335 
L 411.280656 115.859454 
L 417.572133 112.087442 
L 427.261569 106.580328 
L 436.365293 101.626839 
L 443.479346 98.004059 
L 449.39524 95.232402 
L 454.563976 93.046468 
L 459.211235 91.314269 
L 463.518925 89.945127 
L 467.406961 88.937922 
L 470.918196 88.2474 
L 474.195466 87.825881 
L 477.154303 87.661009 
L 479.921734 87.719384 
L 482.609876 87.999101 
L 485.127643 88.48497 
L 487.579612 89.190148 
L 490.059835 90.145489 
L 492.740864 91.428827 
L 495.689542 93.099192 
L 499.208566 95.365867 
L 506.256025 100.26658 
L 509.848028 102.57637 
L 512.882045 104.262845 
L 515.61412 105.529048 
L 518.067322 106.427271 
L 520.326784 107.025309 
L 522.468958 107.362916 
L 524.437706 107.453328 
L 526.304405 107.323885 
L 528.13469 106.973628 
L 529.870662 106.41824 
L 531.5751 105.643274 
L 533.363484 104.578661 
L 535.23052 103.20653 
L 537.280614 101.416213 
L 539.554727 99.119574 
L 542.140019 96.174356 
L 545.312316 92.202626 
L 554.597637 80.344444 
L 557.64636 76.992791 
L 560.599132 74.070054 
L 563.544699 71.464256 
L 566.480937 69.161747 
L 569.483741 67.091291 
L 572.58172 65.225567 
L 575.835398 63.524353 
L 578.980021 62.128715 
L 582.056678 61.00637 
L 585.068587 60.144815 
L 588.018733 59.530151 
L 590.971767 59.141198 
L 593.954602 58.974224 
L 596.932634 59.028757 
L 599.847187 59.303961 
L 602.673928 59.793678 
L 605.444504 60.499054 
L 608.161365 61.419261 
L 610.851823 62.564888 
L 613.540252 63.953763 
L 616.201074 65.579431 
L 618.880438 67.479198 
L 621.57473 69.66351 
L 624.323949 72.181853 
L 627.121216 75.049573 
L 629.980455 78.302886 
L 632.913497 81.980127 
L 635.949312 86.147463 
L 639.112408 90.874514 
L 642.458626 96.284852 
L 646.085766 102.583907 
L 650.155718 110.112601 
L 655.217564 119.974022 
L 669.348945 147.777542 
L 673.917326 156.157587 
L 677.661742 162.577921 
L 680.859898 167.635203 
L 683.676693 171.685601 
L 686.288286 175.058713 
L 688.720101 177.845783 
L 691.005324 180.134751 
L 693.152982 181.97835 
L 695.181309 183.432275 
L 697.096883 184.537679 
L 698.925208 185.340269 
L 700.670565 185.867786 
L 702.355745 186.148303 
L 702.882668 186.18873 
L 702.882668 186.18873 
" clip-path="url(#p7f47e49989)" style="fill: none; stroke-dasharray: 3.5,5.775; stroke-dashoffset: 0; stroke: #00c1d4; stroke-opacity: 0.67; stroke-width: 3.5"/>
   </g>
   <g id="text_12">
    <!-- A) -->
    <g transform="translate(-10.307192 41.4609)scale(0.4 -0.4)">
     <use xlink:href="#DejaVuSans-41"/>
     <use xlink:href="#DejaVuSans-29" x="68.408203"/>
    </g>
   </g>
   <g id="line2d_37">
    <path d="M 119.768294 496.623437 
L 702.882668 58.967151 
L 702.882668 58.967151 
" clip-path="url(#p7f47e49989)" style="fill: none; stroke-dasharray: 22.4,5.6,3.5,5.6; stroke-dashoffset: 0; stroke: #512d6d; stroke-opacity: 0.67; stroke-width: 3.5"/>
   </g>
   <g id="line2d_38">
    <path d="M 296.117802 259.424342 
L 426.014053 64.85947 
" clip-path="url(#p7f47e49989)" style="fill: none; stroke: #f8485e; stroke-width: 5; stroke-linecap: square"/>
    <defs>
     <path id="m1bfd099086" d="M 0 8.485281 
L 8.485281 0 
L 0 -8.485281 
L -8.485281 0 
z
" style="stroke: #f8485e; stroke-linejoin: miter"/>
    </defs>
    <g clip-path="url(#p7f47e49989)">
     <use xlink:href="#m1bfd099086" x="296.117802" y="259.424342" style="fill: #ffffff; stroke: #f8485e; stroke-linejoin: miter"/>
     <use xlink:href="#m1bfd099086" x="426.014053" y="64.85947" style="fill: #ffffff; stroke: #f8485e; stroke-linejoin: miter"/>
    </g>
   </g>
   <g id="legend_1">
    <g id="patch_5">
     <path d="M 101.812575 161.330588 
L 311.967575 161.330588 
Q 315.167575 161.330588 315.167575 158.130588 
L 315.167575 65.790588 
Q 315.167575 62.590588 311.967575 62.590588 
L 101.812575 62.590588 
Q 98.612575 62.590588 98.612575 65.790588 
L 98.612575 158.130588 
Q 98.612575 161.330588 101.812575 161.330588 
z
" style="fill: #ffffff; opacity: 0.8; stroke: #cccccc; stroke-linejoin: miter"/>
    </g>
    <g id="line2d_39">
     <path d="M 105.012575 75.548088 
L 121.012575 75.548088 
L 137.012575 75.548088 
" style="fill: none; stroke-dasharray: 22.4,5.6,3.5,5.6; stroke-dashoffset: 0; stroke: #512d6d; stroke-opacity: 0.67; stroke-width: 3.5"/>
    </g>
    <g id="text_13">
     <!-- Pitch Height -->
     <g transform="translate(149.812575 81.148088)scale(0.16 -0.16)">
      <defs>
       <path id="DejaVuSans-50" d="M 1259 4147 
L 1259 2394 
L 2053 2394 
Q 2494 2394 2734 2622 
Q 2975 2850 2975 3272 
Q 2975 3691 2734 3919 
Q 2494 4147 2053 4147 
L 1259 4147 
z
M 628 4666 
L 2053 4666 
Q 2838 4666 3239 4311 
Q 3641 3956 3641 3272 
Q 3641 2581 3239 2228 
Q 2838 1875 2053 1875 
L 1259 1875 
L 1259 0 
L 628 0 
L 628 4666 
z
" transform="scale(0.015625)"/>
       <path id="DejaVuSans-68" d="M 3513 2113 
L 3513 0 
L 2938 0 
L 2938 2094 
Q 2938 2591 2744 2837 
Q 2550 3084 2163 3084 
Q 1697 3084 1428 2787 
Q 1159 2491 1159 1978 
L 1159 0 
L 581 0 
L 581 4863 
L 1159 4863 
L 1159 2956 
Q 1366 3272 1645 3428 
Q 1925 3584 2291 3584 
Q 2894 3584 3203 3211 
Q 3513 2838 3513 2113 
z
" transform="scale(0.015625)"/>
       <path id="DejaVuSans-67" d="M 2906 1791 
Q 2906 2416 2648 2759 
Q 2391 3103 1925 3103 
Q 1463 3103 1205 2759 
Q 947 2416 947 1791 
Q 947 1169 1205 825 
Q 1463 481 1925 481 
Q 2391 481 2648 825 
Q 2906 1169 2906 1791 
z
M 3481 434 
Q 3481 -459 3084 -895 
Q 2688 -1331 1869 -1331 
Q 1566 -1331 1297 -1286 
Q 1028 -1241 775 -1147 
L 775 -588 
Q 1028 -725 1275 -790 
Q 1522 -856 1778 -856 
Q 2344 -856 2625 -561 
Q 2906 -266 2906 331 
L 2906 616 
Q 2728 306 2450 153 
Q 2172 0 1784 0 
Q 1141 0 747 490 
Q 353 981 353 1791 
Q 353 2603 747 3093 
Q 1141 3584 1784 3584 
Q 2172 3584 2450 3431 
Q 2728 3278 2906 2969 
L 2906 3500 
L 3481 3500 
L 3481 434 
z
" transform="scale(0.015625)"/>
      </defs>
      <use xlink:href="#DejaVuSans-50"/>
      <use xlink:href="#DejaVuSans-69" x="58.052734"/>
      <use xlink:href="#DejaVuSans-74" x="85.835938"/>
      <use xlink:href="#DejaVuSans-63" x="125.044922"/>
      <use xlink:href="#DejaVuSans-68" x="180.025391"/>
      <use xlink:href="#DejaVuSans-20" x="243.404297"/>
      <use xlink:href="#DejaVuSans-48" x="275.191406"/>
      <use xlink:href="#DejaVuSans-65" x="350.386719"/>
      <use xlink:href="#DejaVuSans-69" x="411.910156"/>
      <use xlink:href="#DejaVuSans-67" x="439.693359"/>
      <use xlink:href="#DejaVuSans-68" x="503.169922"/>
      <use xlink:href="#DejaVuSans-74" x="566.548828"/>
     </g>
    </g>
    <g id="line2d_40">
     <path d="M 105.012575 99.033088 
L 121.012575 99.033088 
L 137.012575 99.033088 
" style="fill: none; stroke-dasharray: 3.5,5.775; stroke-dashoffset: 0; stroke: #00c1d4; stroke-opacity: 0.67; stroke-width: 3.5"/>
    </g>
    <g id="text_14">
     <!-- Cochlear Sensitivity -->
     <g transform="translate(149.812575 104.633088)scale(0.16 -0.16)">
      <defs>
       <path id="DejaVuSans-43" d="M 4122 4306 
L 4122 3641 
Q 3803 3938 3442 4084 
Q 3081 4231 2675 4231 
Q 1875 4231 1450 3742 
Q 1025 3253 1025 2328 
Q 1025 1406 1450 917 
Q 1875 428 2675 428 
Q 3081 428 3442 575 
Q 3803 722 4122 1019 
L 4122 359 
Q 3791 134 3420 21 
Q 3050 -91 2638 -91 
Q 1578 -91 968 557 
Q 359 1206 359 2328 
Q 359 3453 968 4101 
Q 1578 4750 2638 4750 
Q 3056 4750 3426 4639 
Q 3797 4528 4122 4306 
z
" transform="scale(0.015625)"/>
       <path id="DejaVuSans-6f" d="M 1959 3097 
Q 1497 3097 1228 2736 
Q 959 2375 959 1747 
Q 959 1119 1226 758 
Q 1494 397 1959 397 
Q 2419 397 2687 759 
Q 2956 1122 2956 1747 
Q 2956 2369 2687 2733 
Q 2419 3097 1959 3097 
z
M 1959 3584 
Q 2709 3584 3137 3096 
Q 3566 2609 3566 1747 
Q 3566 888 3137 398 
Q 2709 -91 1959 -91 
Q 1206 -91 779 398 
Q 353 888 353 1747 
Q 353 2609 779 3096 
Q 1206 3584 1959 3584 
z
" transform="scale(0.015625)"/>
       <path id="DejaVuSans-6c" d="M 603 4863 
L 1178 4863 
L 1178 0 
L 603 0 
L 603 4863 
z
" transform="scale(0.015625)"/>
       <path id="DejaVuSans-53" d="M 3425 4513 
L 3425 3897 
Q 3066 4069 2747 4153 
Q 2428 4238 2131 4238 
Q 1616 4238 1336 4038 
Q 1056 3838 1056 3469 
Q 1056 3159 1242 3001 
Q 1428 2844 1947 2747 
L 2328 2669 
Q 3034 2534 3370 2195 
Q 3706 1856 3706 1288 
Q 3706 609 3251 259 
Q 2797 -91 1919 -91 
Q 1588 -91 1214 -16 
Q 841 59 441 206 
L 441 856 
Q 825 641 1194 531 
Q 1563 422 1919 422 
Q 2459 422 2753 634 
Q 3047 847 3047 1241 
Q 3047 1584 2836 1778 
Q 2625 1972 2144 2069 
L 1759 2144 
Q 1053 2284 737 2584 
Q 422 2884 422 3419 
Q 422 4038 858 4394 
Q 1294 4750 2059 4750 
Q 2388 4750 2728 4690 
Q 3069 4631 3425 4513 
z
" transform="scale(0.015625)"/>
       <path id="DejaVuSans-76" d="M 191 3500 
L 800 3500 
L 1894 563 
L 2988 3500 
L 3597 3500 
L 2284 0 
L 1503 0 
L 191 3500 
z
" transform="scale(0.015625)"/>
      </defs>
      <use xlink:href="#DejaVuSans-43"/>
      <use xlink:href="#DejaVuSans-6f" x="69.824219"/>
      <use xlink:href="#DejaVuSans-63" x="131.005859"/>
      <use xlink:href="#DejaVuSans-68" x="185.986328"/>
      <use xlink:href="#DejaVuSans-6c" x="249.365234"/>
      <use xlink:href="#DejaVuSans-65" x="277.148438"/>
      <use xlink:href="#DejaVuSans-61" x="338.671875"/>
      <use xlink:href="#DejaVuSans-72" x="399.951172"/>
      <use xlink:href="#DejaVuSans-20" x="441.064453"/>
      <use xlink:href="#DejaVuSans-53" x="472.851562"/>
      <use xlink:href="#DejaVuSans-65" x="536.328125"/>
      <use xlink:href="#DejaVuSans-6e" x="597.851562"/>
      <use xlink:href="#DejaVuSans-73" x="661.230469"/>
      <use xlink:href="#DejaVuSans-69" x="713.330078"/>
      <use xlink:href="#DejaVuSans-74" x="741.113281"/>
      <use xlink:href="#DejaVuSans-69" x="780.322266"/>
      <use xlink:href="#DejaVuSans-76" x="808.105469"/>
      <use xlink:href="#DejaVuSans-69" x="867.285156"/>
      <use xlink:href="#DejaVuSans-74" x="895.068359"/>
      <use xlink:href="#DejaVuSans-79" x="934.277344"/>
     </g>
    </g>
    <g id="line2d_41">
     <path d="M 105.012575 122.518088 
L 121.012575 122.518088 
L 137.012575 122.518088 
" style="fill: none; stroke-dasharray: 12.95,5.6; stroke-dashoffset: 0; stroke: #f8485e; stroke-opacity: 0.67; stroke-width: 3.5"/>
    </g>
    <g id="text_15">
     <!-- Pitch Salience -->
     <g transform="translate(149.812575 128.118088)scale(0.16 -0.16)">
      <use xlink:href="#DejaVuSans-50"/>
      <use xlink:href="#DejaVuSans-69" x="58.052734"/>
      <use xlink:href="#DejaVuSans-74" x="85.835938"/>
      <use xlink:href="#DejaVuSans-63" x="125.044922"/>
      <use xlink:href="#DejaVuSans-68" x="180.025391"/>
      <use xlink:href="#DejaVuSans-20" x="243.404297"/>
      <use xlink:href="#DejaVuSans-53" x="275.191406"/>
      <use xlink:href="#DejaVuSans-61" x="338.667969"/>
      <use xlink:href="#DejaVuSans-6c" x="399.947266"/>
      <use xlink:href="#DejaVuSans-69" x="427.730469"/>
      <use xlink:href="#DejaVuSans-65" x="455.513672"/>
      <use xlink:href="#DejaVuSans-6e" x="517.037109"/>
      <use xlink:href="#DejaVuSans-63" x="580.416016"/>
      <use xlink:href="#DejaVuSans-65" x="635.396484"/>
     </g>
    </g>
    <g id="line2d_42">
     <path d="M 105.012575 146.003088 
L 121.012575 146.003088 
L 137.012575 146.003088 
" style="fill: none; stroke: #000000; stroke-width: 5; stroke-linecap: square"/>
     <defs>
      <path id="m2e58cc6a37" d="M 0 6.363961 
L 6.363961 0 
L 0 -6.363961 
L -6.363961 0 
z
" style="stroke: #000000; stroke-linejoin: miter"/>
     </defs>
     <g>
      <use xlink:href="#m2e58cc6a37" x="121.012575" y="146.003088" style="fill: #ffffff; stroke: #000000; stroke-linejoin: miter"/>
     </g>
    </g>
    <g id="text_16">
     <!-- Boltz (2011) Stimuli -->
     <g transform="translate(149.812575 151.603088)scale(0.16 -0.16)">
      <defs>
       <path id="DejaVuSans-42" d="M 1259 2228 
L 1259 519 
L 2272 519 
Q 2781 519 3026 730 
Q 3272 941 3272 1375 
Q 3272 1813 3026 2020 
Q 2781 2228 2272 2228 
L 1259 2228 
z
M 1259 4147 
L 1259 2741 
L 2194 2741 
Q 2656 2741 2882 2914 
Q 3109 3088 3109 3444 
Q 3109 3797 2882 3972 
Q 2656 4147 2194 4147 
L 1259 4147 
z
M 628 4666 
L 2241 4666 
Q 2963 4666 3353 4366 
Q 3744 4066 3744 3513 
Q 3744 3084 3544 2831 
Q 3344 2578 2956 2516 
Q 3422 2416 3680 2098 
Q 3938 1781 3938 1306 
Q 3938 681 3513 340 
Q 3088 0 2303 0 
L 628 0 
L 628 4666 
z
" transform="scale(0.015625)"/>
       <path id="DejaVuSans-6d" d="M 3328 2828 
Q 3544 3216 3844 3400 
Q 4144 3584 4550 3584 
Q 5097 3584 5394 3201 
Q 5691 2819 5691 2113 
L 5691 0 
L 5113 0 
L 5113 2094 
Q 5113 2597 4934 2840 
Q 4756 3084 4391 3084 
Q 3944 3084 3684 2787 
Q 3425 2491 3425 1978 
L 3425 0 
L 2847 0 
L 2847 2094 
Q 2847 2600 2669 2842 
Q 2491 3084 2119 3084 
Q 1678 3084 1418 2786 
Q 1159 2488 1159 1978 
L 1159 0 
L 581 0 
L 581 3500 
L 1159 3500 
L 1159 2956 
Q 1356 3278 1631 3431 
Q 1906 3584 2284 3584 
Q 2666 3584 2933 3390 
Q 3200 3197 3328 2828 
z
" transform="scale(0.015625)"/>
      </defs>
      <use xlink:href="#DejaVuSans-42"/>
      <use xlink:href="#DejaVuSans-6f" x="68.603516"/>
      <use xlink:href="#DejaVuSans-6c" x="129.785156"/>
      <use xlink:href="#DejaVuSans-74" x="157.568359"/>
      <use xlink:href="#DejaVuSans-7a" x="196.777344"/>
      <use xlink:href="#DejaVuSans-20" x="249.267578"/>
      <use xlink:href="#DejaVuSans-28" x="281.054688"/>
      <use xlink:href="#DejaVuSans-32" x="320.068359"/>
      <use xlink:href="#DejaVuSans-30" x="383.691406"/>
      <use xlink:href="#DejaVuSans-31" x="447.314453"/>
      <use xlink:href="#DejaVuSans-31" x="510.9375"/>
      <use xlink:href="#DejaVuSans-29" x="574.560547"/>
      <use xlink:href="#DejaVuSans-20" x="613.574219"/>
      <use xlink:href="#DejaVuSans-53" x="645.361328"/>
      <use xlink:href="#DejaVuSans-74" x="708.837891"/>
      <use xlink:href="#DejaVuSans-69" x="748.046875"/>
      <use xlink:href="#DejaVuSans-6d" x="775.830078"/>
      <use xlink:href="#DejaVuSans-75" x="873.242188"/>
      <use xlink:href="#DejaVuSans-6c" x="936.621094"/>
      <use xlink:href="#DejaVuSans-69" x="964.404297"/>
     </g>
    </g>
   </g>
   <g id="line2d_43">
    <path d="M 296.117802 223.948506 
L 426.014053 107.278402 
" clip-path="url(#p7f47e49989)" style="fill: none; stroke: #00c1d4; stroke-width: 5; stroke-linecap: square"/>
    <defs>
     <path id="m81f7b69b36" d="M 0 8.485281 
L 8.485281 0 
L 0 -8.485281 
L -8.485281 0 
z
" style="stroke: #00c1d4; stroke-linejoin: miter"/>
    </defs>
    <g clip-path="url(#p7f47e49989)">
     <use xlink:href="#m81f7b69b36" x="296.117802" y="223.948506" style="fill: #ffffff; stroke: #00c1d4; stroke-linejoin: miter"/>
     <use xlink:href="#m81f7b69b36" x="426.014053" y="107.278402" style="fill: #ffffff; stroke: #00c1d4; stroke-linejoin: miter"/>
    </g>
   </g>
   <g id="line2d_44">
    <path d="M 296.117802 364.264376 
L 426.014053 266.770791 
" clip-path="url(#p7f47e49989)" style="fill: none; stroke: #512d6d; stroke-width: 5; stroke-linecap: square"/>
    <defs>
     <path id="me8c5c039f4" d="M 0 8.485281 
L 8.485281 0 
L 0 -8.485281 
L -8.485281 0 
z
" style="stroke: #512d6d; stroke-linejoin: miter"/>
    </defs>
    <g clip-path="url(#p7f47e49989)">
     <use xlink:href="#me8c5c039f4" x="296.117802" y="364.264376" style="fill: #ffffff; stroke: #512d6d; stroke-linejoin: miter"/>
     <use xlink:href="#me8c5c039f4" x="426.014053" y="266.770791" style="fill: #ffffff; stroke: #512d6d; stroke-linejoin: miter"/>
    </g>
   </g>
  </g>
  <g id="axes_2">
   <g id="patch_6">
    <path d="M 787.774188 501 
L 1429.2 501 
L 1429.2 54.590588 
L 787.774188 54.590588 
z
" style="fill: #ffffff"/>
   </g>
   <g id="matplotlib.axis_3">
    <g id="xtick_28">
     <g id="line2d_45">
      <g>
       <use xlink:href="#m7cabdf3c88" x="967.94287" y="501" style="stroke: #000000; stroke-width: 0.8"/>
      </g>
     </g>
     <g id="text_17">
      <!-- $\mathdefault{10^{2}}$ -->
      <g transform="translate(947.70287 525.476406)scale(0.23 -0.23)">
       <use xlink:href="#DejaVuSans-31" transform="translate(0 0.765625)"/>
       <use xlink:href="#DejaVuSans-30" transform="translate(63.623047 0.765625)"/>
       <use xlink:href="#DejaVuSans-32" transform="translate(128.203125 39.046875)scale(0.7)"/>
      </g>
     </g>
    </g>
    <g id="xtick_29">
     <g id="line2d_46">
      <g>
       <use xlink:href="#m7cabdf3c88" x="1183.993576" y="501" style="stroke: #000000; stroke-width: 0.8"/>
      </g>
     </g>
     <g id="text_18">
      <!-- $\mathdefault{10^{3}}$ -->
      <g transform="translate(1163.753576 525.476406)scale(0.23 -0.23)">
       <use xlink:href="#DejaVuSans-31" transform="translate(0 0.765625)"/>
       <use xlink:href="#DejaVuSans-30" transform="translate(63.623047 0.765625)"/>
       <use xlink:href="#DejaVuSans-33" transform="translate(128.203125 39.046875)scale(0.7)"/>
      </g>
     </g>
    </g>
    <g id="xtick_30">
     <g id="line2d_47">
      <g>
       <use xlink:href="#m7cabdf3c88" x="1400.044281" y="501" style="stroke: #000000; stroke-width: 0.8"/>
      </g>
     </g>
     <g id="text_19">
      <!-- $\mathdefault{10^{4}}$ -->
      <g transform="translate(1379.804281 525.476406)scale(0.23 -0.23)">
       <use xlink:href="#DejaVuSans-31" transform="translate(0 0.684375)"/>
       <use xlink:href="#DejaVuSans-30" transform="translate(63.623047 0.684375)"/>
       <use xlink:href="#DejaVuSans-34" transform="translate(128.203125 38.965625)scale(0.7)"/>
      </g>
     </g>
    </g>
    <g id="xtick_31">
     <g id="line2d_48">
      <g>
       <use xlink:href="#m4e5c8be9ab" x="816.929907" y="501" style="stroke: #000000; stroke-width: 0.6"/>
      </g>
     </g>
    </g>
    <g id="xtick_32">
     <g id="line2d_49">
      <g>
       <use xlink:href="#m4e5c8be9ab" x="854.974548" y="501" style="stroke: #000000; stroke-width: 0.6"/>
      </g>
     </g>
    </g>
    <g id="xtick_33">
     <g id="line2d_50">
      <g>
       <use xlink:href="#m4e5c8be9ab" x="881.96765" y="501" style="stroke: #000000; stroke-width: 0.6"/>
      </g>
     </g>
    </g>
    <g id="xtick_34">
     <g id="line2d_51">
      <g>
       <use xlink:href="#m4e5c8be9ab" x="902.905127" y="501" style="stroke: #000000; stroke-width: 0.6"/>
      </g>
     </g>
    </g>
    <g id="xtick_35">
     <g id="line2d_52">
      <g>
       <use xlink:href="#m4e5c8be9ab" x="920.012291" y="501" style="stroke: #000000; stroke-width: 0.6"/>
      </g>
     </g>
    </g>
    <g id="xtick_36">
     <g id="line2d_53">
      <g>
       <use xlink:href="#m4e5c8be9ab" x="934.476192" y="501" style="stroke: #000000; stroke-width: 0.6"/>
      </g>
     </g>
    </g>
    <g id="xtick_37">
     <g id="line2d_54">
      <g>
       <use xlink:href="#m4e5c8be9ab" x="947.005393" y="501" style="stroke: #000000; stroke-width: 0.6"/>
      </g>
     </g>
    </g>
    <g id="xtick_38">
     <g id="line2d_55">
      <g>
       <use xlink:href="#m4e5c8be9ab" x="958.056932" y="501" style="stroke: #000000; stroke-width: 0.6"/>
      </g>
     </g>
    </g>
    <g id="xtick_39">
     <g id="line2d_56">
      <g>
       <use xlink:href="#m4e5c8be9ab" x="1032.980613" y="501" style="stroke: #000000; stroke-width: 0.6"/>
      </g>
     </g>
    </g>
    <g id="xtick_40">
     <g id="line2d_57">
      <g>
       <use xlink:href="#m4e5c8be9ab" x="1071.025254" y="501" style="stroke: #000000; stroke-width: 0.6"/>
      </g>
     </g>
    </g>
    <g id="xtick_41">
     <g id="line2d_58">
      <g>
       <use xlink:href="#m4e5c8be9ab" x="1098.018356" y="501" style="stroke: #000000; stroke-width: 0.6"/>
      </g>
     </g>
    </g>
    <g id="xtick_42">
     <g id="line2d_59">
      <g>
       <use xlink:href="#m4e5c8be9ab" x="1118.955833" y="501" style="stroke: #000000; stroke-width: 0.6"/>
      </g>
     </g>
    </g>
    <g id="xtick_43">
     <g id="line2d_60">
      <g>
       <use xlink:href="#m4e5c8be9ab" x="1136.062997" y="501" style="stroke: #000000; stroke-width: 0.6"/>
      </g>
     </g>
    </g>
    <g id="xtick_44">
     <g id="line2d_61">
      <g>
       <use xlink:href="#m4e5c8be9ab" x="1150.526898" y="501" style="stroke: #000000; stroke-width: 0.6"/>
      </g>
     </g>
    </g>
    <g id="xtick_45">
     <g id="line2d_62">
      <g>
       <use xlink:href="#m4e5c8be9ab" x="1163.056099" y="501" style="stroke: #000000; stroke-width: 0.6"/>
      </g>
     </g>
    </g>
    <g id="xtick_46">
     <g id="line2d_63">
      <g>
       <use xlink:href="#m4e5c8be9ab" x="1174.107637" y="501" style="stroke: #000000; stroke-width: 0.6"/>
      </g>
     </g>
    </g>
    <g id="xtick_47">
     <g id="line2d_64">
      <g>
       <use xlink:href="#m4e5c8be9ab" x="1249.031319" y="501" style="stroke: #000000; stroke-width: 0.6"/>
      </g>
     </g>
    </g>
    <g id="xtick_48">
     <g id="line2d_65">
      <g>
       <use xlink:href="#m4e5c8be9ab" x="1287.075959" y="501" style="stroke: #000000; stroke-width: 0.6"/>
      </g>
     </g>
    </g>
    <g id="xtick_49">
     <g id="line2d_66">
      <g>
       <use xlink:href="#m4e5c8be9ab" x="1314.069062" y="501" style="stroke: #000000; stroke-width: 0.6"/>
      </g>
     </g>
    </g>
    <g id="xtick_50">
     <g id="line2d_67">
      <g>
       <use xlink:href="#m4e5c8be9ab" x="1335.006538" y="501" style="stroke: #000000; stroke-width: 0.6"/>
      </g>
     </g>
    </g>
    <g id="xtick_51">
     <g id="line2d_68">
      <g>
       <use xlink:href="#m4e5c8be9ab" x="1352.113702" y="501" style="stroke: #000000; stroke-width: 0.6"/>
      </g>
     </g>
    </g>
    <g id="xtick_52">
     <g id="line2d_69">
      <g>
       <use xlink:href="#m4e5c8be9ab" x="1366.577604" y="501" style="stroke: #000000; stroke-width: 0.6"/>
      </g>
     </g>
    </g>
    <g id="xtick_53">
     <g id="line2d_70">
      <g>
       <use xlink:href="#m4e5c8be9ab" x="1379.106805" y="501" style="stroke: #000000; stroke-width: 0.6"/>
      </g>
     </g>
    </g>
    <g id="xtick_54">
     <g id="line2d_71">
      <g>
       <use xlink:href="#m4e5c8be9ab" x="1390.158343" y="501" style="stroke: #000000; stroke-width: 0.6"/>
      </g>
     </g>
    </g>
    <g id="text_20">
     <!-- Frequency (Hz) -->
     <g transform="translate(1002.913969 555.535313)scale(0.28 -0.28)">
      <use xlink:href="#DejaVuSans-46"/>
      <use xlink:href="#DejaVuSans-72" x="50.269531"/>
      <use xlink:href="#DejaVuSans-65" x="89.132812"/>
      <use xlink:href="#DejaVuSans-71" x="150.65625"/>
      <use xlink:href="#DejaVuSans-75" x="214.132812"/>
      <use xlink:href="#DejaVuSans-65" x="277.511719"/>
      <use xlink:href="#DejaVuSans-6e" x="339.035156"/>
      <use xlink:href="#DejaVuSans-63" x="402.414062"/>
      <use xlink:href="#DejaVuSans-79" x="457.394531"/>
      <use xlink:href="#DejaVuSans-20" x="516.574219"/>
      <use xlink:href="#DejaVuSans-28" x="548.361328"/>
      <use xlink:href="#DejaVuSans-48" x="587.375"/>
      <use xlink:href="#DejaVuSans-7a" x="662.570312"/>
      <use xlink:href="#DejaVuSans-29" x="715.060547"/>
     </g>
    </g>
   </g>
   <g id="matplotlib.axis_4">
    <g id="ytick_7">
     <g id="line2d_72">
      <g>
       <use xlink:href="#m282f382974" x="787.774188" y="496.623437" style="stroke: #000000; stroke-width: 0.8"/>
      </g>
     </g>
    </g>
    <g id="ytick_8">
     <g id="line2d_73">
      <g>
       <use xlink:href="#m282f382974" x="787.774188" y="409.09218" style="stroke: #000000; stroke-width: 0.8"/>
      </g>
     </g>
    </g>
    <g id="ytick_9">
     <g id="line2d_74">
      <g>
       <use xlink:href="#m282f382974" x="787.774188" y="321.560923" style="stroke: #000000; stroke-width: 0.8"/>
      </g>
     </g>
    </g>
    <g id="ytick_10">
     <g id="line2d_75">
      <g>
       <use xlink:href="#m282f382974" x="787.774188" y="234.029666" style="stroke: #000000; stroke-width: 0.8"/>
      </g>
     </g>
    </g>
    <g id="ytick_11">
     <g id="line2d_76">
      <g>
       <use xlink:href="#m282f382974" x="787.774188" y="146.498408" style="stroke: #000000; stroke-width: 0.8"/>
      </g>
     </g>
    </g>
    <g id="ytick_12">
     <g id="line2d_77">
      <g>
       <use xlink:href="#m282f382974" x="787.774188" y="58.967151" style="stroke: #000000; stroke-width: 0.8"/>
      </g>
     </g>
    </g>
   </g>
   <g id="line2d_78">
    <path d="M 816.929907 496.623437 
L 825.872826 491.414907 
L 834.037071 486.223384 
L 841.547449 481.05031 
L 848.500972 475.897101 
L 854.974548 470.765143 
L 861.030173 465.655795 
L 866.718559 460.570384 
L 872.081712 455.510202 
L 877.154819 450.476511 
L 881.96765 445.470534 
L 888.753471 438.016119 
L 895.081461 430.630573 
L 901.009514 423.317544 
L 906.585192 416.080479 
L 911.848046 408.922614 
L 918.435285 399.507195 
L 924.590254 390.244507 
L 930.366208 381.140449 
L 935.807131 372.200236 
L 942.192562 361.262237 
L 948.170994 350.594732 
L 954.875962 338.158947 
L 962.137124 324.163066 
L 969.800943 308.851459 
L 977.734931 292.499893 
L 987.366933 272.123114 
L 1003.45142 237.449748 
L 1016.621099 209.262641 
L 1025.156947 191.496255 
L 1032.510288 176.703223 
L 1038.889515 164.358142 
L 1044.862508 153.28055 
L 1050.477921 143.340082 
L 1055.776163 134.417393 
L 1060.791153 126.404394 
L 1065.551648 119.20396 
L 1070.082234 112.729327 
L 1074.705319 106.510127 
L 1079.111275 100.951765 
L 1083.319587 95.980631 
L 1087.609689 91.252793 
L 1091.712184 87.051432 
L 1095.883076 83.098071 
L 1099.876429 79.610435 
L 1103.927258 76.366227 
L 1107.810417 73.530117 
L 1111.742113 70.92761 
L 1115.71013 68.571347 
L 1119.517128 66.562001 
L 1123.354902 64.78176 
L 1127.213861 63.236532 
L 1131.085408 61.929698 
L 1134.961882 60.86257 
L 1138.836488 60.034816 
L 1142.557421 59.462823 
L 1146.276765 59.108036 
L 1150.123907 58.968417 
L 1153.948834 59.058471 
L 1157.748124 59.374051 
L 1161.518843 59.910842 
L 1165.258501 60.664441 
L 1169.075065 61.662463 
L 1172.84816 62.878653 
L 1176.678473 64.349419 
L 1180.456023 66.035959 
L 1184.274643 67.982429 
L 1188.123664 70.193863 
L 1191.993475 72.673611 
L 1195.87547 75.423418 
L 1199.841263 78.507891 
L 1203.798286 81.866798 
L 1207.813796 85.566237 
L 1211.873852 89.607879 
L 1216.03262 94.064405 
L 1220.270176 98.936714 
L 1224.568468 104.221057 
L 1228.969397 109.987515 
L 1233.505852 116.305124 
L 1238.149692 123.158876 
L 1242.975693 130.685858 
L 1247.946025 138.853963 
L 1253.161407 147.857267 
L 1258.654165 157.788044 
L 1264.52171 168.861998 
L 1270.902431 181.388384 
L 1278.020377 195.86366 
L 1286.416842 213.462745 
L 1297.960541 238.223217 
L 1319.492142 284.462543 
L 1328.660217 303.559358 
L 1336.551324 319.493243 
L 1343.76161 333.560545 
L 1350.536697 346.298892 
L 1357.018754 358.018023 
L 1363.276381 368.876208 
L 1369.364108 378.998223 
L 1375.325349 388.482062 
L 1381.194571 397.404434 
L 1386.988158 405.809969 
L 1392.729179 413.75018 
L 1398.435464 421.265458 
L 1400.044281 423.317544 
L 1400.044281 423.317544 
" clip-path="url(#p9ec1a11ccf)" style="fill: none; stroke-dasharray: 12.95,5.6; stroke-dashoffset: 0; stroke: #f8485e; stroke-opacity: 0.67; stroke-width: 3.5"/>
   </g>
   <g id="line2d_79"/>
   <g id="patch_7">
    <path d="M 787.774188 501 
L 787.774188 54.590588 
" style="fill: none; stroke: #000000; stroke-width: 0.8; stroke-linejoin: miter; stroke-linecap: square"/>
   </g>
   <g id="patch_8">
    <path d="M 787.774188 501 
L 1429.2 501 
" style="fill: none; stroke: #000000; stroke-width: 0.8; stroke-linejoin: miter; stroke-linecap: square"/>
   </g>
   <g id="line2d_80">
    <path d="M 816.929907 496.623437 
L 830.043718 471.238453 
L 841.547449 449.478349 
L 851.793578 430.741014 
L 861.030173 414.424563 
L 869.438449 400.003806 
L 877.154819 387.141564 
L 886.545613 371.891826 
L 897.099381 355.222653 
L 906.585192 340.694928 
L 915.19946 327.862875 
L 924.590254 314.24901 
L 935.807131 298.360676 
L 947.005393 282.880735 
L 959.093734 266.521012 
L 967.94287 254.904443 
L 976.028891 244.661374 
L 984.264844 234.608059 
L 993.992953 223.116501 
L 1004.091898 211.535687 
L 1014.930429 199.48106 
L 1025.156947 188.41747 
L 1033.914249 179.265787 
L 1041.923532 171.206287 
L 1049.696003 163.689122 
L 1058.317159 155.668709 
L 1066.868577 148.015381 
L 1075.603217 140.501119 
L 1084.410641 133.198774 
L 1091.460966 127.635153 
L 1097.311981 123.288109 
L 1102.819457 119.475335 
L 1108.442269 115.859454 
L 1114.733746 112.087442 
L 1124.423183 106.580328 
L 1133.526906 101.626839 
L 1140.64096 98.004059 
L 1146.556854 95.232402 
L 1151.725589 93.046468 
L 1156.372848 91.314269 
L 1160.680538 89.945127 
L 1164.568574 88.937922 
L 1168.079809 88.2474 
L 1171.357079 87.825881 
L 1174.315916 87.661009 
L 1177.083348 87.719384 
L 1179.771489 87.999101 
L 1182.289257 88.48497 
L 1184.741226 89.190148 
L 1187.221449 90.145489 
L 1189.902478 91.428827 
L 1192.851156 93.099192 
L 1196.370179 95.365867 
L 1203.417638 100.26658 
L 1207.009642 102.57637 
L 1210.043658 104.262845 
L 1212.775733 105.529048 
L 1215.228935 106.427271 
L 1217.488398 107.025309 
L 1219.630572 107.362916 
L 1221.59932 107.453328 
L 1223.466019 107.323885 
L 1225.296303 106.973628 
L 1227.032276 106.41824 
L 1228.736713 105.643274 
L 1230.525097 104.578661 
L 1232.392134 103.20653 
L 1234.442228 101.416213 
L 1236.71634 99.119574 
L 1239.301633 96.174356 
L 1242.473929 92.202626 
L 1251.759251 80.344444 
L 1254.807973 76.992791 
L 1257.760746 74.070054 
L 1260.706312 71.464256 
L 1263.642551 69.161747 
L 1266.645355 67.091291 
L 1269.743333 65.225567 
L 1272.997011 63.524353 
L 1276.141635 62.128715 
L 1279.218292 61.00637 
L 1282.2302 60.144815 
L 1285.180347 59.530151 
L 1288.133381 59.141198 
L 1291.116215 58.974224 
L 1294.094248 59.028757 
L 1297.008801 59.303961 
L 1299.835542 59.793678 
L 1302.606118 60.499054 
L 1305.322978 61.419261 
L 1308.013436 62.564888 
L 1310.701865 63.953763 
L 1313.362687 65.579431 
L 1316.042052 67.479198 
L 1318.736344 69.66351 
L 1321.485563 72.181853 
L 1324.28283 75.049573 
L 1327.142068 78.302886 
L 1330.075111 81.980127 
L 1333.110926 86.147463 
L 1336.274022 90.874514 
L 1339.620239 96.284852 
L 1343.24738 102.583907 
L 1347.317331 110.112601 
L 1352.379177 119.974022 
L 1366.510558 147.777542 
L 1371.07894 156.157587 
L 1374.823356 162.577921 
L 1378.021511 167.635203 
L 1380.838306 171.685601 
L 1383.4499 175.058713 
L 1385.881714 177.845783 
L 1388.166937 180.134751 
L 1390.314596 181.97835 
L 1392.342923 183.432275 
L 1394.258497 184.537679 
L 1396.086822 185.340269 
L 1397.832179 185.867786 
L 1399.517359 186.148303 
L 1400.044281 186.18873 
L 1400.044281 186.18873 
" clip-path="url(#p9ec1a11ccf)" style="fill: none; stroke-dasharray: 3.5,5.775; stroke-dashoffset: 0; stroke: #00c1d4; stroke-opacity: 0.67; stroke-width: 3.5"/>
   </g>
   <g id="text_21">
    <!-- B) -->
    <g transform="translate(730.954687 41.4609)scale(0.4 -0.4)">
     <use xlink:href="#DejaVuSans-42"/>
     <use xlink:href="#DejaVuSans-29" x="68.603516"/>
    </g>
   </g>
   <g id="line2d_81">
    <path d="M 816.929907 496.623437 
L 1400.044281 58.967151 
L 1400.044281 58.967151 
" clip-path="url(#p9ec1a11ccf)" style="fill: none; stroke-dasharray: 22.4,5.6,3.5,5.6; stroke-dashoffset: 0; stroke: #512d6d; stroke-opacity: 0.67; stroke-width: 3.5"/>
   </g>
   <g id="line2d_82">
    <path d="M 976.885789 294.271175 
L 1041.923532 158.669308 
L 1106.961275 74.1276 
L 1171.999018 62.584917 
L 1237.036761 121.481133 
L 1302.074504 247.114753 
" clip-path="url(#p9ec1a11ccf)" style="fill: none; stroke: #f8485e; stroke-width: 5; stroke-linecap: square"/>
    <defs>
     <path id="m30f705bb9a" d="M 0 6 
C 1.591219 6 3.117479 5.367802 4.242641 4.242641 
C 5.367802 3.117479 6 1.591219 6 0 
C 6 -1.591219 5.367802 -3.117479 4.242641 -4.242641 
C 3.117479 -5.367802 1.591219 -6 0 -6 
C -1.591219 -6 -3.117479 -5.367802 -4.242641 -4.242641 
C -5.367802 -3.117479 -6 -1.591219 -6 0 
C -6 1.591219 -5.367802 3.117479 -4.242641 4.242641 
C -3.117479 5.367802 -1.591219 6 0 6 
z
" style="stroke: #f8485e"/>
    </defs>
    <g clip-path="url(#p9ec1a11ccf)">
     <use xlink:href="#m30f705bb9a" x="976.885789" y="294.271175" style="fill: #ffffff; stroke: #f8485e"/>
     <use xlink:href="#m30f705bb9a" x="1041.923532" y="158.669308" style="fill: #ffffff; stroke: #f8485e"/>
     <use xlink:href="#m30f705bb9a" x="1106.961275" y="74.1276" style="fill: #ffffff; stroke: #f8485e"/>
     <use xlink:href="#m30f705bb9a" x="1171.999018" y="62.584917" style="fill: #ffffff; stroke: #f8485e"/>
     <use xlink:href="#m30f705bb9a" x="1237.036761" y="121.481133" style="fill: #ffffff; stroke: #f8485e"/>
     <use xlink:href="#m30f705bb9a" x="1302.074504" y="247.114753" style="fill: #ffffff; stroke: #f8485e"/>
    </g>
   </g>
   <g id="legend_2">
    <g id="patch_9">
     <path d="M 798.974188 161.330588 
L 1009.129188 161.330588 
Q 1012.329188 161.330588 1012.329188 158.130588 
L 1012.329188 65.790588 
Q 1012.329188 62.590588 1009.129188 62.590588 
L 798.974188 62.590588 
Q 795.774188 62.590588 795.774188 65.790588 
L 795.774188 158.130588 
Q 795.774188 161.330588 798.974188 161.330588 
z
" style="fill: #ffffff; opacity: 0.8; stroke: #cccccc; stroke-linejoin: miter"/>
    </g>
    <g id="line2d_83">
     <path d="M 802.174188 75.548088 
L 818.174188 75.548088 
L 834.174188 75.548088 
" style="fill: none; stroke-dasharray: 22.4,5.6,3.5,5.6; stroke-dashoffset: 0; stroke: #512d6d; stroke-opacity: 0.67; stroke-width: 3.5"/>
    </g>
    <g id="text_22">
     <!-- Pitch Height -->
     <g transform="translate(846.974188 81.148088)scale(0.16 -0.16)">
      <use xlink:href="#DejaVuSans-50"/>
      <use xlink:href="#DejaVuSans-69" x="58.052734"/>
      <use xlink:href="#DejaVuSans-74" x="85.835938"/>
      <use xlink:href="#DejaVuSans-63" x="125.044922"/>
      <use xlink:href="#DejaVuSans-68" x="180.025391"/>
      <use xlink:href="#DejaVuSans-20" x="243.404297"/>
      <use xlink:href="#DejaVuSans-48" x="275.191406"/>
      <use xlink:href="#DejaVuSans-65" x="350.386719"/>
      <use xlink:href="#DejaVuSans-69" x="411.910156"/>
      <use xlink:href="#DejaVuSans-67" x="439.693359"/>
      <use xlink:href="#DejaVuSans-68" x="503.169922"/>
      <use xlink:href="#DejaVuSans-74" x="566.548828"/>
     </g>
    </g>
    <g id="line2d_84">
     <path d="M 802.174188 99.033088 
L 818.174188 99.033088 
L 834.174188 99.033088 
" style="fill: none; stroke-dasharray: 3.5,5.775; stroke-dashoffset: 0; stroke: #00c1d4; stroke-opacity: 0.67; stroke-width: 3.5"/>
    </g>
    <g id="text_23">
     <!-- Cochlear Sensitivity -->
     <g transform="translate(846.974188 104.633088)scale(0.16 -0.16)">
      <use xlink:href="#DejaVuSans-43"/>
      <use xlink:href="#DejaVuSans-6f" x="69.824219"/>
      <use xlink:href="#DejaVuSans-63" x="131.005859"/>
      <use xlink:href="#DejaVuSans-68" x="185.986328"/>
      <use xlink:href="#DejaVuSans-6c" x="249.365234"/>
      <use xlink:href="#DejaVuSans-65" x="277.148438"/>
      <use xlink:href="#DejaVuSans-61" x="338.671875"/>
      <use xlink:href="#DejaVuSans-72" x="399.951172"/>
      <use xlink:href="#DejaVuSans-20" x="441.064453"/>
      <use xlink:href="#DejaVuSans-53" x="472.851562"/>
      <use xlink:href="#DejaVuSans-65" x="536.328125"/>
      <use xlink:href="#DejaVuSans-6e" x="597.851562"/>
      <use xlink:href="#DejaVuSans-73" x="661.230469"/>
      <use xlink:href="#DejaVuSans-69" x="713.330078"/>
      <use xlink:href="#DejaVuSans-74" x="741.113281"/>
      <use xlink:href="#DejaVuSans-69" x="780.322266"/>
      <use xlink:href="#DejaVuSans-76" x="808.105469"/>
      <use xlink:href="#DejaVuSans-69" x="867.285156"/>
      <use xlink:href="#DejaVuSans-74" x="895.068359"/>
      <use xlink:href="#DejaVuSans-79" x="934.277344"/>
     </g>
    </g>
    <g id="line2d_85">
     <path d="M 802.174188 122.518088 
L 818.174188 122.518088 
L 834.174188 122.518088 
" style="fill: none; stroke-dasharray: 12.95,5.6; stroke-dashoffset: 0; stroke: #f8485e; stroke-opacity: 0.67; stroke-width: 3.5"/>
    </g>
    <g id="text_24">
     <!-- Pitch Salience -->
     <g transform="translate(846.974188 128.118088)scale(0.16 -0.16)">
      <use xlink:href="#DejaVuSans-50"/>
      <use xlink:href="#DejaVuSans-69" x="58.052734"/>
      <use xlink:href="#DejaVuSans-74" x="85.835938"/>
      <use xlink:href="#DejaVuSans-63" x="125.044922"/>
      <use xlink:href="#DejaVuSans-68" x="180.025391"/>
      <use xlink:href="#DejaVuSans-20" x="243.404297"/>
      <use xlink:href="#DejaVuSans-53" x="275.191406"/>
      <use xlink:href="#DejaVuSans-61" x="338.667969"/>
      <use xlink:href="#DejaVuSans-6c" x="399.947266"/>
      <use xlink:href="#DejaVuSans-69" x="427.730469"/>
      <use xlink:href="#DejaVuSans-65" x="455.513672"/>
      <use xlink:href="#DejaVuSans-6e" x="517.037109"/>
      <use xlink:href="#DejaVuSans-63" x="580.416016"/>
      <use xlink:href="#DejaVuSans-65" x="635.396484"/>
     </g>
    </g>
    <g id="line2d_86">
     <path d="M 802.174188 146.003088 
L 818.174188 146.003088 
L 834.174188 146.003088 
" style="fill: none; stroke: #000000; stroke-width: 5; stroke-linecap: square"/>
     <defs>
      <path id="mc592f9f544" d="M 0 4.5 
C 1.193414 4.5 2.338109 4.025852 3.181981 3.181981 
C 4.025852 2.338109 4.5 1.193414 4.5 0 
C 4.5 -1.193414 4.025852 -2.338109 3.181981 -3.181981 
C 2.338109 -4.025852 1.193414 -4.5 0 -4.5 
C -1.193414 -4.5 -2.338109 -4.025852 -3.181981 -3.181981 
C -4.025852 -2.338109 -4.5 -1.193414 -4.5 0 
C -4.5 1.193414 -4.025852 2.338109 -3.181981 3.181981 
C -2.338109 4.025852 -1.193414 4.5 0 4.5 
z
" style="stroke: #000000"/>
     </defs>
     <g>
      <use xlink:href="#mc592f9f544" x="818.174188" y="146.003088" style="fill: #ffffff; stroke: #000000"/>
     </g>
    </g>
    <g id="text_25">
     <!-- Current Stimuli -->
     <g transform="translate(846.974188 151.603088)scale(0.16 -0.16)">
      <use xlink:href="#DejaVuSans-43"/>
      <use xlink:href="#DejaVuSans-75" x="69.824219"/>
      <use xlink:href="#DejaVuSans-72" x="133.203125"/>
      <use xlink:href="#DejaVuSans-72" x="172.566406"/>
      <use xlink:href="#DejaVuSans-65" x="211.429688"/>
      <use xlink:href="#DejaVuSans-6e" x="272.953125"/>
      <use xlink:href="#DejaVuSans-74" x="336.332031"/>
      <use xlink:href="#DejaVuSans-20" x="375.541016"/>
      <use xlink:href="#DejaVuSans-53" x="407.328125"/>
      <use xlink:href="#DejaVuSans-74" x="470.804688"/>
      <use xlink:href="#DejaVuSans-69" x="510.013672"/>
      <use xlink:href="#DejaVuSans-6d" x="537.796875"/>
      <use xlink:href="#DejaVuSans-75" x="635.208984"/>
      <use xlink:href="#DejaVuSans-6c" x="698.587891"/>
      <use xlink:href="#DejaVuSans-69" x="726.371094"/>
     </g>
    </g>
   </g>
   <g id="line2d_87">
    <path d="M 976.885789 243.598074 
L 1041.923532 171.206287 
L 1106.961275 116.786713 
L 1171.999018 87.77166 
L 1237.036761 98.772373 
L 1302.074504 60.345834 
" clip-path="url(#p9ec1a11ccf)" style="fill: none; stroke: #00c1d4; stroke-width: 5; stroke-linecap: square"/>
    <defs>
     <path id="m8022c783ba" d="M 0 6 
C 1.591219 6 3.117479 5.367802 4.242641 4.242641 
C 5.367802 3.117479 6 1.591219 6 0 
C 6 -1.591219 5.367802 -3.117479 4.242641 -4.242641 
C 3.117479 -5.367802 1.591219 -6 0 -6 
C -1.591219 -6 -3.117479 -5.367802 -4.242641 -4.242641 
C -5.367802 -3.117479 -6 -1.591219 -6 0 
C -6 1.591219 -5.367802 3.117479 -4.242641 4.242641 
C -3.117479 5.367802 -1.591219 6 0 6 
z
" style="stroke: #00c1d4"/>
    </defs>
    <g clip-path="url(#p9ec1a11ccf)">
     <use xlink:href="#m8022c783ba" x="976.885789" y="243.598074" style="fill: #ffffff; stroke: #00c1d4"/>
     <use xlink:href="#m8022c783ba" x="1041.923532" y="171.206287" style="fill: #ffffff; stroke: #00c1d4"/>
     <use xlink:href="#m8022c783ba" x="1106.961275" y="116.786713" style="fill: #ffffff; stroke: #00c1d4"/>
     <use xlink:href="#m8022c783ba" x="1171.999018" y="87.77166" style="fill: #ffffff; stroke: #00c1d4"/>
     <use xlink:href="#m8022c783ba" x="1237.036761" y="98.772373" style="fill: #ffffff; stroke: #00c1d4"/>
     <use xlink:href="#m8022c783ba" x="1302.074504" y="60.345834" style="fill: #ffffff; stroke: #00c1d4"/>
    </g>
   </g>
   <g id="line2d_88">
    <path d="M 976.885789 376.568607 
L 1041.923532 327.754552 
L 1106.961275 278.940497 
L 1171.999018 230.126443 
L 1237.036761 181.312388 
L 1302.074504 132.498333 
" clip-path="url(#p9ec1a11ccf)" style="fill: none; stroke: #512d6d; stroke-width: 5; stroke-linecap: square"/>
    <defs>
     <path id="m6fecd562fa" d="M 0 6 
C 1.591219 6 3.117479 5.367802 4.242641 4.242641 
C 5.367802 3.117479 6 1.591219 6 0 
C 6 -1.591219 5.367802 -3.117479 4.242641 -4.242641 
C 3.117479 -5.367802 1.591219 -6 0 -6 
C -1.591219 -6 -3.117479 -5.367802 -4.242641 -4.242641 
C -5.367802 -3.117479 -6 -1.591219 -6 0 
C -6 1.591219 -5.367802 3.117479 -4.242641 4.242641 
C -3.117479 5.367802 -1.591219 6 0 6 
z
" style="stroke: #512d6d"/>
    </defs>
    <g clip-path="url(#p9ec1a11ccf)">
     <use xlink:href="#m6fecd562fa" x="976.885789" y="376.568607" style="fill: #ffffff; stroke: #512d6d"/>
     <use xlink:href="#m6fecd562fa" x="1041.923532" y="327.754552" style="fill: #ffffff; stroke: #512d6d"/>
     <use xlink:href="#m6fecd562fa" x="1106.961275" y="278.940497" style="fill: #ffffff; stroke: #512d6d"/>
     <use xlink:href="#m6fecd562fa" x="1171.999018" y="230.126443" style="fill: #ffffff; stroke: #512d6d"/>
     <use xlink:href="#m6fecd562fa" x="1237.036761" y="181.312388" style="fill: #ffffff; stroke: #512d6d"/>
     <use xlink:href="#m6fecd562fa" x="1302.074504" y="132.498333" style="fill: #ffffff; stroke: #512d6d"/>
    </g>
   </g>
  </g>
 </g>
 <defs>
  <clipPath id="p7f47e49989">
   <rect x="90.612575" y="54.590588" width="641.425812" height="446.409412"/>
  </clipPath>
  <clipPath id="p9ec1a11ccf">
   <rect x="787.774188" y="54.590588" width="641.425812" height="446.409412"/>
  </clipPath>
 </defs>
</svg>
