<?xml version="1.0" encoding="utf-8" standalone="no"?>
<!DOCTYPE svg PUBLIC "-//W3C//DTD SVG 1.1//EN"
  "http://www.w3.org/Graphics/SVG/1.1/DTD/svg11.dtd">
<svg xmlns:xlink="http://www.w3.org/1999/xlink" width="1008pt" height="576pt" viewBox="0 0 1008 576" xmlns="http://www.w3.org/2000/svg" version="1.1">
 <metadata>
  <rdf:RDF xmlns:dc="http://purl.org/dc/elements/1.1/" xmlns:cc="http://creativecommons.org/ns#" xmlns:rdf="http://www.w3.org/1999/02/22-rdf-syntax-ns#">
   <cc:Work>
    <dc:type rdf:resource="http://purl.org/dc/dcmitype/StillImage"/>
    <dc:date>2023-07-27T19:10:50.113990</dc:date>
    <dc:format>image/svg+xml</dc:format>
    <dc:creator>
     <cc:Agent>
      <dc:title>Matplotlib v3.5.1, https://matplotlib.org/</dc:title>
     </cc:Agent>
    </dc:creator>
   </cc:Work>
  </rdf:RDF>
 </metadata>
 <defs>
  <style type="text/css">*{stroke-linejoin: round; stroke-linecap: butt}</style>
 </defs>
 <g id="figure_1">
  <g id="patch_1">
   <path d="M 0 576 
L 1008 576 
L 1008 0 
L 0 0 
L 0 576 
z
" style="fill: none"/>
  </g>
  <g id="axes_1">
   <g id="patch_2">
    <path d="M 84.321484 476.6 
L 584.648134 476.6 
L 584.648134 19.8 
L 84.321484 19.8 
z
" style="fill: #ffffff"/>
   </g>
   <g id="line2d_1">
    <path d="M 84.321484 248.2 
L 584.648134 248.2 
" clip-path="url(#p00bd0f2b20)" style="fill: none; stroke-dasharray: 5.55,2.4; stroke-dashoffset: 0; stroke: #000000; stroke-opacity: 0.5; stroke-width: 1.5"/>
   </g>
   <g id="line2d_2">
    <path d="M 107.063605 397.741218 
L 196.248391 232.785915 
L 285.433177 127.431145 
L 374.617963 179.285637 
L 463.802749 233.045387 
L 552.987535 321.154964 
" clip-path="url(#p00bd0f2b20)" style="fill: none; stroke: #002c6a; stroke-width: 3; stroke-linecap: square"/>
   </g>
   <g id="LineCollection_1">
    <path d="M 107.063605 460.661925 
L 107.063605 333.959947 
" clip-path="url(#p00bd0f2b20)" style="fill: none; stroke: #002c6a; stroke-width: 3; stroke-linecap: square"/>
    <path d="M 196.248391 297.27928 
L 196.248391 168.346608 
" clip-path="url(#p00bd0f2b20)" style="fill: none; stroke: #002c6a; stroke-width: 3; stroke-linecap: square"/>
    <path d="M 285.433177 191.407772 
L 285.433177 60.722604 
" clip-path="url(#p00bd0f2b20)" style="fill: none; stroke: #002c6a; stroke-width: 3; stroke-linecap: square"/>
    <path d="M 374.617963 237.835442 
L 374.617963 120.603795 
" clip-path="url(#p00bd0f2b20)" style="fill: none; stroke: #002c6a; stroke-width: 3; stroke-linecap: square"/>
    <path d="M 463.802749 296.635056 
L 463.802749 170.934129 
" clip-path="url(#p00bd0f2b20)" style="fill: none; stroke: #002c6a; stroke-width: 3; stroke-linecap: square"/>
    <path d="M 552.987535 385.695075 
L 552.987535 260.854594 
" clip-path="url(#p00bd0f2b20)" style="fill: none; stroke: #002c6a; stroke-width: 3; stroke-linecap: square"/>
   </g>
   <g id="line2d_3">
    <defs>
     <path id="mf3b4f57322" d="M 6 0 
L -6 -0 
" style="stroke: #002c6a; stroke-width: 3"/>
    </defs>
    <g clip-path="url(#p00bd0f2b20)">
     <use xlink:href="#mf3b4f57322" x="107.063605" y="460.661925" style="fill: #002c6a; stroke: #002c6a; stroke-width: 3"/>
     <use xlink:href="#mf3b4f57322" x="196.248391" y="297.27928" style="fill: #002c6a; stroke: #002c6a; stroke-width: 3"/>
     <use xlink:href="#mf3b4f57322" x="285.433177" y="191.407772" style="fill: #002c6a; stroke: #002c6a; stroke-width: 3"/>
     <use xlink:href="#mf3b4f57322" x="374.617963" y="237.835442" style="fill: #002c6a; stroke: #002c6a; stroke-width: 3"/>
     <use xlink:href="#mf3b4f57322" x="463.802749" y="296.635056" style="fill: #002c6a; stroke: #002c6a; stroke-width: 3"/>
     <use xlink:href="#mf3b4f57322" x="552.987535" y="385.695075" style="fill: #002c6a; stroke: #002c6a; stroke-width: 3"/>
    </g>
   </g>
   <g id="line2d_4">
    <g clip-path="url(#p00bd0f2b20)">
     <use xlink:href="#mf3b4f57322" x="107.063605" y="333.959947" style="fill: #002c6a; stroke: #002c6a; stroke-width: 3"/>
     <use xlink:href="#mf3b4f57322" x="196.248391" y="168.346608" style="fill: #002c6a; stroke: #002c6a; stroke-width: 3"/>
     <use xlink:href="#mf3b4f57322" x="285.433177" y="60.722604" style="fill: #002c6a; stroke: #002c6a; stroke-width: 3"/>
     <use xlink:href="#mf3b4f57322" x="374.617963" y="120.603795" style="fill: #002c6a; stroke: #002c6a; stroke-width: 3"/>
     <use xlink:href="#mf3b4f57322" x="463.802749" y="170.934129" style="fill: #002c6a; stroke: #002c6a; stroke-width: 3"/>
     <use xlink:href="#mf3b4f57322" x="552.987535" y="260.854594" style="fill: #002c6a; stroke: #002c6a; stroke-width: 3"/>
    </g>
   </g>
   <g id="line2d_5"/>
   <g id="matplotlib.axis_1">
    <g id="xtick_1">
     <g id="line2d_6">
      <defs>
       <path id="ma21d8f6afe" d="M 0 0 
L 0 3.5 
" style="stroke: #000000; stroke-width: 0.8"/>
      </defs>
      <g>
       <use xlink:href="#ma21d8f6afe" x="111.522844" y="476.6" style="stroke: #000000; stroke-width: 0.8"/>
      </g>
     </g>
     <g id="text_1">
      <!-- A2 -->
      <g transform="translate(96.33925 501.076406)scale(0.23 -0.23)">
       <defs>
        <path id="DejaVuSans-41" d="M 2188 4044 
L 1331 1722 
L 3047 1722 
L 2188 4044 
z
M 1831 4666 
L 2547 4666 
L 4325 0 
L 3669 0 
L 3244 1197 
L 1141 1197 
L 716 0 
L 50 0 
L 1831 4666 
z
" transform="scale(0.015625)"/>
        <path id="DejaVuSans-32" d="M 1228 531 
L 3431 531 
L 3431 0 
L 469 0 
L 469 531 
Q 828 903 1448 1529 
Q 2069 2156 2228 2338 
Q 2531 2678 2651 2914 
Q 2772 3150 2772 3378 
Q 2772 3750 2511 3984 
Q 2250 4219 1831 4219 
Q 1534 4219 1204 4116 
Q 875 4013 500 3803 
L 500 4441 
Q 881 4594 1212 4672 
Q 1544 4750 1819 4750 
Q 2544 4750 2975 4387 
Q 3406 4025 3406 3419 
Q 3406 3131 3298 2873 
Q 3191 2616 2906 2266 
Q 2828 2175 2409 1742 
Q 1991 1309 1228 531 
z
" transform="scale(0.015625)"/>
       </defs>
       <use xlink:href="#DejaVuSans-41"/>
       <use xlink:href="#DejaVuSans-32" x="68.408203"/>
      </g>
      <!-- (110) -->
      <g transform="translate(80.598625 526.831375)scale(0.23 -0.23)">
       <defs>
        <path id="DejaVuSans-28" d="M 1984 4856 
Q 1566 4138 1362 3434 
Q 1159 2731 1159 2009 
Q 1159 1288 1364 580 
Q 1569 -128 1984 -844 
L 1484 -844 
Q 1016 -109 783 600 
Q 550 1309 550 2009 
Q 550 2706 781 3412 
Q 1013 4119 1484 4856 
L 1984 4856 
z
" transform="scale(0.015625)"/>
        <path id="DejaVuSans-31" d="M 794 531 
L 1825 531 
L 1825 4091 
L 703 3866 
L 703 4441 
L 1819 4666 
L 2450 4666 
L 2450 531 
L 3481 531 
L 3481 0 
L 794 0 
L 794 531 
z
" transform="scale(0.015625)"/>
        <path id="DejaVuSans-30" d="M 2034 4250 
Q 1547 4250 1301 3770 
Q 1056 3291 1056 2328 
Q 1056 1369 1301 889 
Q 1547 409 2034 409 
Q 2525 409 2770 889 
Q 3016 1369 3016 2328 
Q 3016 3291 2770 3770 
Q 2525 4250 2034 4250 
z
M 2034 4750 
Q 2819 4750 3233 4129 
Q 3647 3509 3647 2328 
Q 3647 1150 3233 529 
Q 2819 -91 2034 -91 
Q 1250 -91 836 529 
Q 422 1150 422 2328 
Q 422 3509 836 4129 
Q 1250 4750 2034 4750 
z
" transform="scale(0.015625)"/>
        <path id="DejaVuSans-29" d="M 513 4856 
L 1013 4856 
Q 1481 4119 1714 3412 
Q 1947 2706 1947 2009 
Q 1947 1309 1714 600 
Q 1481 -109 1013 -844 
L 513 -844 
Q 928 -128 1133 580 
Q 1338 1288 1338 2009 
Q 1338 2731 1133 3434 
Q 928 4138 513 4856 
z
" transform="scale(0.015625)"/>
       </defs>
       <use xlink:href="#DejaVuSans-28"/>
       <use xlink:href="#DejaVuSans-31" x="39.013672"/>
       <use xlink:href="#DejaVuSans-31" x="102.636719"/>
       <use xlink:href="#DejaVuSans-30" x="166.259766"/>
       <use xlink:href="#DejaVuSans-29" x="229.882812"/>
      </g>
     </g>
    </g>
    <g id="xtick_2">
     <g id="line2d_7">
      <g>
       <use xlink:href="#ma21d8f6afe" x="200.70763" y="476.6" style="stroke: #000000; stroke-width: 0.8"/>
      </g>
     </g>
     <g id="text_2">
      <!-- A3 -->
      <g transform="translate(185.524036 501.076406)scale(0.23 -0.23)">
       <defs>
        <path id="DejaVuSans-33" d="M 2597 2516 
Q 3050 2419 3304 2112 
Q 3559 1806 3559 1356 
Q 3559 666 3084 287 
Q 2609 -91 1734 -91 
Q 1441 -91 1130 -33 
Q 819 25 488 141 
L 488 750 
Q 750 597 1062 519 
Q 1375 441 1716 441 
Q 2309 441 2620 675 
Q 2931 909 2931 1356 
Q 2931 1769 2642 2001 
Q 2353 2234 1838 2234 
L 1294 2234 
L 1294 2753 
L 1863 2753 
Q 2328 2753 2575 2939 
Q 2822 3125 2822 3475 
Q 2822 3834 2567 4026 
Q 2313 4219 1838 4219 
Q 1578 4219 1281 4162 
Q 984 4106 628 3988 
L 628 4550 
Q 988 4650 1302 4700 
Q 1616 4750 1894 4750 
Q 2613 4750 3031 4423 
Q 3450 4097 3450 3541 
Q 3450 3153 3228 2886 
Q 3006 2619 2597 2516 
z
" transform="scale(0.015625)"/>
       </defs>
       <use xlink:href="#DejaVuSans-41"/>
       <use xlink:href="#DejaVuSans-33" x="68.408203"/>
      </g>
      <!-- (220) -->
      <g transform="translate(169.783411 526.831375)scale(0.23 -0.23)">
       <use xlink:href="#DejaVuSans-28"/>
       <use xlink:href="#DejaVuSans-32" x="39.013672"/>
       <use xlink:href="#DejaVuSans-32" x="102.636719"/>
       <use xlink:href="#DejaVuSans-30" x="166.259766"/>
       <use xlink:href="#DejaVuSans-29" x="229.882812"/>
      </g>
     </g>
    </g>
    <g id="xtick_3">
     <g id="line2d_8">
      <g>
       <use xlink:href="#ma21d8f6afe" x="289.892416" y="476.6" style="stroke: #000000; stroke-width: 0.8"/>
      </g>
     </g>
     <g id="text_3">
      <!-- A4 -->
      <g transform="translate(274.708822 501.076406)scale(0.23 -0.23)">
       <defs>
        <path id="DejaVuSans-34" d="M 2419 4116 
L 825 1625 
L 2419 1625 
L 2419 4116 
z
M 2253 4666 
L 3047 4666 
L 3047 1625 
L 3713 1625 
L 3713 1100 
L 3047 1100 
L 3047 0 
L 2419 0 
L 2419 1100 
L 313 1100 
L 313 1709 
L 2253 4666 
z
" transform="scale(0.015625)"/>
       </defs>
       <use xlink:href="#DejaVuSans-41"/>
       <use xlink:href="#DejaVuSans-34" x="68.408203"/>
      </g>
      <!-- (440) -->
      <g transform="translate(258.968197 526.831375)scale(0.23 -0.23)">
       <use xlink:href="#DejaVuSans-28"/>
       <use xlink:href="#DejaVuSans-34" x="39.013672"/>
       <use xlink:href="#DejaVuSans-34" x="102.636719"/>
       <use xlink:href="#DejaVuSans-30" x="166.259766"/>
       <use xlink:href="#DejaVuSans-29" x="229.882812"/>
      </g>
     </g>
    </g>
    <g id="xtick_4">
     <g id="line2d_9">
      <g>
       <use xlink:href="#ma21d8f6afe" x="379.077202" y="476.6" style="stroke: #000000; stroke-width: 0.8"/>
      </g>
     </g>
     <g id="text_4">
      <!-- A5 -->
      <g transform="translate(363.893608 501.076406)scale(0.23 -0.23)">
       <defs>
        <path id="DejaVuSans-35" d="M 691 4666 
L 3169 4666 
L 3169 4134 
L 1269 4134 
L 1269 2991 
Q 1406 3038 1543 3061 
Q 1681 3084 1819 3084 
Q 2600 3084 3056 2656 
Q 3513 2228 3513 1497 
Q 3513 744 3044 326 
Q 2575 -91 1722 -91 
Q 1428 -91 1123 -41 
Q 819 9 494 109 
L 494 744 
Q 775 591 1075 516 
Q 1375 441 1709 441 
Q 2250 441 2565 725 
Q 2881 1009 2881 1497 
Q 2881 1984 2565 2268 
Q 2250 2553 1709 2553 
Q 1456 2553 1204 2497 
Q 953 2441 691 2322 
L 691 4666 
z
" transform="scale(0.015625)"/>
       </defs>
       <use xlink:href="#DejaVuSans-41"/>
       <use xlink:href="#DejaVuSans-35" x="68.408203"/>
      </g>
      <!-- (880) -->
      <g transform="translate(348.152983 526.831375)scale(0.23 -0.23)">
       <defs>
        <path id="DejaVuSans-38" d="M 2034 2216 
Q 1584 2216 1326 1975 
Q 1069 1734 1069 1313 
Q 1069 891 1326 650 
Q 1584 409 2034 409 
Q 2484 409 2743 651 
Q 3003 894 3003 1313 
Q 3003 1734 2745 1975 
Q 2488 2216 2034 2216 
z
M 1403 2484 
Q 997 2584 770 2862 
Q 544 3141 544 3541 
Q 544 4100 942 4425 
Q 1341 4750 2034 4750 
Q 2731 4750 3128 4425 
Q 3525 4100 3525 3541 
Q 3525 3141 3298 2862 
Q 3072 2584 2669 2484 
Q 3125 2378 3379 2068 
Q 3634 1759 3634 1313 
Q 3634 634 3220 271 
Q 2806 -91 2034 -91 
Q 1263 -91 848 271 
Q 434 634 434 1313 
Q 434 1759 690 2068 
Q 947 2378 1403 2484 
z
M 1172 3481 
Q 1172 3119 1398 2916 
Q 1625 2713 2034 2713 
Q 2441 2713 2670 2916 
Q 2900 3119 2900 3481 
Q 2900 3844 2670 4047 
Q 2441 4250 2034 4250 
Q 1625 4250 1398 4047 
Q 1172 3844 1172 3481 
z
" transform="scale(0.015625)"/>
       </defs>
       <use xlink:href="#DejaVuSans-28"/>
       <use xlink:href="#DejaVuSans-38" x="39.013672"/>
       <use xlink:href="#DejaVuSans-38" x="102.636719"/>
       <use xlink:href="#DejaVuSans-30" x="166.259766"/>
       <use xlink:href="#DejaVuSans-29" x="229.882812"/>
      </g>
     </g>
    </g>
    <g id="xtick_5">
     <g id="line2d_10">
      <g>
       <use xlink:href="#ma21d8f6afe" x="468.261988" y="476.6" style="stroke: #000000; stroke-width: 0.8"/>
      </g>
     </g>
     <g id="text_5">
      <!-- A6 -->
      <g transform="translate(453.078394 501.076406)scale(0.23 -0.23)">
       <defs>
        <path id="DejaVuSans-36" d="M 2113 2584 
Q 1688 2584 1439 2293 
Q 1191 2003 1191 1497 
Q 1191 994 1439 701 
Q 1688 409 2113 409 
Q 2538 409 2786 701 
Q 3034 994 3034 1497 
Q 3034 2003 2786 2293 
Q 2538 2584 2113 2584 
z
M 3366 4563 
L 3366 3988 
Q 3128 4100 2886 4159 
Q 2644 4219 2406 4219 
Q 1781 4219 1451 3797 
Q 1122 3375 1075 2522 
Q 1259 2794 1537 2939 
Q 1816 3084 2150 3084 
Q 2853 3084 3261 2657 
Q 3669 2231 3669 1497 
Q 3669 778 3244 343 
Q 2819 -91 2113 -91 
Q 1303 -91 875 529 
Q 447 1150 447 2328 
Q 447 3434 972 4092 
Q 1497 4750 2381 4750 
Q 2619 4750 2861 4703 
Q 3103 4656 3366 4563 
z
" transform="scale(0.015625)"/>
       </defs>
       <use xlink:href="#DejaVuSans-41"/>
       <use xlink:href="#DejaVuSans-36" x="68.408203"/>
      </g>
      <!-- (1760) -->
      <g transform="translate(430.020894 526.831375)scale(0.23 -0.23)">
       <defs>
        <path id="DejaVuSans-37" d="M 525 4666 
L 3525 4666 
L 3525 4397 
L 1831 0 
L 1172 0 
L 2766 4134 
L 525 4134 
L 525 4666 
z
" transform="scale(0.015625)"/>
       </defs>
       <use xlink:href="#DejaVuSans-28"/>
       <use xlink:href="#DejaVuSans-31" x="39.013672"/>
       <use xlink:href="#DejaVuSans-37" x="102.636719"/>
       <use xlink:href="#DejaVuSans-36" x="166.259766"/>
       <use xlink:href="#DejaVuSans-30" x="229.882812"/>
       <use xlink:href="#DejaVuSans-29" x="293.505859"/>
      </g>
     </g>
    </g>
    <g id="xtick_6">
     <g id="line2d_11">
      <g>
       <use xlink:href="#ma21d8f6afe" x="557.446774" y="476.6" style="stroke: #000000; stroke-width: 0.8"/>
      </g>
     </g>
     <g id="text_6">
      <!-- A7 -->
      <g transform="translate(542.26318 501.076406)scale(0.23 -0.23)">
       <use xlink:href="#DejaVuSans-41"/>
       <use xlink:href="#DejaVuSans-37" x="68.408203"/>
      </g>
      <!-- (3560) -->
      <g transform="translate(519.20568 526.831375)scale(0.23 -0.23)">
       <use xlink:href="#DejaVuSans-28"/>
       <use xlink:href="#DejaVuSans-33" x="39.013672"/>
       <use xlink:href="#DejaVuSans-35" x="102.636719"/>
       <use xlink:href="#DejaVuSans-36" x="166.259766"/>
       <use xlink:href="#DejaVuSans-30" x="229.882812"/>
       <use xlink:href="#DejaVuSans-29" x="293.505859"/>
      </g>
     </g>
    </g>
    <g id="text_7">
     <!-- Pitch (Hz) -->
     <g transform="translate(267.160122 556.890281)scale(0.28 -0.28)">
      <defs>
       <path id="DejaVuSans-50" d="M 1259 4147 
L 1259 2394 
L 2053 2394 
Q 2494 2394 2734 2622 
Q 2975 2850 2975 3272 
Q 2975 3691 2734 3919 
Q 2494 4147 2053 4147 
L 1259 4147 
z
M 628 4666 
L 2053 4666 
Q 2838 4666 3239 4311 
Q 3641 3956 3641 3272 
Q 3641 2581 3239 2228 
Q 2838 1875 2053 1875 
L 1259 1875 
L 1259 0 
L 628 0 
L 628 4666 
z
" transform="scale(0.015625)"/>
       <path id="DejaVuSans-69" d="M 603 3500 
L 1178 3500 
L 1178 0 
L 603 0 
L 603 3500 
z
M 603 4863 
L 1178 4863 
L 1178 4134 
L 603 4134 
L 603 4863 
z
" transform="scale(0.015625)"/>
       <path id="DejaVuSans-74" d="M 1172 4494 
L 1172 3500 
L 2356 3500 
L 2356 3053 
L 1172 3053 
L 1172 1153 
Q 1172 725 1289 603 
Q 1406 481 1766 481 
L 2356 481 
L 2356 0 
L 1766 0 
Q 1100 0 847 248 
Q 594 497 594 1153 
L 594 3053 
L 172 3053 
L 172 3500 
L 594 3500 
L 594 4494 
L 1172 4494 
z
" transform="scale(0.015625)"/>
       <path id="DejaVuSans-63" d="M 3122 3366 
L 3122 2828 
Q 2878 2963 2633 3030 
Q 2388 3097 2138 3097 
Q 1578 3097 1268 2742 
Q 959 2388 959 1747 
Q 959 1106 1268 751 
Q 1578 397 2138 397 
Q 2388 397 2633 464 
Q 2878 531 3122 666 
L 3122 134 
Q 2881 22 2623 -34 
Q 2366 -91 2075 -91 
Q 1284 -91 818 406 
Q 353 903 353 1747 
Q 353 2603 823 3093 
Q 1294 3584 2113 3584 
Q 2378 3584 2631 3529 
Q 2884 3475 3122 3366 
z
" transform="scale(0.015625)"/>
       <path id="DejaVuSans-68" d="M 3513 2113 
L 3513 0 
L 2938 0 
L 2938 2094 
Q 2938 2591 2744 2837 
Q 2550 3084 2163 3084 
Q 1697 3084 1428 2787 
Q 1159 2491 1159 1978 
L 1159 0 
L 581 0 
L 581 4863 
L 1159 4863 
L 1159 2956 
Q 1366 3272 1645 3428 
Q 1925 3584 2291 3584 
Q 2894 3584 3203 3211 
Q 3513 2838 3513 2113 
z
" transform="scale(0.015625)"/>
       <path id="DejaVuSans-20" transform="scale(0.015625)"/>
       <path id="DejaVuSans-48" d="M 628 4666 
L 1259 4666 
L 1259 2753 
L 3553 2753 
L 3553 4666 
L 4184 4666 
L 4184 0 
L 3553 0 
L 3553 2222 
L 1259 2222 
L 1259 0 
L 628 0 
L 628 4666 
z
" transform="scale(0.015625)"/>
       <path id="DejaVuSans-7a" d="M 353 3500 
L 3084 3500 
L 3084 2975 
L 922 459 
L 3084 459 
L 3084 0 
L 275 0 
L 275 525 
L 2438 3041 
L 353 3041 
L 353 3500 
z
" transform="scale(0.015625)"/>
      </defs>
      <use xlink:href="#DejaVuSans-50"/>
      <use xlink:href="#DejaVuSans-69" x="58.052734"/>
      <use xlink:href="#DejaVuSans-74" x="85.835938"/>
      <use xlink:href="#DejaVuSans-63" x="125.044922"/>
      <use xlink:href="#DejaVuSans-68" x="180.025391"/>
      <use xlink:href="#DejaVuSans-20" x="243.404297"/>
      <use xlink:href="#DejaVuSans-28" x="275.191406"/>
      <use xlink:href="#DejaVuSans-48" x="314.205078"/>
      <use xlink:href="#DejaVuSans-7a" x="389.400391"/>
      <use xlink:href="#DejaVuSans-29" x="441.890625"/>
     </g>
    </g>
   </g>
   <g id="matplotlib.axis_2">
    <g id="ytick_1">
     <g id="line2d_12">
      <defs>
       <path id="m55fd10537d" d="M 0 0 
L -3.5 0 
" style="stroke: #000000; stroke-width: 0.8"/>
      </defs>
      <g>
       <use xlink:href="#m55fd10537d" x="84.321484" y="451.222222" style="stroke: #000000; stroke-width: 0.8"/>
      </g>
     </g>
     <g id="text_8">
      <!-- $-4$ -->
      <g transform="translate(43.281484 459.960425)scale(0.23 -0.23)">
       <defs>
        <path id="DejaVuSans-2212" d="M 678 2272 
L 4684 2272 
L 4684 1741 
L 678 1741 
L 678 2272 
z
" transform="scale(0.015625)"/>
       </defs>
       <use xlink:href="#DejaVuSans-2212" transform="translate(0 0.09375)"/>
       <use xlink:href="#DejaVuSans-34" transform="translate(83.789062 0.09375)"/>
      </g>
     </g>
    </g>
    <g id="ytick_2">
     <g id="line2d_13">
      <g>
       <use xlink:href="#m55fd10537d" x="84.321484" y="400.466667" style="stroke: #000000; stroke-width: 0.8"/>
      </g>
     </g>
     <g id="text_9">
      <!-- $-3$ -->
      <g transform="translate(43.281484 409.20487)scale(0.23 -0.23)">
       <use xlink:href="#DejaVuSans-2212" transform="translate(0 0.78125)"/>
       <use xlink:href="#DejaVuSans-33" transform="translate(83.789062 0.78125)"/>
      </g>
     </g>
    </g>
    <g id="ytick_3">
     <g id="line2d_14">
      <g>
       <use xlink:href="#m55fd10537d" x="84.321484" y="349.711111" style="stroke: #000000; stroke-width: 0.8"/>
      </g>
     </g>
     <g id="text_10">
      <!-- $-2$ -->
      <g transform="translate(43.281484 358.449314)scale(0.23 -0.23)">
       <use xlink:href="#DejaVuSans-2212" transform="translate(0 0.78125)"/>
       <use xlink:href="#DejaVuSans-32" transform="translate(83.789062 0.78125)"/>
      </g>
     </g>
    </g>
    <g id="ytick_4">
     <g id="line2d_15">
      <g>
       <use xlink:href="#m55fd10537d" x="84.321484" y="298.955556" style="stroke: #000000; stroke-width: 0.8"/>
      </g>
     </g>
     <g id="text_11">
      <!-- $-1$ -->
      <g transform="translate(43.281484 307.693759)scale(0.23 -0.23)">
       <use xlink:href="#DejaVuSans-2212" transform="translate(0 0.09375)"/>
       <use xlink:href="#DejaVuSans-31" transform="translate(83.789062 0.09375)"/>
      </g>
     </g>
    </g>
    <g id="ytick_5">
     <g id="line2d_16">
      <g>
       <use xlink:href="#m55fd10537d" x="84.321484" y="248.2" style="stroke: #000000; stroke-width: 0.8"/>
      </g>
     </g>
     <g id="text_12">
      <!-- $0$ -->
      <g transform="translate(62.601484 256.938203)scale(0.23 -0.23)">
       <use xlink:href="#DejaVuSans-30" transform="translate(0 0.78125)"/>
      </g>
     </g>
    </g>
    <g id="ytick_6">
     <g id="line2d_17">
      <g>
       <use xlink:href="#m55fd10537d" x="84.321484" y="197.444444" style="stroke: #000000; stroke-width: 0.8"/>
      </g>
     </g>
     <g id="text_13">
      <!-- $+1$ -->
      <g transform="translate(43.281484 206.182648)scale(0.23 -0.23)">
       <defs>
        <path id="DejaVuSans-2b" d="M 2944 4013 
L 2944 2272 
L 4684 2272 
L 4684 1741 
L 2944 1741 
L 2944 0 
L 2419 0 
L 2419 1741 
L 678 1741 
L 678 2272 
L 2419 2272 
L 2419 4013 
L 2944 4013 
z
" transform="scale(0.015625)"/>
       </defs>
       <use xlink:href="#DejaVuSans-2b" transform="translate(0 0.09375)"/>
       <use xlink:href="#DejaVuSans-31" transform="translate(83.789062 0.09375)"/>
      </g>
     </g>
    </g>
    <g id="ytick_7">
     <g id="line2d_18">
      <g>
       <use xlink:href="#m55fd10537d" x="84.321484" y="146.688889" style="stroke: #000000; stroke-width: 0.8"/>
      </g>
     </g>
     <g id="text_14">
      <!-- $+2$ -->
      <g transform="translate(43.281484 155.427092)scale(0.23 -0.23)">
       <use xlink:href="#DejaVuSans-2b" transform="translate(0 0.78125)"/>
       <use xlink:href="#DejaVuSans-32" transform="translate(83.789062 0.78125)"/>
      </g>
     </g>
    </g>
    <g id="ytick_8">
     <g id="line2d_19">
      <g>
       <use xlink:href="#m55fd10537d" x="84.321484" y="95.933333" style="stroke: #000000; stroke-width: 0.8"/>
      </g>
     </g>
     <g id="text_15">
      <!-- $+3$ -->
      <g transform="translate(43.281484 104.671536)scale(0.23 -0.23)">
       <use xlink:href="#DejaVuSans-2b" transform="translate(0 0.78125)"/>
       <use xlink:href="#DejaVuSans-33" transform="translate(83.789062 0.78125)"/>
      </g>
     </g>
    </g>
    <g id="ytick_9">
     <g id="line2d_20">
      <g>
       <use xlink:href="#m55fd10537d" x="84.321484" y="45.177778" style="stroke: #000000; stroke-width: 0.8"/>
      </g>
     </g>
     <g id="text_16">
      <!-- $+4$ -->
      <g transform="translate(43.281484 53.915981)scale(0.23 -0.23)">
       <use xlink:href="#DejaVuSans-2b" transform="translate(0 0.09375)"/>
       <use xlink:href="#DejaVuSans-34" transform="translate(83.789062 0.09375)"/>
      </g>
     </g>
    </g>
    <g id="text_17">
     <!-- Illusory Tempo (%) -->
     <g transform="translate(33.458359 377.88375)rotate(-90)scale(0.28 -0.28)">
      <defs>
       <path id="DejaVuSans-49" d="M 628 4666 
L 1259 4666 
L 1259 0 
L 628 0 
L 628 4666 
z
" transform="scale(0.015625)"/>
       <path id="DejaVuSans-6c" d="M 603 4863 
L 1178 4863 
L 1178 0 
L 603 0 
L 603 4863 
z
" transform="scale(0.015625)"/>
       <path id="DejaVuSans-75" d="M 544 1381 
L 544 3500 
L 1119 3500 
L 1119 1403 
Q 1119 906 1312 657 
Q 1506 409 1894 409 
Q 2359 409 2629 706 
Q 2900 1003 2900 1516 
L 2900 3500 
L 3475 3500 
L 3475 0 
L 2900 0 
L 2900 538 
Q 2691 219 2414 64 
Q 2138 -91 1772 -91 
Q 1169 -91 856 284 
Q 544 659 544 1381 
z
M 1991 3584 
L 1991 3584 
z
" transform="scale(0.015625)"/>
       <path id="DejaVuSans-73" d="M 2834 3397 
L 2834 2853 
Q 2591 2978 2328 3040 
Q 2066 3103 1784 3103 
Q 1356 3103 1142 2972 
Q 928 2841 928 2578 
Q 928 2378 1081 2264 
Q 1234 2150 1697 2047 
L 1894 2003 
Q 2506 1872 2764 1633 
Q 3022 1394 3022 966 
Q 3022 478 2636 193 
Q 2250 -91 1575 -91 
Q 1294 -91 989 -36 
Q 684 19 347 128 
L 347 722 
Q 666 556 975 473 
Q 1284 391 1588 391 
Q 1994 391 2212 530 
Q 2431 669 2431 922 
Q 2431 1156 2273 1281 
Q 2116 1406 1581 1522 
L 1381 1569 
Q 847 1681 609 1914 
Q 372 2147 372 2553 
Q 372 3047 722 3315 
Q 1072 3584 1716 3584 
Q 2034 3584 2315 3537 
Q 2597 3491 2834 3397 
z
" transform="scale(0.015625)"/>
       <path id="DejaVuSans-6f" d="M 1959 3097 
Q 1497 3097 1228 2736 
Q 959 2375 959 1747 
Q 959 1119 1226 758 
Q 1494 397 1959 397 
Q 2419 397 2687 759 
Q 2956 1122 2956 1747 
Q 2956 2369 2687 2733 
Q 2419 3097 1959 3097 
z
M 1959 3584 
Q 2709 3584 3137 3096 
Q 3566 2609 3566 1747 
Q 3566 888 3137 398 
Q 2709 -91 1959 -91 
Q 1206 -91 779 398 
Q 353 888 353 1747 
Q 353 2609 779 3096 
Q 1206 3584 1959 3584 
z
" transform="scale(0.015625)"/>
       <path id="DejaVuSans-72" d="M 2631 2963 
Q 2534 3019 2420 3045 
Q 2306 3072 2169 3072 
Q 1681 3072 1420 2755 
Q 1159 2438 1159 1844 
L 1159 0 
L 581 0 
L 581 3500 
L 1159 3500 
L 1159 2956 
Q 1341 3275 1631 3429 
Q 1922 3584 2338 3584 
Q 2397 3584 2469 3576 
Q 2541 3569 2628 3553 
L 2631 2963 
z
" transform="scale(0.015625)"/>
       <path id="DejaVuSans-79" d="M 2059 -325 
Q 1816 -950 1584 -1140 
Q 1353 -1331 966 -1331 
L 506 -1331 
L 506 -850 
L 844 -850 
Q 1081 -850 1212 -737 
Q 1344 -625 1503 -206 
L 1606 56 
L 191 3500 
L 800 3500 
L 1894 763 
L 2988 3500 
L 3597 3500 
L 2059 -325 
z
" transform="scale(0.015625)"/>
       <path id="DejaVuSans-54" d="M -19 4666 
L 3928 4666 
L 3928 4134 
L 2272 4134 
L 2272 0 
L 1638 0 
L 1638 4134 
L -19 4134 
L -19 4666 
z
" transform="scale(0.015625)"/>
       <path id="DejaVuSans-65" d="M 3597 1894 
L 3597 1613 
L 953 1613 
Q 991 1019 1311 708 
Q 1631 397 2203 397 
Q 2534 397 2845 478 
Q 3156 559 3463 722 
L 3463 178 
Q 3153 47 2828 -22 
Q 2503 -91 2169 -91 
Q 1331 -91 842 396 
Q 353 884 353 1716 
Q 353 2575 817 3079 
Q 1281 3584 2069 3584 
Q 2775 3584 3186 3129 
Q 3597 2675 3597 1894 
z
M 3022 2063 
Q 3016 2534 2758 2815 
Q 2500 3097 2075 3097 
Q 1594 3097 1305 2825 
Q 1016 2553 972 2059 
L 3022 2063 
z
" transform="scale(0.015625)"/>
       <path id="DejaVuSans-6d" d="M 3328 2828 
Q 3544 3216 3844 3400 
Q 4144 3584 4550 3584 
Q 5097 3584 5394 3201 
Q 5691 2819 5691 2113 
L 5691 0 
L 5113 0 
L 5113 2094 
Q 5113 2597 4934 2840 
Q 4756 3084 4391 3084 
Q 3944 3084 3684 2787 
Q 3425 2491 3425 1978 
L 3425 0 
L 2847 0 
L 2847 2094 
Q 2847 2600 2669 2842 
Q 2491 3084 2119 3084 
Q 1678 3084 1418 2786 
Q 1159 2488 1159 1978 
L 1159 0 
L 581 0 
L 581 3500 
L 1159 3500 
L 1159 2956 
Q 1356 3278 1631 3431 
Q 1906 3584 2284 3584 
Q 2666 3584 2933 3390 
Q 3200 3197 3328 2828 
z
" transform="scale(0.015625)"/>
       <path id="DejaVuSans-70" d="M 1159 525 
L 1159 -1331 
L 581 -1331 
L 581 3500 
L 1159 3500 
L 1159 2969 
Q 1341 3281 1617 3432 
Q 1894 3584 2278 3584 
Q 2916 3584 3314 3078 
Q 3713 2572 3713 1747 
Q 3713 922 3314 415 
Q 2916 -91 2278 -91 
Q 1894 -91 1617 61 
Q 1341 213 1159 525 
z
M 3116 1747 
Q 3116 2381 2855 2742 
Q 2594 3103 2138 3103 
Q 1681 3103 1420 2742 
Q 1159 2381 1159 1747 
Q 1159 1113 1420 752 
Q 1681 391 2138 391 
Q 2594 391 2855 752 
Q 3116 1113 3116 1747 
z
" transform="scale(0.015625)"/>
       <path id="DejaVuSans-25" d="M 4653 2053 
Q 4381 2053 4226 1822 
Q 4072 1591 4072 1178 
Q 4072 772 4226 539 
Q 4381 306 4653 306 
Q 4919 306 5073 539 
Q 5228 772 5228 1178 
Q 5228 1588 5073 1820 
Q 4919 2053 4653 2053 
z
M 4653 2450 
Q 5147 2450 5437 2106 
Q 5728 1763 5728 1178 
Q 5728 594 5436 251 
Q 5144 -91 4653 -91 
Q 4153 -91 3862 251 
Q 3572 594 3572 1178 
Q 3572 1766 3864 2108 
Q 4156 2450 4653 2450 
z
M 1428 4353 
Q 1159 4353 1004 4120 
Q 850 3888 850 3481 
Q 850 3069 1003 2837 
Q 1156 2606 1428 2606 
Q 1700 2606 1854 2837 
Q 2009 3069 2009 3481 
Q 2009 3884 1853 4118 
Q 1697 4353 1428 4353 
z
M 4250 4750 
L 4750 4750 
L 1831 -91 
L 1331 -91 
L 4250 4750 
z
M 1428 4750 
Q 1922 4750 2215 4408 
Q 2509 4066 2509 3481 
Q 2509 2891 2217 2550 
Q 1925 2209 1428 2209 
Q 931 2209 642 2551 
Q 353 2894 353 3481 
Q 353 4063 643 4406 
Q 934 4750 1428 4750 
z
" transform="scale(0.015625)"/>
      </defs>
      <use xlink:href="#DejaVuSans-49"/>
      <use xlink:href="#DejaVuSans-6c" x="29.492188"/>
      <use xlink:href="#DejaVuSans-6c" x="57.275391"/>
      <use xlink:href="#DejaVuSans-75" x="85.058594"/>
      <use xlink:href="#DejaVuSans-73" x="148.4375"/>
      <use xlink:href="#DejaVuSans-6f" x="200.537109"/>
      <use xlink:href="#DejaVuSans-72" x="261.71875"/>
      <use xlink:href="#DejaVuSans-79" x="302.832031"/>
      <use xlink:href="#DejaVuSans-20" x="362.011719"/>
      <use xlink:href="#DejaVuSans-54" x="393.798828"/>
      <use xlink:href="#DejaVuSans-65" x="437.882812"/>
      <use xlink:href="#DejaVuSans-6d" x="499.40625"/>
      <use xlink:href="#DejaVuSans-70" x="596.818359"/>
      <use xlink:href="#DejaVuSans-6f" x="660.294922"/>
      <use xlink:href="#DejaVuSans-20" x="721.476562"/>
      <use xlink:href="#DejaVuSans-28" x="753.263672"/>
      <use xlink:href="#DejaVuSans-25" x="792.277344"/>
      <use xlink:href="#DejaVuSans-29" x="887.296875"/>
     </g>
    </g>
   </g>
   <g id="line2d_21">
    <path d="M 115.982083 341.055351 
L 205.166869 282.53549 
L 294.351655 151.688867 
L 383.536441 218.700212 
L 472.721228 192.642878 
L 561.906014 241.558239 
" clip-path="url(#p00bd0f2b20)" style="fill: none; stroke-dasharray: 19.2,4.8,3,4.8; stroke-dashoffset: 0; stroke: #e45171; stroke-width: 3"/>
   </g>
   <g id="LineCollection_2">
    <path d="M 115.982083 412.053777 
L 115.982083 267.706128 
" clip-path="url(#p00bd0f2b20)" style="fill: none; stroke: #e45171; stroke-width: 3; stroke-linecap: square"/>
    <path d="M 205.166869 348.267218 
L 205.166869 214.875051 
" clip-path="url(#p00bd0f2b20)" style="fill: none; stroke: #e45171; stroke-width: 3; stroke-linecap: square"/>
    <path d="M 294.351655 213.051258 
L 294.351655 89.463232 
" clip-path="url(#p00bd0f2b20)" style="fill: none; stroke: #e45171; stroke-width: 3; stroke-linecap: square"/>
    <path d="M 383.536441 285.742288 
L 383.536441 153.431609 
" clip-path="url(#p00bd0f2b20)" style="fill: none; stroke: #e45171; stroke-width: 3; stroke-linecap: square"/>
    <path d="M 472.721228 257.497344 
L 472.721228 132.041068 
" clip-path="url(#p00bd0f2b20)" style="fill: none; stroke: #e45171; stroke-width: 3; stroke-linecap: square"/>
    <path d="M 561.906014 305.28302 
L 561.906014 178.523747 
" clip-path="url(#p00bd0f2b20)" style="fill: none; stroke: #e45171; stroke-width: 3; stroke-linecap: square"/>
   </g>
   <g id="line2d_22">
    <defs>
     <path id="m31303c022d" d="M 6 0 
L -6 -0 
" style="stroke: #e45171; stroke-width: 3"/>
    </defs>
    <g clip-path="url(#p00bd0f2b20)">
     <use xlink:href="#m31303c022d" x="115.982083" y="412.053777" style="fill: #e45171; stroke: #e45171; stroke-width: 3"/>
     <use xlink:href="#m31303c022d" x="205.166869" y="348.267218" style="fill: #e45171; stroke: #e45171; stroke-width: 3"/>
     <use xlink:href="#m31303c022d" x="294.351655" y="213.051258" style="fill: #e45171; stroke: #e45171; stroke-width: 3"/>
     <use xlink:href="#m31303c022d" x="383.536441" y="285.742288" style="fill: #e45171; stroke: #e45171; stroke-width: 3"/>
     <use xlink:href="#m31303c022d" x="472.721228" y="257.497344" style="fill: #e45171; stroke: #e45171; stroke-width: 3"/>
     <use xlink:href="#m31303c022d" x="561.906014" y="305.28302" style="fill: #e45171; stroke: #e45171; stroke-width: 3"/>
    </g>
   </g>
   <g id="line2d_23">
    <g clip-path="url(#p00bd0f2b20)">
     <use xlink:href="#m31303c022d" x="115.982083" y="267.706128" style="fill: #e45171; stroke: #e45171; stroke-width: 3"/>
     <use xlink:href="#m31303c022d" x="205.166869" y="214.875051" style="fill: #e45171; stroke: #e45171; stroke-width: 3"/>
     <use xlink:href="#m31303c022d" x="294.351655" y="89.463232" style="fill: #e45171; stroke: #e45171; stroke-width: 3"/>
     <use xlink:href="#m31303c022d" x="383.536441" y="153.431609" style="fill: #e45171; stroke: #e45171; stroke-width: 3"/>
     <use xlink:href="#m31303c022d" x="472.721228" y="132.041068" style="fill: #e45171; stroke: #e45171; stroke-width: 3"/>
     <use xlink:href="#m31303c022d" x="561.906014" y="178.523747" style="fill: #e45171; stroke: #e45171; stroke-width: 3"/>
    </g>
   </g>
   <g id="line2d_24"/>
   <g id="patch_3">
    <path d="M 84.321484 476.6 
L 84.321484 19.8 
" style="fill: none; stroke: #000000; stroke-width: 0.8; stroke-linejoin: miter; stroke-linecap: square"/>
   </g>
   <g id="patch_4">
    <path d="M 84.321484 476.6 
L 584.648134 476.6 
" style="fill: none; stroke: #000000; stroke-width: 0.8; stroke-linejoin: miter; stroke-linecap: square"/>
   </g>
   <g id="legend_1">
    <g id="patch_5">
     <path d="M 403.964696 87.04125 
L 572.048134 87.04125 
Q 575.648134 87.04125 575.648134 83.44125 
L 575.648134 32.4 
Q 575.648134 28.8 572.048134 28.8 
L 403.964696 28.8 
Q 400.364696 28.8 400.364696 32.4 
L 400.364696 83.44125 
Q 400.364696 87.04125 403.964696 87.04125 
z
" style="fill: #ffffff; opacity: 0.8; stroke: #cccccc; stroke-linejoin: miter"/>
    </g>
    <g id="line2d_25">
     <path d="M 407.564696 43.377187 
L 425.564696 43.377187 
L 443.564696 43.377187 
" style="fill: none; stroke: #002c6a; stroke-width: 3; stroke-linecap: square"/>
    </g>
    <g id="text_18">
     <!-- Non-Tapping -->
     <g transform="translate(457.964696 49.677187)scale(0.18 -0.18)">
      <defs>
       <path id="DejaVuSans-4e" d="M 628 4666 
L 1478 4666 
L 3547 763 
L 3547 4666 
L 4159 4666 
L 4159 0 
L 3309 0 
L 1241 3903 
L 1241 0 
L 628 0 
L 628 4666 
z
" transform="scale(0.015625)"/>
       <path id="DejaVuSans-6e" d="M 3513 2113 
L 3513 0 
L 2938 0 
L 2938 2094 
Q 2938 2591 2744 2837 
Q 2550 3084 2163 3084 
Q 1697 3084 1428 2787 
Q 1159 2491 1159 1978 
L 1159 0 
L 581 0 
L 581 3500 
L 1159 3500 
L 1159 2956 
Q 1366 3272 1645 3428 
Q 1925 3584 2291 3584 
Q 2894 3584 3203 3211 
Q 3513 2838 3513 2113 
z
" transform="scale(0.015625)"/>
       <path id="DejaVuSans-2d" d="M 313 2009 
L 1997 2009 
L 1997 1497 
L 313 1497 
L 313 2009 
z
" transform="scale(0.015625)"/>
       <path id="DejaVuSans-61" d="M 2194 1759 
Q 1497 1759 1228 1600 
Q 959 1441 959 1056 
Q 959 750 1161 570 
Q 1363 391 1709 391 
Q 2188 391 2477 730 
Q 2766 1069 2766 1631 
L 2766 1759 
L 2194 1759 
z
M 3341 1997 
L 3341 0 
L 2766 0 
L 2766 531 
Q 2569 213 2275 61 
Q 1981 -91 1556 -91 
Q 1019 -91 701 211 
Q 384 513 384 1019 
Q 384 1609 779 1909 
Q 1175 2209 1959 2209 
L 2766 2209 
L 2766 2266 
Q 2766 2663 2505 2880 
Q 2244 3097 1772 3097 
Q 1472 3097 1187 3025 
Q 903 2953 641 2809 
L 641 3341 
Q 956 3463 1253 3523 
Q 1550 3584 1831 3584 
Q 2591 3584 2966 3190 
Q 3341 2797 3341 1997 
z
" transform="scale(0.015625)"/>
       <path id="DejaVuSans-67" d="M 2906 1791 
Q 2906 2416 2648 2759 
Q 2391 3103 1925 3103 
Q 1463 3103 1205 2759 
Q 947 2416 947 1791 
Q 947 1169 1205 825 
Q 1463 481 1925 481 
Q 2391 481 2648 825 
Q 2906 1169 2906 1791 
z
M 3481 434 
Q 3481 -459 3084 -895 
Q 2688 -1331 1869 -1331 
Q 1566 -1331 1297 -1286 
Q 1028 -1241 775 -1147 
L 775 -588 
Q 1028 -725 1275 -790 
Q 1522 -856 1778 -856 
Q 2344 -856 2625 -561 
Q 2906 -266 2906 331 
L 2906 616 
Q 2728 306 2450 153 
Q 2172 0 1784 0 
Q 1141 0 747 490 
Q 353 981 353 1791 
Q 353 2603 747 3093 
Q 1141 3584 1784 3584 
Q 2172 3584 2450 3431 
Q 2728 3278 2906 2969 
L 2906 3500 
L 3481 3500 
L 3481 434 
z
" transform="scale(0.015625)"/>
      </defs>
      <use xlink:href="#DejaVuSans-4e"/>
      <use xlink:href="#DejaVuSans-6f" x="74.804688"/>
      <use xlink:href="#DejaVuSans-6e" x="135.986328"/>
      <use xlink:href="#DejaVuSans-2d" x="199.365234"/>
      <use xlink:href="#DejaVuSans-54" x="226.324219"/>
      <use xlink:href="#DejaVuSans-61" x="270.908203"/>
      <use xlink:href="#DejaVuSans-70" x="332.1875"/>
      <use xlink:href="#DejaVuSans-70" x="395.664062"/>
      <use xlink:href="#DejaVuSans-69" x="459.140625"/>
      <use xlink:href="#DejaVuSans-6e" x="486.923828"/>
      <use xlink:href="#DejaVuSans-67" x="550.302734"/>
     </g>
    </g>
    <g id="line2d_26">
     <path d="M 407.564696 69.797812 
L 425.564696 69.797812 
L 443.564696 69.797812 
" style="fill: none; stroke-dasharray: 19.2,4.8,3,4.8; stroke-dashoffset: 0; stroke: #e45171; stroke-width: 3"/>
    </g>
    <g id="text_19">
     <!-- Tapping -->
     <g transform="translate(457.964696 76.097812)scale(0.18 -0.18)">
      <use xlink:href="#DejaVuSans-54"/>
      <use xlink:href="#DejaVuSans-61" x="44.583984"/>
      <use xlink:href="#DejaVuSans-70" x="105.863281"/>
      <use xlink:href="#DejaVuSans-70" x="169.339844"/>
      <use xlink:href="#DejaVuSans-69" x="232.816406"/>
      <use xlink:href="#DejaVuSans-6e" x="260.599609"/>
      <use xlink:href="#DejaVuSans-67" x="323.978516"/>
     </g>
    </g>
   </g>
  </g>
  <g id="axes_2">
   <g id="patch_6">
    <path d="M 697.00401 476.6 
L 997.2 476.6 
L 997.2 19.8 
L 697.00401 19.8 
z
" style="fill: #ffffff"/>
   </g>
   <g id="patch_7">
    <path d="M 712.01381 191.1 
L 772.053008 191.1 
L 772.053008 158.806169 
L 712.01381 158.806169 
z
" clip-path="url(#pe04e75d445)" style="fill: #0d2e5d; opacity: 0.75"/>
   </g>
   <g id="patch_8">
    <path d="M 862.111805 191.1 
L 922.151003 191.1 
L 922.151003 364.841328 
L 862.111805 364.841328 
z
" clip-path="url(#pe04e75d445)" style="fill: #0d2e5d; opacity: 0.75"/>
   </g>
   <g id="patch_9">
    <path d="M 772.053008 191.1 
L 832.092206 191.1 
L 832.092206 134.248795 
L 772.053008 134.248795 
z
" clip-path="url(#pe04e75d445)" style="fill: #d2637b; opacity: 0.75"/>
   </g>
   <g id="patch_10">
    <path d="M 922.151003 191.1 
L 982.190201 191.1 
L 982.190201 269.897865 
L 922.151003 269.897865 
z
" clip-path="url(#pe04e75d445)" style="fill: #d2637b; opacity: 0.75"/>
   </g>
   <g id="matplotlib.axis_3">
    <g id="xtick_7">
     <g id="line2d_27">
      <g>
       <use xlink:href="#ma21d8f6afe" x="772.053008" y="476.6" style="stroke: #000000; stroke-width: 0.8"/>
      </g>
     </g>
     <g id="text_20">
      <!-- Linear -->
      <g transform="translate(736.311367 501.076406)scale(0.23 -0.23)">
       <defs>
        <path id="DejaVuSans-4c" d="M 628 4666 
L 1259 4666 
L 1259 531 
L 3531 531 
L 3531 0 
L 628 0 
L 628 4666 
z
" transform="scale(0.015625)"/>
       </defs>
       <use xlink:href="#DejaVuSans-4c"/>
       <use xlink:href="#DejaVuSans-69" x="55.712891"/>
       <use xlink:href="#DejaVuSans-6e" x="83.496094"/>
       <use xlink:href="#DejaVuSans-65" x="146.875"/>
       <use xlink:href="#DejaVuSans-61" x="208.398438"/>
       <use xlink:href="#DejaVuSans-72" x="269.677734"/>
      </g>
     </g>
    </g>
    <g id="xtick_8">
     <g id="line2d_28">
      <g>
       <use xlink:href="#ma21d8f6afe" x="922.151003" y="476.6" style="stroke: #000000; stroke-width: 0.8"/>
      </g>
     </g>
     <g id="text_21">
      <!-- Quadratic -->
      <g transform="translate(865.660846 501.076406)scale(0.23 -0.23)">
       <defs>
        <path id="DejaVuSans-51" d="M 2522 4238 
Q 1834 4238 1429 3725 
Q 1025 3213 1025 2328 
Q 1025 1447 1429 934 
Q 1834 422 2522 422 
Q 3209 422 3611 934 
Q 4013 1447 4013 2328 
Q 4013 3213 3611 3725 
Q 3209 4238 2522 4238 
z
M 3406 84 
L 4238 -825 
L 3475 -825 
L 2784 -78 
Q 2681 -84 2626 -87 
Q 2572 -91 2522 -91 
Q 1538 -91 948 567 
Q 359 1225 359 2328 
Q 359 3434 948 4092 
Q 1538 4750 2522 4750 
Q 3503 4750 4090 4092 
Q 4678 3434 4678 2328 
Q 4678 1516 4351 937 
Q 4025 359 3406 84 
z
" transform="scale(0.015625)"/>
        <path id="DejaVuSans-64" d="M 2906 2969 
L 2906 4863 
L 3481 4863 
L 3481 0 
L 2906 0 
L 2906 525 
Q 2725 213 2448 61 
Q 2172 -91 1784 -91 
Q 1150 -91 751 415 
Q 353 922 353 1747 
Q 353 2572 751 3078 
Q 1150 3584 1784 3584 
Q 2172 3584 2448 3432 
Q 2725 3281 2906 2969 
z
M 947 1747 
Q 947 1113 1208 752 
Q 1469 391 1925 391 
Q 2381 391 2643 752 
Q 2906 1113 2906 1747 
Q 2906 2381 2643 2742 
Q 2381 3103 1925 3103 
Q 1469 3103 1208 2742 
Q 947 2381 947 1747 
z
" transform="scale(0.015625)"/>
       </defs>
       <use xlink:href="#DejaVuSans-51"/>
       <use xlink:href="#DejaVuSans-75" x="78.710938"/>
       <use xlink:href="#DejaVuSans-61" x="142.089844"/>
       <use xlink:href="#DejaVuSans-64" x="203.369141"/>
       <use xlink:href="#DejaVuSans-72" x="266.845703"/>
       <use xlink:href="#DejaVuSans-61" x="307.958984"/>
       <use xlink:href="#DejaVuSans-74" x="369.238281"/>
       <use xlink:href="#DejaVuSans-69" x="408.447266"/>
       <use xlink:href="#DejaVuSans-63" x="436.230469"/>
      </g>
     </g>
    </g>
   </g>
   <g id="matplotlib.axis_4">
    <g id="ytick_10">
     <g id="line2d_29">
      <g>
       <use xlink:href="#m55fd10537d" x="697.00401" y="476.6" style="stroke: #000000; stroke-width: 0.8"/>
      </g>
     </g>
     <g id="text_22">
      <!-- −25 -->
      <g transform="translate(641.463229 485.338203)scale(0.23 -0.23)">
       <use xlink:href="#DejaVuSans-2212"/>
       <use xlink:href="#DejaVuSans-32" x="83.789062"/>
       <use xlink:href="#DejaVuSans-35" x="147.412109"/>
      </g>
     </g>
    </g>
    <g id="ytick_11">
     <g id="line2d_30">
      <g>
       <use xlink:href="#m55fd10537d" x="697.00401" y="419.5" style="stroke: #000000; stroke-width: 0.8"/>
      </g>
     </g>
     <g id="text_23">
      <!-- −20 -->
      <g transform="translate(641.463229 428.238203)scale(0.23 -0.23)">
       <use xlink:href="#DejaVuSans-2212"/>
       <use xlink:href="#DejaVuSans-32" x="83.789062"/>
       <use xlink:href="#DejaVuSans-30" x="147.412109"/>
      </g>
     </g>
    </g>
    <g id="ytick_12">
     <g id="line2d_31">
      <g>
       <use xlink:href="#m55fd10537d" x="697.00401" y="362.4" style="stroke: #000000; stroke-width: 0.8"/>
      </g>
     </g>
     <g id="text_24">
      <!-- −15 -->
      <g transform="translate(641.463229 371.138203)scale(0.23 -0.23)">
       <use xlink:href="#DejaVuSans-2212"/>
       <use xlink:href="#DejaVuSans-31" x="83.789062"/>
       <use xlink:href="#DejaVuSans-35" x="147.412109"/>
      </g>
     </g>
    </g>
    <g id="ytick_13">
     <g id="line2d_32">
      <g>
       <use xlink:href="#m55fd10537d" x="697.00401" y="305.3" style="stroke: #000000; stroke-width: 0.8"/>
      </g>
     </g>
     <g id="text_25">
      <!-- −10 -->
      <g transform="translate(641.463229 314.038203)scale(0.23 -0.23)">
       <use xlink:href="#DejaVuSans-2212"/>
       <use xlink:href="#DejaVuSans-31" x="83.789062"/>
       <use xlink:href="#DejaVuSans-30" x="147.412109"/>
      </g>
     </g>
    </g>
    <g id="ytick_14">
     <g id="line2d_33">
      <g>
       <use xlink:href="#m55fd10537d" x="697.00401" y="248.2" style="stroke: #000000; stroke-width: 0.8"/>
      </g>
     </g>
     <g id="text_26">
      <!-- −5 -->
      <g transform="translate(656.096979 256.938203)scale(0.23 -0.23)">
       <use xlink:href="#DejaVuSans-2212"/>
       <use xlink:href="#DejaVuSans-35" x="83.789062"/>
      </g>
     </g>
    </g>
    <g id="ytick_15">
     <g id="line2d_34">
      <g>
       <use xlink:href="#m55fd10537d" x="697.00401" y="191.1" style="stroke: #000000; stroke-width: 0.8"/>
      </g>
     </g>
     <g id="text_27">
      <!-- 0 -->
      <g transform="translate(675.37026 199.838203)scale(0.23 -0.23)">
       <use xlink:href="#DejaVuSans-30"/>
      </g>
     </g>
    </g>
    <g id="ytick_16">
     <g id="line2d_35">
      <g>
       <use xlink:href="#m55fd10537d" x="697.00401" y="134" style="stroke: #000000; stroke-width: 0.8"/>
      </g>
     </g>
     <g id="text_28">
      <!-- 5 -->
      <g transform="translate(675.37026 142.738203)scale(0.23 -0.23)">
       <use xlink:href="#DejaVuSans-35"/>
      </g>
     </g>
    </g>
    <g id="ytick_17">
     <g id="line2d_36">
      <g>
       <use xlink:href="#m55fd10537d" x="697.00401" y="76.9" style="stroke: #000000; stroke-width: 0.8"/>
      </g>
     </g>
     <g id="text_29">
      <!-- 10 -->
      <g transform="translate(660.73651 85.638203)scale(0.23 -0.23)">
       <use xlink:href="#DejaVuSans-31"/>
       <use xlink:href="#DejaVuSans-30" x="63.623047"/>
      </g>
     </g>
    </g>
    <g id="ytick_18">
     <g id="line2d_37">
      <g>
       <use xlink:href="#m55fd10537d" x="697.00401" y="19.8" style="stroke: #000000; stroke-width: 0.8"/>
      </g>
     </g>
     <g id="text_30">
      <!-- 15 -->
      <g transform="translate(660.73651 28.538203)scale(0.23 -0.23)">
       <use xlink:href="#DejaVuSans-31"/>
       <use xlink:href="#DejaVuSans-35" x="63.623047"/>
      </g>
     </g>
    </g>
    <g id="text_31">
     <!-- Model Slope -->
     <g transform="translate(631.640104 333.532187)rotate(-90)scale(0.28 -0.28)">
      <defs>
       <path id="DejaVuSans-4d" d="M 628 4666 
L 1569 4666 
L 2759 1491 
L 3956 4666 
L 4897 4666 
L 4897 0 
L 4281 0 
L 4281 4097 
L 3078 897 
L 2444 897 
L 1241 4097 
L 1241 0 
L 628 0 
L 628 4666 
z
" transform="scale(0.015625)"/>
       <path id="DejaVuSans-53" d="M 3425 4513 
L 3425 3897 
Q 3066 4069 2747 4153 
Q 2428 4238 2131 4238 
Q 1616 4238 1336 4038 
Q 1056 3838 1056 3469 
Q 1056 3159 1242 3001 
Q 1428 2844 1947 2747 
L 2328 2669 
Q 3034 2534 3370 2195 
Q 3706 1856 3706 1288 
Q 3706 609 3251 259 
Q 2797 -91 1919 -91 
Q 1588 -91 1214 -16 
Q 841 59 441 206 
L 441 856 
Q 825 641 1194 531 
Q 1563 422 1919 422 
Q 2459 422 2753 634 
Q 3047 847 3047 1241 
Q 3047 1584 2836 1778 
Q 2625 1972 2144 2069 
L 1759 2144 
Q 1053 2284 737 2584 
Q 422 2884 422 3419 
Q 422 4038 858 4394 
Q 1294 4750 2059 4750 
Q 2388 4750 2728 4690 
Q 3069 4631 3425 4513 
z
" transform="scale(0.015625)"/>
      </defs>
      <use xlink:href="#DejaVuSans-4d"/>
      <use xlink:href="#DejaVuSans-6f" x="86.279297"/>
      <use xlink:href="#DejaVuSans-64" x="147.460938"/>
      <use xlink:href="#DejaVuSans-65" x="210.9375"/>
      <use xlink:href="#DejaVuSans-6c" x="272.460938"/>
      <use xlink:href="#DejaVuSans-20" x="300.244141"/>
      <use xlink:href="#DejaVuSans-53" x="332.03125"/>
      <use xlink:href="#DejaVuSans-6c" x="395.507812"/>
      <use xlink:href="#DejaVuSans-6f" x="423.291016"/>
      <use xlink:href="#DejaVuSans-70" x="484.472656"/>
      <use xlink:href="#DejaVuSans-65" x="547.949219"/>
     </g>
    </g>
   </g>
   <g id="line2d_38">
    <path d="M 742.033409 209.903947 
L 742.033409 108.644314 
" clip-path="url(#pe04e75d445)" style="fill: none; stroke: #424242; stroke-width: 2.7; stroke-linecap: square"/>
   </g>
   <g id="line2d_39">
    <path d="M 892.131404 421.145182 
L 892.131404 312.104326 
" clip-path="url(#pe04e75d445)" style="fill: none; stroke: #424242; stroke-width: 2.7; stroke-linecap: square"/>
   </g>
   <g id="line2d_40">
    <path d="M 802.072607 187.251592 
L 802.072607 80.634284 
" clip-path="url(#pe04e75d445)" style="fill: none; stroke: #424242; stroke-width: 2.7; stroke-linecap: square"/>
   </g>
   <g id="line2d_41">
    <path d="M 952.170602 327.128608 
L 952.170602 211.231827 
" clip-path="url(#pe04e75d445)" style="fill: none; stroke: #424242; stroke-width: 2.7; stroke-linecap: square"/>
   </g>
   <g id="line2d_42">
    <path d="M 697.00401 191.1 
L 997.2 191.1 
" clip-path="url(#pe04e75d445)" style="fill: none; stroke: #000000; stroke-width: 1.5; stroke-linecap: square"/>
   </g>
   <g id="patch_11">
    <path d="M 697.00401 476.6 
L 697.00401 19.8 
" style="fill: none; stroke: #000000; stroke-width: 0.8; stroke-linejoin: miter; stroke-linecap: square"/>
   </g>
   <g id="patch_12">
    <path d="M 697.00401 476.6 
L 997.2 476.6 
" style="fill: none; stroke: #000000; stroke-width: 0.8; stroke-linejoin: miter; stroke-linecap: square"/>
   </g>
   <g id="text_32">
    <!-- * -->
    <g transform="translate(916.151003 42.64)scale(0.24 -0.24)">
     <defs>
      <path id="DejaVuSans-2a" d="M 3009 3897 
L 1888 3291 
L 3009 2681 
L 2828 2375 
L 1778 3009 
L 1778 1831 
L 1422 1831 
L 1422 3009 
L 372 2375 
L 191 2681 
L 1313 3291 
L 191 3897 
L 372 4206 
L 1422 3572 
L 1422 4750 
L 1778 4750 
L 1778 3572 
L 2828 4206 
L 3009 3897 
z
" transform="scale(0.015625)"/>
     </defs>
     <use xlink:href="#DejaVuSans-2a"/>
    </g>
   </g>
   <g id="legend_2">
    <g id="patch_13">
     <path d="M 709.60401 467.6 
L 877.687448 467.6 
Q 881.287448 467.6 881.287448 464 
L 881.287448 412.95875 
Q 881.287448 409.35875 877.687448 409.35875 
L 709.60401 409.35875 
Q 706.00401 409.35875 706.00401 412.95875 
L 706.00401 464 
Q 706.00401 467.6 709.60401 467.6 
z
" style="fill: #ffffff; opacity: 0.8; stroke: #cccccc; stroke-linejoin: miter"/>
    </g>
    <g id="patch_14">
     <path d="M 713.20401 430.235937 
L 749.20401 430.235937 
L 749.20401 417.635937 
L 713.20401 417.635937 
z
" style="fill: #0d2e5d; opacity: 0.75"/>
    </g>
    <g id="text_33">
     <!-- Non-Tapping -->
     <g transform="translate(763.60401 430.235937)scale(0.18 -0.18)">
      <use xlink:href="#DejaVuSans-4e"/>
      <use xlink:href="#DejaVuSans-6f" x="74.804688"/>
      <use xlink:href="#DejaVuSans-6e" x="135.986328"/>
      <use xlink:href="#DejaVuSans-2d" x="199.365234"/>
      <use xlink:href="#DejaVuSans-54" x="226.324219"/>
      <use xlink:href="#DejaVuSans-61" x="270.908203"/>
      <use xlink:href="#DejaVuSans-70" x="332.1875"/>
      <use xlink:href="#DejaVuSans-70" x="395.664062"/>
      <use xlink:href="#DejaVuSans-69" x="459.140625"/>
      <use xlink:href="#DejaVuSans-6e" x="486.923828"/>
      <use xlink:href="#DejaVuSans-67" x="550.302734"/>
     </g>
    </g>
    <g id="patch_15">
     <path d="M 713.20401 456.656563 
L 749.20401 456.656563 
L 749.20401 444.056562 
L 713.20401 444.056562 
z
" style="fill: #d2637b; opacity: 0.75"/>
    </g>
    <g id="text_34">
     <!-- Tapping -->
     <g transform="translate(763.60401 456.656563)scale(0.18 -0.18)">
      <use xlink:href="#DejaVuSans-54"/>
      <use xlink:href="#DejaVuSans-61" x="44.583984"/>
      <use xlink:href="#DejaVuSans-70" x="105.863281"/>
      <use xlink:href="#DejaVuSans-70" x="169.339844"/>
      <use xlink:href="#DejaVuSans-69" x="232.816406"/>
      <use xlink:href="#DejaVuSans-6e" x="260.599609"/>
      <use xlink:href="#DejaVuSans-67" x="323.978516"/>
     </g>
    </g>
   </g>
  </g>
 </g>
 <defs>
  <clipPath id="p00bd0f2b20">
   <rect x="84.321484" y="19.8" width="500.32665" height="456.8"/>
  </clipPath>
  <clipPath id="pe04e75d445">
   <rect x="697.00401" y="19.8" width="300.19599" height="456.8"/>
  </clipPath>
 </defs>
</svg>
